<svg width="24" height="24" viewBox="0 0 24 24" fill="none" xmlns="http://www.w3.org/2000/svg">
<path d="M4.94262 14.8695L4.94816 14.864L4.95354 14.8583L7.24003 12.4446L7.42499 12.2494L7.36403 11.9874C6.9562 10.235 7.36218 8.40962 8.38501 6.98627C10.0957 4.75191 12.96 3.94201 15.5564 4.8906L15.5637 4.89326L15.5711 4.89569C15.5803 4.89876 15.596 4.90568 15.6147 4.91805C15.6333 4.93029 15.6496 4.9445 15.662 4.95813C15.6654 4.96193 15.6682 4.96531 15.6705 4.96821C15.6704 5.00925 15.6699 5.0447 15.6679 5.0793C15.6654 5.12274 15.6611 5.15392 15.6559 5.17618C15.6548 5.18078 15.6538 5.18461 15.6529 5.18773L15.6323 5.20138L15.5972 5.23618L13.3844 7.43041C12.9254 7.88565 12.6465 8.52375 12.6465 9.17513C12.6465 9.77152 12.9397 10.3325 13.3107 10.7004C13.7209 11.1072 14.3023 11.2842 14.8429 11.2842C15.3808 11.2842 15.9776 11.1076 16.3932 10.6093L18.7353 8.28679C18.7338 8.2883 18.7339 8.2882 18.7361 8.28686C18.7431 8.28238 18.772 8.26413 18.8334 8.24539C18.877 8.23209 18.9232 8.22286 18.9662 8.21759C18.9994 8.23357 19.0278 8.25111 19.0498 8.26858C19.0812 8.29352 19.0888 8.30914 19.0896 8.31085L19.0937 8.32323L19.0987 8.33575C19.9788 10.5512 19.3735 13.1209 17.6624 14.8177C16.1649 16.3026 13.9802 16.9162 11.8543 16.4402L11.572 16.3769L11.3765 16.5902L9.16376 19.0039L9.15647 19.0118L9.14954 19.0201C8.88539 19.3344 8.51523 19.5 8.05717 19.5C7.59415 19.5 7.20584 19.3293 6.93408 19.0598L4.94262 17.085C4.67734 16.822 4.50049 16.3689 4.50049 15.9772C4.50049 15.5856 4.67734 15.1325 4.94262 14.8695Z" stroke="#5A65EA"/>
</svg>
