<svg width="24" height="24" viewBox="0 0 24 24" fill="none" xmlns="http://www.w3.org/2000/svg">
<mask id="path-1-inside-1_187_7019" fill="white">
<path fill-rule="evenodd" clip-rule="evenodd" d="M9.36831 10.9473C11.1124 10.9473 12.5262 9.53347 12.5262 7.78939C12.5262 6.04532 11.1124 4.63147 9.36831 4.63147C7.62423 4.63147 6.21038 6.04532 6.21038 7.78939C6.21038 9.53347 7.62423 10.9473 9.36831 10.9473ZM16.7366 16.7613C16.7366 16.0184 16.4306 15.2939 15.8136 14.8801C14.1229 13.746 11.8577 13.0526 9.36831 13.0526C6.87874 13.0526 4.61345 13.7461 2.92266 14.8803C2.30575 15.2941 1.99982 16.0186 1.99982 16.7614C1.99982 18.2012 3.16704 19.3685 4.60687 19.3685H14.1294C15.5693 19.3685 16.7366 18.2012 16.7366 16.7613Z"/>
</mask>
<path fill-rule="evenodd" clip-rule="evenodd" d="M9.36831 10.9473C11.1124 10.9473 12.5262 9.53347 12.5262 7.78939C12.5262 6.04532 11.1124 4.63147 9.36831 4.63147C7.62423 4.63147 6.21038 6.04532 6.21038 7.78939C6.21038 9.53347 7.62423 10.9473 9.36831 10.9473ZM16.7366 16.7613C16.7366 16.0184 16.4306 15.2939 15.8136 14.8801C14.1229 13.746 11.8577 13.0526 9.36831 13.0526C6.87874 13.0526 4.61345 13.7461 2.92266 14.8803C2.30575 15.2941 1.99982 16.0186 1.99982 16.7614C1.99982 18.2012 3.16704 19.3685 4.60687 19.3685H14.1294C15.5693 19.3685 16.7366 18.2012 16.7366 16.7613Z" fill="url(#paint0_linear_187_7019)" fill-opacity="0.4"/>
<path d="M15.8136 14.8801L16.6492 13.6343L15.8136 14.8801ZM2.92266 14.8803L3.75825 16.126L3.75826 16.126L2.92266 14.8803ZM11.0262 7.78939C11.0262 8.70504 10.284 9.44732 9.36831 9.44732V12.4473C11.9408 12.4473 14.0262 10.3619 14.0262 7.78939H11.0262ZM9.36831 6.13147C10.284 6.13147 11.0262 6.87375 11.0262 7.78939H14.0262C14.0262 5.21689 11.9408 3.13147 9.36831 3.13147V6.13147ZM7.71038 7.78939C7.71038 6.87375 8.45266 6.13147 9.36831 6.13147V3.13147C6.79581 3.13147 4.71038 5.21689 4.71038 7.78939H7.71038ZM9.36831 9.44732C8.45266 9.44732 7.71038 8.70504 7.71038 7.78939H4.71038C4.71038 10.3619 6.79581 12.4473 9.36831 12.4473V9.44732ZM14.9781 16.1258C15.0913 16.2017 15.2366 16.4016 15.2366 16.7613H18.2366C18.2366 15.6352 17.7699 14.386 16.6492 13.6343L14.9781 16.1258ZM9.36831 14.5526C11.5894 14.5526 13.5577 15.1731 14.9781 16.1258L16.6492 13.6343C14.688 12.319 12.126 11.5526 9.36831 11.5526V14.5526ZM3.75826 16.126C5.17868 15.1732 7.14707 14.5526 9.36831 14.5526V11.5526C6.6104 11.5526 4.04822 12.3191 2.08706 13.6346L3.75826 16.126ZM3.49982 16.7614C3.49982 16.4017 3.64509 16.2019 3.75825 16.126L2.08706 13.6346C0.96642 14.3863 0.499817 15.6354 0.499817 16.7614H3.49982ZM4.60687 17.8685C3.99546 17.8685 3.49982 17.3728 3.49982 16.7614H0.499817C0.499817 19.0297 2.33861 20.8685 4.60687 20.8685V17.8685ZM14.1294 17.8685H4.60687V20.8685H14.1294V17.8685ZM15.2366 16.7613C15.2366 17.3728 14.7409 17.8685 14.1294 17.8685V20.8685C16.3977 20.8685 18.2366 19.0296 18.2366 16.7613H15.2366Z" fill="#9294A9" mask="url(#path-1-inside-1_187_7019)"/>
<mask id="path-3-inside-2_187_7019" fill="white">
<path fill-rule="evenodd" clip-rule="evenodd" d="M18.9929 10.0451C18.9929 11.2908 17.983 12.3007 16.7373 12.3007C15.4915 12.3007 14.4816 11.2908 14.4816 10.0451C14.4816 8.79929 15.4915 7.78939 16.7373 7.78939C17.983 7.78939 18.9929 8.79929 18.9929 10.0451ZM21.3413 15.1103C21.7819 15.4059 22.0004 15.9233 22.0004 16.4538C22.0004 17.4822 21.1667 18.3158 20.1383 18.3158H17.3996C17.6481 17.8808 17.7901 17.377 17.7901 16.8402C17.7901 15.9912 17.4405 15.1633 16.7355 14.6904C16.3073 14.4032 15.8469 14.1407 15.3585 13.906C15.8036 13.8395 16.2646 13.8046 16.7369 13.8046C18.5154 13.8046 20.1336 14.3001 21.3413 15.1103Z"/>
</mask>
<path d="M21.3412 15.1104L22.1769 13.8647L22.1769 13.8647L21.3412 15.1104ZM17.3994 18.3158L16.0969 17.5718C15.8317 18.0361 15.8337 18.6064 16.1021 19.0688C16.3705 19.5312 16.8647 19.8158 17.3994 19.8158V18.3158ZM16.7353 14.6904L17.5709 13.4448L17.5709 13.4448L16.7353 14.6904ZM15.3584 13.9061L15.1367 12.4225C14.4852 12.5199 13.9735 13.0309 13.8752 13.6822C13.7769 14.3335 14.115 14.9728 14.7087 15.2581L15.3584 13.9061ZM16.7371 13.8007C18.8113 13.8007 20.4928 12.1193 20.4928 10.0451H17.4928C17.4928 10.4624 17.1544 10.8007 16.7371 10.8007V13.8007ZM12.9814 10.0451C12.9814 12.1193 14.6629 13.8007 16.7371 13.8007V10.8007C16.3198 10.8007 15.9814 10.4624 15.9814 10.0451H12.9814ZM16.7371 6.28943C14.6629 6.28943 12.9814 7.9709 12.9814 10.0451H15.9814C15.9814 9.62775 16.3198 9.28943 16.7371 9.28943V6.28943ZM20.4928 10.0451C20.4928 7.9709 18.8113 6.28943 16.7371 6.28943V9.28943C17.1544 9.28943 17.4928 9.62775 17.4928 10.0451H20.4928ZM23.5002 16.4538C23.5002 15.5402 23.1211 14.4982 22.1769 13.8647L20.5055 16.356C20.4942 16.3484 20.4856 16.3401 20.4804 16.3339C20.4755 16.3281 20.476 16.3271 20.4792 16.3338C20.4866 16.3495 20.5002 16.3904 20.5002 16.4538H23.5002ZM20.1382 19.8158C21.995 19.8158 23.5002 18.3106 23.5002 16.4538H20.5002C20.5002 16.6538 20.3381 16.8158 20.1382 16.8158V19.8158ZM17.3994 19.8158H20.1382V16.8158H17.3994V19.8158ZM16.2899 16.8402C16.2899 17.1093 16.2194 17.3574 16.0969 17.5718L18.7019 19.0598C19.0764 18.4042 19.2899 17.6449 19.2899 16.8402H16.2899ZM15.8997 15.9361C16.101 16.0711 16.2899 16.3744 16.2899 16.8402H19.2899C19.2899 15.6082 18.7796 14.2556 17.5709 13.4448L15.8997 15.9361ZM14.7087 15.2581C15.1353 15.4631 15.5333 15.6904 15.8997 15.9361L17.5709 13.4448C17.0809 13.116 16.5581 12.8183 16.008 12.554L14.7087 15.2581ZM16.7367 12.3046C16.1905 12.3046 15.6554 12.345 15.1367 12.4225L15.5801 15.3896C15.9514 15.3341 16.3383 15.3046 16.7367 15.3046V12.3046ZM22.1769 13.8647C20.6987 12.873 18.7836 12.3046 16.7367 12.3046V15.3046C18.2468 15.3046 19.5681 15.7271 20.5055 16.356L22.1769 13.8647Z" fill="#9294A9" mask="url(#path-3-inside-2_187_7019)"/>
<defs>
<linearGradient id="paint0_linear_187_7019" x1="15.6842" y1="14.6316" x2="4.63142" y2="5.68411" gradientUnits="userSpaceOnUse">
<stop stop-color="#9294A9" stop-opacity="0"/>
<stop offset="0.359375" stop-color="#9294A9" stop-opacity="0.359375"/>
<stop offset="1" stop-color="#9294A9"/>
</linearGradient>
</defs>
</svg>
