<svg width="24" height="24" viewBox="0 0 24 24" fill="none" xmlns="http://www.w3.org/2000/svg">
<path d="M14 3H16.5M19 3H16.5M16.5 3V21M14 21H19" stroke="#434559" stroke-linecap="round"/>
<path d="M16.5 7H19C20.1046 7 21 7.89543 21 9V15C21 16.1046 20.1046 17 19 17H16.5" stroke="#434559" stroke-linecap="round"/>
<path d="M3 9C3 7.89543 3.89543 7 5 7H14V17H5C3.89543 17 3 16.1046 3 15V9Z" fill="url(#paint0_linear_187_7013)"/>
<path d="M14 17L5 17C3.89543 17 3 16.1046 3 15L3 9C3 7.89543 3.89543 7 5 7L14 7" stroke="#434559" stroke-linecap="round"/>
<defs>
<linearGradient id="paint0_linear_187_7013" x1="14" y1="12.5" x2="4" y2="12.5" gradientUnits="userSpaceOnUse">
<stop offset="0.0562363" stop-color="#A790F9" stop-opacity="0"/>
<stop offset="0.25" stop-color="#A38CF9" stop-opacity="0.58"/>
<stop offset="1" stop-color="#8160F7"/>
</linearGradient>
</defs>
</svg>
