<svg width="24" height="24" viewBox="0 0 24 24" fill="none" xmlns="http://www.w3.org/2000/svg">
<g filter="url(#filter0_i_187_6938)">
<path fill-rule="evenodd" clip-rule="evenodd" d="M4 2C2.89543 2 2 2.89543 2 4V9C2 10.1046 2.89543 11 4 11H9C10.1046 11 11 10.1046 11 9V4C11 2.89543 10.1046 2 9 2H4ZM4 13C2.89543 13 2 13.8954 2 15V20C2 21.1046 2.89543 22 4 22H9C10.1046 22 11 21.1046 11 20V15C11 13.8954 10.1046 13 9 13H4ZM13 4C13 2.89543 13.8954 2 15 2H20C21.1046 2 22 2.89543 22 4V9C22 10.1046 21.1046 11 20 11H15C13.8954 11 13 10.1046 13 9V4ZM15 13C13.8954 13 13 13.8954 13 15V20C13 21.1046 13.8954 22 15 22H20C21.1046 22 22 21.1046 22 20V15C22 13.8954 21.1046 13 20 13H15Z" fill="url(#paint0_linear_187_6938)"/>
</g>
<rect x="2.5" y="13.5" width="8" height="8" rx="1.5" stroke="#434559"/>
<rect x="13.5" y="2.5" width="8" height="8" rx="1.5" stroke="#434559"/>
<rect x="2.5" y="2.5" width="8" height="8" rx="1.5" stroke="#434559"/>
<rect x="13.5" y="13.5" width="8" height="8" rx="1.5" stroke="#434559"/>
<defs>
<filter id="filter0_i_187_6938" x="2" y="1.5" width="20" height="20.5" filterUnits="userSpaceOnUse" color-interpolation-filters="sRGB">
<feFlood flood-opacity="0" result="BackgroundImageFix"/>
<feBlend mode="normal" in="SourceGraphic" in2="BackgroundImageFix" result="shape"/>
<feColorMatrix in="SourceAlpha" type="matrix" values="0 0 0 0 0 0 0 0 0 0 0 0 0 0 0 0 0 0 127 0" result="hardAlpha"/>
<feOffset dy="-0.5"/>
<feGaussianBlur stdDeviation="0.75"/>
<feComposite in2="hardAlpha" operator="arithmetic" k2="-1" k3="1"/>
<feColorMatrix type="matrix" values="0 0 0 0 0 0 0 0 0 0 0 0 0 0 0 0 0 0 1 0"/>
<feBlend mode="normal" in2="shape" result="effect1_innerShadow_187_6938"/>
</filter>
<linearGradient id="paint0_linear_187_6938" x1="13.5" y1="2" x2="13.5" y2="22" gradientUnits="userSpaceOnUse">
<stop offset="0.0562363" stop-color="#A790F9"/>
<stop offset="1" stop-color="#8160F7"/>
</linearGradient>
</defs>
</svg>
