<svg width="24" height="24" viewBox="0 0 24 24" fill="none" xmlns="http://www.w3.org/2000/svg">
<circle cx="10.5" cy="10.5" r="7.25" fill="url(#paint0_linear_187_6981)" fill-opacity="0.4"/>
<circle cx="10.5" cy="10.5" r="7.25" stroke="black" stroke-width="1.5"/>
<circle cx="10.5" cy="10.5" r="7.25" stroke="#9294A9" stroke-width="1.5"/>
<path d="M6.49609 8.97473H14.4961" stroke="black" stroke-width="1.5" stroke-linecap="round"/>
<path d="M6.49609 8.97473H14.4961" stroke="#9294A9" stroke-width="1.5" stroke-linecap="round"/>
<path d="M6.49609 11.4747H10.4961" stroke="black" stroke-width="1.5" stroke-linecap="round"/>
<path d="M6.49609 11.4747H10.4961" stroke="#9294A9" stroke-width="1.5" stroke-linecap="round"/>
<mask id="path-4-inside-1_187_6981" fill="white">
<path d="M13.4849 16.8792L16.879 13.485L20.8388 17.4448C21.776 18.3821 21.776 19.9017 20.8388 20.8389V20.8389C19.9015 21.7762 18.3819 21.7762 17.4447 20.8389L13.4849 16.8792Z"/>
</mask>
<path d="M13.4849 16.8792L16.879 13.485L20.8388 17.4448C21.776 18.3821 21.776 19.9017 20.8388 20.8389V20.8389C19.9015 21.7762 18.3819 21.7762 17.4447 20.8389L13.4849 16.8792Z" fill="url(#paint1_linear_187_6981)" fill-opacity="0.4"/>
<path d="M13.4849 16.8792L16.879 13.485L13.4849 16.8792ZM21.8994 16.3842C23.4225 17.9072 23.4225 20.3766 21.8994 21.8996C20.3764 23.4227 17.907 23.4227 16.384 21.8996L18.5053 19.7783C18.8568 20.1298 19.4266 20.1298 19.7781 19.7783C20.1296 19.4268 20.1296 18.857 19.7781 18.5055L21.8994 16.3842ZM21.8994 21.8996C20.3764 23.4227 17.907 23.4227 16.384 21.8996L12.4242 17.9398L14.5455 15.8185L18.5053 19.7783C18.8568 20.1298 19.4266 20.1298 19.7781 19.7783L21.8994 21.8996ZM17.9396 12.4244L21.8994 16.3842C23.4225 17.9072 23.4225 20.3766 21.8994 21.8996L19.7781 19.7783C20.1296 19.4268 20.1296 18.857 19.7781 18.5055L15.8183 14.5457L17.9396 12.4244Z" fill="black" mask="url(#path-4-inside-1_187_6981)"/>
<path d="M13.4849 16.8792L16.879 13.485L13.4849 16.8792ZM21.8994 16.3842C23.4225 17.9072 23.4225 20.3766 21.8994 21.8996C20.3764 23.4227 17.907 23.4227 16.384 21.8996L18.5053 19.7783C18.8568 20.1298 19.4266 20.1298 19.7781 19.7783C20.1296 19.4268 20.1296 18.857 19.7781 18.5055L21.8994 16.3842ZM21.8994 21.8996C20.3764 23.4227 17.907 23.4227 16.384 21.8996L12.4242 17.9398L14.5455 15.8185L18.5053 19.7783C18.8568 20.1298 19.4266 20.1298 19.7781 19.7783L21.8994 21.8996ZM17.9396 12.4244L21.8994 16.3842C23.4225 17.9072 23.4225 20.3766 21.8994 21.8996L19.7781 19.7783C20.1296 19.4268 20.1296 18.857 19.7781 18.5055L15.8183 14.5457L17.9396 12.4244Z" fill="#9294A9" mask="url(#path-4-inside-1_187_6981)"/>
<defs>
<linearGradient id="paint0_linear_187_6981" x1="15.5" y1="12.5" x2="5" y2="2" gradientUnits="userSpaceOnUse">
<stop stop-color="#9294A9" stop-opacity="0"/>
<stop offset="0.359375" stop-color="#9294A9" stop-opacity="0.359375"/>
<stop offset="1" stop-color="#9294A9"/>
</linearGradient>
<linearGradient id="paint1_linear_187_6981" x1="14.8991" y1="14.8993" x2="20.8388" y2="20.8389" gradientUnits="userSpaceOnUse">
<stop stop-color="#9294A9" stop-opacity="0"/>
<stop offset="0.359375" stop-color="#9294A9" stop-opacity="0.359375"/>
<stop offset="1" stop-color="#9294A9"/>
</linearGradient>
</defs>
</svg>
