<svg width="24" height="24" viewBox="0 0 24 24" fill="none" xmlns="http://www.w3.org/2000/svg">
<mask id="path-1-inside-1_187_6987" fill="white">
<path d="M13.4849 16.8792L16.879 13.485L20.8388 17.4448C21.776 18.3821 21.776 19.9017 20.8388 20.8389V20.8389C19.9015 21.7762 18.3819 21.7762 17.4447 20.8389L13.4849 16.8792Z"/>
</mask>
<g filter="url(#filter0_i_187_6987)">
<path d="M13.4849 16.8792L16.879 13.485L20.8388 17.4448C21.776 18.3821 21.776 19.9017 20.8388 20.8389V20.8389C19.9015 21.7762 18.3819 21.7762 17.4447 20.8389L13.4849 16.8792Z" fill="url(#paint0_linear_187_6987)"/>
</g>
<path d="M13.4849 16.8792L16.879 13.485L13.4849 16.8792ZM21.5459 16.7377C22.8737 18.0655 22.8737 20.2183 21.5459 21.5461C20.2181 22.8738 18.0653 22.8738 16.7376 21.5461L18.1518 20.1318C18.6985 20.6786 19.5849 20.6786 20.1317 20.1318C20.6784 19.5851 20.6784 18.6987 20.1317 18.1519L21.5459 16.7377ZM21.5459 21.5461C20.2181 22.8738 18.0653 22.8738 16.7376 21.5461L12.7778 17.5863L14.192 16.172L18.1518 20.1318C18.6985 20.6786 19.5849 20.6786 20.1317 20.1318L21.5459 21.5461ZM17.5861 12.7779L21.5459 16.7377C22.8737 18.0655 22.8737 20.2183 21.5459 21.5461L20.1317 20.1318C20.6784 19.5851 20.6784 18.6987 20.1317 18.1519L16.1719 14.1921L17.5861 12.7779Z" fill="black" mask="url(#path-1-inside-1_187_6987)"/>
<path d="M13.4849 16.8792L16.879 13.485L13.4849 16.8792ZM21.5459 16.7377C22.8737 18.0655 22.8737 20.2183 21.5459 21.5461C20.2181 22.8738 18.0653 22.8738 16.7376 21.5461L18.1518 20.1318C18.6985 20.6786 19.5849 20.6786 20.1317 20.1318C20.6784 19.5851 20.6784 18.6987 20.1317 18.1519L21.5459 16.7377ZM21.5459 21.5461C20.2181 22.8738 18.0653 22.8738 16.7376 21.5461L12.7778 17.5863L14.192 16.172L18.1518 20.1318C18.6985 20.6786 19.5849 20.6786 20.1317 20.1318L21.5459 21.5461ZM17.5861 12.7779L21.5459 16.7377C22.8737 18.0655 22.8737 20.2183 21.5459 21.5461L20.1317 20.1318C20.6784 19.5851 20.6784 18.6987 20.1317 18.1519L16.1719 14.1921L17.5861 12.7779Z" fill="#9294A9" mask="url(#path-1-inside-1_187_6987)"/>
<path d="M13.4849 16.8792L16.879 13.485L13.4849 16.8792ZM21.5459 16.7377C22.8737 18.0655 22.8737 20.2183 21.5459 21.5461C20.2181 22.8738 18.0653 22.8738 16.7376 21.5461L18.1518 20.1318C18.6985 20.6786 19.5849 20.6786 20.1317 20.1318C20.6784 19.5851 20.6784 18.6987 20.1317 18.1519L21.5459 16.7377ZM21.5459 21.5461C20.2181 22.8738 18.0653 22.8738 16.7376 21.5461L12.7778 17.5863L14.192 16.172L18.1518 20.1318C18.6985 20.6786 19.5849 20.6786 20.1317 20.1318L21.5459 21.5461ZM17.5861 12.7779L21.5459 16.7377C22.8737 18.0655 22.8737 20.2183 21.5459 21.5461L20.1317 20.1318C20.6784 19.5851 20.6784 18.6987 20.1317 18.1519L16.1719 14.1921L17.5861 12.7779Z" fill="#434559" mask="url(#path-1-inside-1_187_6987)"/>
<g filter="url(#filter1_i_187_6987)">
<circle cx="10.5" cy="10.5" r="8" fill="url(#paint1_linear_187_6987)"/>
</g>
<circle cx="10.5" cy="10.5" r="7.5" stroke="black"/>
<circle cx="10.5" cy="10.5" r="7.5" stroke="#9294A9"/>
<circle cx="10.5" cy="10.5" r="7.5" stroke="#434559"/>
<path d="M6.49609 8.97473H14.4961" stroke="black" stroke-linecap="round"/>
<path d="M6.49609 8.97473H14.4961" stroke="#9294A9" stroke-linecap="round"/>
<path d="M6.49609 8.97473H14.4961" stroke="#434559" stroke-linecap="round"/>
<path d="M6.49609 11.4747H10.4961" stroke="black" stroke-linecap="round"/>
<path d="M6.49609 11.4747H10.4961" stroke="#9294A9" stroke-linecap="round"/>
<path d="M6.49609 11.4747H10.4961" stroke="#434559" stroke-linecap="round"/>
<defs>
<filter id="filter0_i_187_6987" x="13.4849" y="12.985" width="8.05688" height="8.55688" filterUnits="userSpaceOnUse" color-interpolation-filters="sRGB">
<feFlood flood-opacity="0" result="BackgroundImageFix"/>
<feBlend mode="normal" in="SourceGraphic" in2="BackgroundImageFix" result="shape"/>
<feColorMatrix in="SourceAlpha" type="matrix" values="0 0 0 0 0 0 0 0 0 0 0 0 0 0 0 0 0 0 127 0" result="hardAlpha"/>
<feOffset dy="-0.5"/>
<feGaussianBlur stdDeviation="0.75"/>
<feComposite in2="hardAlpha" operator="arithmetic" k2="-1" k3="1"/>
<feColorMatrix type="matrix" values="0 0 0 0 0 0 0 0 0 0 0 0 0 0 0 0 0 0 1 0"/>
<feBlend mode="normal" in2="shape" result="effect1_innerShadow_187_6987"/>
</filter>
<filter id="filter1_i_187_6987" x="2.5" y="2" width="16" height="16.5" filterUnits="userSpaceOnUse" color-interpolation-filters="sRGB">
<feFlood flood-opacity="0" result="BackgroundImageFix"/>
<feBlend mode="normal" in="SourceGraphic" in2="BackgroundImageFix" result="shape"/>
<feColorMatrix in="SourceAlpha" type="matrix" values="0 0 0 0 0 0 0 0 0 0 0 0 0 0 0 0 0 0 127 0" result="hardAlpha"/>
<feOffset dy="-0.5"/>
<feGaussianBlur stdDeviation="0.75"/>
<feComposite in2="hardAlpha" operator="arithmetic" k2="-1" k3="1"/>
<feColorMatrix type="matrix" values="0 0 0 0 0 0 0 0 0 0 0 0 0 0 0 0 0 0 1 0"/>
<feBlend mode="normal" in2="shape" result="effect1_innerShadow_187_6987"/>
</filter>
<linearGradient id="paint0_linear_187_6987" x1="15.4365" y1="14.9275" x2="21.9995" y2="21.4906" gradientUnits="userSpaceOnUse">
<stop offset="0.0562363" stop-color="#A790F9"/>
<stop offset="1" stop-color="#8160F7"/>
</linearGradient>
<linearGradient id="paint1_linear_187_6987" x1="12.5" y1="13.5" x2="4" y2="5" gradientUnits="userSpaceOnUse">
<stop offset="0.0562363" stop-color="#A790F9"/>
<stop offset="1" stop-color="#8160F7"/>
</linearGradient>
</defs>
</svg>
