<svg width="24" height="24" viewBox="0 0 24 24" fill="none" xmlns="http://www.w3.org/2000/svg">
<mask id="path-1-inside-1_187_7000" fill="white">
<path d="M2.5 4.5C2.5 3.39543 3.39543 2.5 4.5 2.5H10V21.5H4.5C3.39543 21.5 2.5 20.6046 2.5 19.5V4.5Z"/>
</mask>
<g filter="url(#filter0_i_187_7000)">
<path d="M2.5 4.5C2.5 3.39543 3.39543 2.5 4.5 2.5H10V21.5H4.5C3.39543 21.5 2.5 20.6046 2.5 19.5V4.5Z" fill="url(#paint0_linear_187_7000)"/>
</g>
<path d="M1.5 4.5C1.5 2.84315 2.84315 1.5 4.5 1.5H10V3.5H4.5C3.94772 3.5 3.5 3.94772 3.5 4.5H1.5ZM10 22.5H4.5C2.84315 22.5 1.5 21.1569 1.5 19.5H3.5C3.5 20.0523 3.94772 20.5 4.5 20.5H10V22.5ZM4.5 22.5C2.84315 22.5 1.5 21.1569 1.5 19.5V4.5C1.5 2.84315 2.84315 1.5 4.5 1.5V3.5C3.94772 3.5 3.5 3.94772 3.5 4.5V19.5C3.5 20.0523 3.94772 20.5 4.5 20.5V22.5ZM10 2.5V21.5V2.5Z" fill="#434559" mask="url(#path-1-inside-1_187_7000)"/>
<g filter="url(#filter1_i_187_7000)">
<path d="M8.5 2.5H19.5C20.6046 2.5 21.5 3.39543 21.5 4.5V19.5C21.5 20.6046 20.6046 21.5 19.5 21.5H8.5V2.5Z" fill="url(#paint1_linear_187_7000)"/>
</g>
<path d="M9 3H19.5C20.3284 3 21 3.67157 21 4.5V19.5C21 20.3284 20.3284 21 19.5 21H9V3Z" stroke="#434559"/>
<path d="M12.5 7.5H17.5" stroke="#434559" stroke-linecap="round"/>
<path d="M12.5 12.5H17.5" stroke="#434559" stroke-linecap="round"/>
<path d="M12.5 17.5H17.5" stroke="#434559" stroke-linecap="round"/>
<defs>
<filter id="filter0_i_187_7000" x="2.5" y="2" width="7.5" height="19.5" filterUnits="userSpaceOnUse" color-interpolation-filters="sRGB">
<feFlood flood-opacity="0" result="BackgroundImageFix"/>
<feBlend mode="normal" in="SourceGraphic" in2="BackgroundImageFix" result="shape"/>
<feColorMatrix in="SourceAlpha" type="matrix" values="0 0 0 0 0 0 0 0 0 0 0 0 0 0 0 0 0 0 127 0" result="hardAlpha"/>
<feOffset dy="-0.5"/>
<feGaussianBlur stdDeviation="0.75"/>
<feComposite in2="hardAlpha" operator="arithmetic" k2="-1" k3="1"/>
<feColorMatrix type="matrix" values="0 0 0 0 0 0 0 0 0 0 0 0 0 0 0 0 0 0 1 0"/>
<feBlend mode="normal" in2="shape" result="effect1_innerShadow_187_7000"/>
</filter>
<filter id="filter1_i_187_7000" x="8.5" y="2" width="13" height="19.5" filterUnits="userSpaceOnUse" color-interpolation-filters="sRGB">
<feFlood flood-opacity="0" result="BackgroundImageFix"/>
<feBlend mode="normal" in="SourceGraphic" in2="BackgroundImageFix" result="shape"/>
<feColorMatrix in="SourceAlpha" type="matrix" values="0 0 0 0 0 0 0 0 0 0 0 0 0 0 0 0 0 0 127 0" result="hardAlpha"/>
<feOffset dy="-0.5"/>
<feGaussianBlur stdDeviation="0.75"/>
<feComposite in2="hardAlpha" operator="arithmetic" k2="-1" k3="1"/>
<feColorMatrix type="matrix" values="0 0 0 0 0 0 0 0 0 0 0 0 0 0 0 0 0 0 1 0"/>
<feBlend mode="normal" in2="shape" result="effect1_innerShadow_187_7000"/>
</filter>
<linearGradient id="paint0_linear_187_7000" x1="6.8125" y1="2.5" x2="6.8125" y2="21.5" gradientUnits="userSpaceOnUse">
<stop stop-color="#8160F7"/>
<stop offset="1" stop-color="#A790F9"/>
</linearGradient>
<linearGradient id="paint1_linear_187_7000" x1="15.975" y1="2.5" x2="15.975" y2="21.5" gradientUnits="userSpaceOnUse">
<stop stop-color="#8160F7"/>
<stop offset="1" stop-color="#A790F9"/>
</linearGradient>
</defs>
</svg>
