<svg width="24" height="24" viewBox="0 0 24 24" fill="none" xmlns="http://www.w3.org/2000/svg">
<path fill-rule="evenodd" clip-rule="evenodd" d="M15.3536 6.64645C15.1583 6.45118 14.8417 6.45118 14.6465 6.64645C14.4512 6.84171 14.4512 7.15829 14.6465 7.35355L17.2929 10H5.50001C5.22387 10 5.00001 10.2239 5.00001 10.5C5.00001 10.7761 5.22387 11 5.50001 11H18.5C18.7022 11 18.8846 10.8782 18.962 10.6913C19.0393 10.5045 18.9966 10.2894 18.8536 10.1464L15.3536 6.64645ZM8.64646 17.3536C8.84172 17.5488 9.15831 17.5488 9.35357 17.3536C9.54883 17.1583 9.54883 16.8417 9.35357 16.6464L6.70712 14L18.5 14C18.7762 14 19 13.7761 19 13.5C19 13.2239 18.7762 13 18.5 13L5.50001 13C5.29778 13 5.11547 13.1218 5.03807 13.3087C4.96068 13.4955 5.00346 13.7106 5.14646 13.8536L8.64646 17.3536Z" fill="#1F1F1F" fill-opacity="0.6"/>
</svg>
