<svg width="24" height="24" viewBox="0 0 24 24" fill="none" xmlns="http://www.w3.org/2000/svg">
<path fill-rule="evenodd" clip-rule="evenodd" d="M11.6185 9.9472C12.8103 9.9472 13.7764 8.98106 13.7764 7.78927C13.7764 6.59748 12.8103 5.63135 11.6185 5.63135C10.4267 5.63135 9.46057 6.59748 9.46057 7.78927C9.46057 8.98106 10.4267 9.9472 11.6185 9.9472ZM11.6185 14.0525C12.0635 14.0525 12.4995 14.0764 12.9242 14.1223C13.1174 13.7899 13.3477 13.4819 13.6096 13.2039C12.9676 13.1047 12.3015 13.0525 11.6185 13.0525C9.12892 13.0525 6.86363 13.746 5.17284 14.8802C4.55594 15.294 4.25 16.0184 4.25 16.7613C4.25 18.2011 5.41722 19.3683 6.85706 19.3683H13.065C12.8612 19.0574 12.6911 18.7223 12.56 18.3683H6.85706C5.9695 18.3683 5.25 17.6488 5.25 16.7613C5.25 16.2739 5.44883 15.8992 5.72991 15.7106C7.24045 14.6974 9.30781 14.0525 11.6185 14.0525ZM14.7764 7.78927C14.7764 9.53334 13.3626 10.9472 11.6185 10.9472C9.87442 10.9472 8.46057 9.53334 8.46057 7.78927C8.46057 6.0452 9.87442 4.63135 11.6185 4.63135C13.3626 4.63135 14.7764 6.0452 14.7764 7.78927ZM17.25 14.0825C17.5261 14.0825 17.75 14.3064 17.75 14.5825V16.0825H19.25C19.5261 16.0825 19.75 16.3064 19.75 16.5825C19.75 16.8587 19.5261 17.0825 19.25 17.0825H17.75V18.5825C17.75 18.8587 17.5261 19.0825 17.25 19.0825C16.9739 19.0825 16.75 18.8587 16.75 18.5825V17.0825H15.25C14.9739 17.0825 14.75 16.8587 14.75 16.5825C14.75 16.3064 14.9739 16.0825 15.25 16.0825H16.75V14.5825C16.75 14.3064 16.9739 14.0825 17.25 14.0825Z" fill="#1F1F1F"/>
</svg>
