<svg width="24" height="24" viewBox="0 0 24 24" fill="none" xmlns="http://www.w3.org/2000/svg">
<circle cx="14.25" cy="5" r="2.25" fill="url(#paint0_linear_187_6949)" fill-opacity="0.7" stroke="#9294A9" stroke-width="1.5"/>
<circle cx="14.25" cy="19" r="2.25" fill="url(#paint1_linear_187_6949)" fill-opacity="0.7" stroke="#9294A9" stroke-width="1.5"/>
<circle cx="8.25" cy="12" r="2.25" fill="url(#paint2_linear_187_6949)" fill-opacity="0.7" stroke="#9294A9" stroke-width="1.5"/>
<path d="M2.75 5H9.25" stroke="#9294A9" stroke-width="1.5" stroke-linecap="round" stroke-linejoin="round"/>
<path d="M2.75 19H9.25" stroke="#9294A9" stroke-width="1.5" stroke-linecap="round" stroke-linejoin="round"/>
<path d="M13.25 12L21.25 12" stroke="#9294A9" stroke-width="1.5" stroke-linecap="round" stroke-linejoin="round"/>
<path d="M2.75 11.25C2.33579 11.25 2 11.5858 2 12C2 12.4142 2.33579 12.75 2.75 12.75V11.25ZM5.75 12.75H6.5V11.25H5.75V12.75ZM2.75 12.75H5.75V11.25H2.75V12.75Z" fill="#9294A9"/>
<path d="M17.25 4.25L16.5 4.25L16.5 5.75L17.25 5.75L17.25 4.25ZM20.25 5.75C20.6642 5.75 21 5.41421 21 5C21 4.58579 20.6642 4.25 20.25 4.25L20.25 5.75ZM17.25 5.75L20.25 5.75L20.25 4.25L17.25 4.25L17.25 5.75Z" fill="#9294A9"/>
<path d="M17.25 18.25L16.5 18.25L16.5 19.75L17.25 19.75L17.25 18.25ZM20.25 19.75C20.6642 19.75 21 19.4142 21 19C21 18.5858 20.6642 18.25 20.25 18.25L20.25 19.75ZM17.25 19.75L20.25 19.75L20.25 18.25L17.25 18.25L17.25 19.75Z" fill="#9294A9"/>
<defs>
<linearGradient id="paint0_linear_187_6949" x1="17" y1="5" x2="11.5" y2="5" gradientUnits="userSpaceOnUse">
<stop stop-color="#9294A9" stop-opacity="0"/>
<stop offset="0.359375" stop-color="#9294A9" stop-opacity="0.359375"/>
<stop offset="1" stop-color="#9294A9"/>
</linearGradient>
<linearGradient id="paint1_linear_187_6949" x1="17" y1="19" x2="11.5" y2="19" gradientUnits="userSpaceOnUse">
<stop stop-color="#9294A9" stop-opacity="0"/>
<stop offset="0.359375" stop-color="#9294A9" stop-opacity="0.359375"/>
<stop offset="1" stop-color="#9294A9"/>
</linearGradient>
<linearGradient id="paint2_linear_187_6949" x1="11" y1="12" x2="5.5" y2="12" gradientUnits="userSpaceOnUse">
<stop stop-color="#9294A9" stop-opacity="0"/>
<stop offset="0.359375" stop-color="#9294A9" stop-opacity="0.359375"/>
<stop offset="1" stop-color="#9294A9"/>
</linearGradient>
</defs>
</svg>
