<svg width="24" height="24" viewBox="0 0 24 24" fill="none" xmlns="http://www.w3.org/2000/svg">
<mask id="path-1-inside-1_187_6931" fill="white">
<path fill-rule="evenodd" clip-rule="evenodd" d="M4 2C2.89543 2 2 2.89543 2 4V9C2 10.1046 2.89543 11 4 11H9C10.1046 11 11 10.1046 11 9V4C11 2.89543 10.1046 2 9 2H4ZM4 13C2.89543 13 2 13.8954 2 15V20C2 21.1046 2.89543 22 4 22H9C10.1046 22 11 21.1046 11 20V15C11 13.8954 10.1046 13 9 13H4ZM13 4C13 2.89543 13.8954 2 15 2H20C21.1046 2 22 2.89543 22 4V9C22 10.1046 21.1046 11 20 11H15C13.8954 11 13 10.1046 13 9V4ZM15 13C13.8954 13 13 13.8954 13 15V20C13 21.1046 13.8954 22 15 22H20C21.1046 22 22 21.1046 22 20V15C22 13.8954 21.1046 13 20 13H15Z"/>
</mask>
<path fill-rule="evenodd" clip-rule="evenodd" d="M4 2C2.89543 2 2 2.89543 2 4V9C2 10.1046 2.89543 11 4 11H9C10.1046 11 11 10.1046 11 9V4C11 2.89543 10.1046 2 9 2H4ZM4 13C2.89543 13 2 13.8954 2 15V20C2 21.1046 2.89543 22 4 22H9C10.1046 22 11 21.1046 11 20V15C11 13.8954 10.1046 13 9 13H4ZM13 4C13 2.89543 13.8954 2 15 2H20C21.1046 2 22 2.89543 22 4V9C22 10.1046 21.1046 11 20 11H15C13.8954 11 13 10.1046 13 9V4ZM15 13C13.8954 13 13 13.8954 13 15V20C13 21.1046 13.8954 22 15 22H20C21.1046 22 22 21.1046 22 20V15C22 13.8954 21.1046 13 20 13H15Z" fill="url(#paint0_linear_187_6931)" fill-opacity="0.6"/>
<path d="M3.5 4C3.5 3.72386 3.72386 3.5 4 3.5V0.5C2.067 0.5 0.5 2.067 0.5 4H3.5ZM3.5 9V4H0.5V9H3.5ZM4 9.5C3.72386 9.5 3.5 9.27614 3.5 9H0.5C0.5 10.933 2.067 12.5 4 12.5V9.5ZM9 9.5H4V12.5H9V9.5ZM9.5 9C9.5 9.27614 9.27614 9.5 9 9.5V12.5C10.933 12.5 12.5 10.933 12.5 9H9.5ZM9.5 4V9H12.5V4H9.5ZM9 3.5C9.27614 3.5 9.5 3.72386 9.5 4H12.5C12.5 2.067 10.933 0.5 9 0.5V3.5ZM4 3.5H9V0.5H4V3.5ZM3.5 15C3.5 14.7239 3.72386 14.5 4 14.5V11.5C2.067 11.5 0.5 13.067 0.5 15H3.5ZM3.5 20V15H0.5V20H3.5ZM4 20.5C3.72386 20.5 3.5 20.2761 3.5 20H0.5C0.5 21.933 2.067 23.5 4 23.5V20.5ZM9 20.5H4V23.5H9V20.5ZM9.5 20C9.5 20.2761 9.27614 20.5 9 20.5V23.5C10.933 23.5 12.5 21.933 12.5 20H9.5ZM9.5 15V20H12.5V15H9.5ZM9 14.5C9.27614 14.5 9.5 14.7239 9.5 15H12.5C12.5 13.067 10.933 11.5 9 11.5V14.5ZM4 14.5H9V11.5H4V14.5ZM15 0.5C13.067 0.5 11.5 2.067 11.5 4H14.5C14.5 3.72386 14.7239 3.5 15 3.5V0.5ZM20 0.5H15V3.5H20V0.5ZM23.5 4C23.5 2.067 21.933 0.5 20 0.5V3.5C20.2761 3.5 20.5 3.72386 20.5 4H23.5ZM23.5 9V4H20.5V9H23.5ZM20 12.5C21.933 12.5 23.5 10.933 23.5 9H20.5C20.5 9.27614 20.2761 9.5 20 9.5V12.5ZM15 12.5H20V9.5H15V12.5ZM11.5 9C11.5 10.933 13.067 12.5 15 12.5V9.5C14.7239 9.5 14.5 9.27614 14.5 9H11.5ZM11.5 4V9H14.5V4H11.5ZM14.5 15C14.5 14.7239 14.7239 14.5 15 14.5V11.5C13.067 11.5 11.5 13.067 11.5 15H14.5ZM14.5 20V15H11.5V20H14.5ZM15 20.5C14.7239 20.5 14.5 20.2761 14.5 20H11.5C11.5 21.933 13.067 23.5 15 23.5V20.5ZM20 20.5H15V23.5H20V20.5ZM20.5 20C20.5 20.2761 20.2761 20.5 20 20.5V23.5C21.933 23.5 23.5 21.933 23.5 20H20.5ZM20.5 15V20H23.5V15H20.5ZM20 14.5C20.2761 14.5 20.5 14.7239 20.5 15H23.5C23.5 13.067 21.933 11.5 20 11.5V14.5ZM15 14.5H20V11.5H15V14.5Z" fill="#9294A9" mask="url(#path-1-inside-1_187_6931)"/>
<defs>
<linearGradient id="paint0_linear_187_6931" x1="12" y1="2" x2="12" y2="22" gradientUnits="userSpaceOnUse">
<stop stop-color="#9294A9" stop-opacity="0"/>
<stop offset="1" stop-color="#9294A9"/>
</linearGradient>
</defs>
</svg>
