<svg width="24" height="24" viewBox="0 0 24 24" fill="none" xmlns="http://www.w3.org/2000/svg">
<mask id="path-1-inside-1_187_7044" fill="white">
<path fill-rule="evenodd" clip-rule="evenodd" d="M9.36831 10.9473C11.1124 10.9473 12.5262 9.53347 12.5262 7.78939C12.5262 6.04532 11.1124 4.63147 9.36831 4.63147C7.62423 4.63147 6.21038 6.04532 6.21038 7.78939C6.21038 9.53347 7.62423 10.9473 9.36831 10.9473ZM16.7366 16.7613C16.7366 16.0184 16.4306 15.2939 15.8136 14.8801C14.1229 13.746 11.8577 13.0526 9.36831 13.0526C6.87874 13.0526 4.61345 13.7461 2.92266 14.8803C2.30575 15.2941 1.99982 16.0186 1.99982 16.7614C1.99982 18.2012 3.16704 19.3685 4.60687 19.3685H14.1294C15.5693 19.3685 16.7366 18.2012 16.7366 16.7613Z"/>
</mask>
<g filter="url(#filter0_i_187_7044)">
<path fill-rule="evenodd" clip-rule="evenodd" d="M9.36831 10.9473C11.1124 10.9473 12.5262 9.53347 12.5262 7.78939C12.5262 6.04532 11.1124 4.63147 9.36831 4.63147C7.62423 4.63147 6.21038 6.04532 6.21038 7.78939C6.21038 9.53347 7.62423 10.9473 9.36831 10.9473ZM16.7366 16.7613C16.7366 16.0184 16.4306 15.2939 15.8136 14.8801C14.1229 13.746 11.8577 13.0526 9.36831 13.0526C6.87874 13.0526 4.61345 13.7461 2.92266 14.8803C2.30575 15.2941 1.99982 16.0186 1.99982 16.7614C1.99982 18.2012 3.16704 19.3685 4.60687 19.3685H14.1294C15.5693 19.3685 16.7366 18.2012 16.7366 16.7613Z" fill="url(#paint0_linear_187_7044)"/>
</g>
<path d="M15.8136 14.8801L16.3706 14.0496L15.8136 14.8801ZM2.92266 14.8803L3.47972 15.7108H3.47972L2.92266 14.8803ZM11.5262 7.78939C11.5262 8.98118 10.5601 9.94732 9.36831 9.94732V11.9473C11.6647 11.9473 13.5262 10.0858 13.5262 7.78939H11.5262ZM9.36831 5.63147C10.5601 5.63147 11.5262 6.59761 11.5262 7.78939H13.5262C13.5262 5.49304 11.6647 3.63147 9.36831 3.63147V5.63147ZM7.21038 7.78939C7.21038 6.59761 8.17652 5.63147 9.36831 5.63147V3.63147C7.07195 3.63147 5.21038 5.49304 5.21038 7.78939H7.21038ZM9.36831 9.94732C8.17652 9.94732 7.21038 8.98118 7.21038 7.78939H5.21038C5.21038 10.0858 7.07195 11.9473 9.36831 11.9473V9.94732ZM15.2566 15.7106C15.5377 15.8991 15.7366 16.2738 15.7366 16.7613H17.7366C17.7366 15.763 17.3235 14.6887 16.3706 14.0496L15.2566 15.7106ZM9.36831 14.0526C11.6788 14.0526 13.7461 14.6974 15.2566 15.7106L16.3706 14.0496C14.4996 12.7947 12.0366 12.0526 9.36831 12.0526V14.0526ZM3.47972 15.7108C4.99027 14.6975 7.05762 14.0526 9.36831 14.0526V12.0526C6.69985 12.0526 4.23663 12.7948 2.36559 14.0498L3.47972 15.7108ZM2.99982 16.7614C2.99982 16.274 3.19864 15.8993 3.47972 15.7108L2.36559 14.0498C1.41286 14.6889 0.999817 15.7631 0.999817 16.7614H2.99982ZM4.60687 18.3685C3.71932 18.3685 2.99982 17.649 2.99982 16.7614H0.999817C0.999817 18.7535 2.61475 20.3685 4.60687 20.3685V18.3685ZM14.1294 18.3685H4.60687V20.3685H14.1294V18.3685ZM15.7366 16.7613C15.7366 17.6489 15.017 18.3685 14.1294 18.3685V20.3685C16.1216 20.3685 17.7366 18.7535 17.7366 16.7613H15.7366Z" fill="#434559" mask="url(#path-1-inside-1_187_7044)"/>
<mask id="path-3-inside-2_187_7044" fill="white">
<path fill-rule="evenodd" clip-rule="evenodd" d="M18.9929 10.0451C18.9929 11.2908 17.983 12.3007 16.7373 12.3007C15.4915 12.3007 14.4816 11.2908 14.4816 10.0451C14.4816 8.79929 15.4915 7.78939 16.7373 7.78939C17.983 7.78939 18.9929 8.79929 18.9929 10.0451ZM21.3413 15.1103C21.7819 15.4059 22.0004 15.9233 22.0004 16.4538C22.0004 17.4822 21.1667 18.3158 20.1383 18.3158H17.3996C17.6481 17.8808 17.7901 17.377 17.7901 16.8402C17.7901 15.9912 17.4405 15.1633 16.7355 14.6904C16.3073 14.4032 15.8469 14.1407 15.3585 13.906C15.8036 13.8395 16.2646 13.8046 16.7369 13.8046C18.5154 13.8046 20.1336 14.3001 21.3413 15.1103Z"/>
</mask>
<g filter="url(#filter1_i_187_7044)">
<path fill-rule="evenodd" clip-rule="evenodd" d="M18.9929 10.0451C18.9929 11.2908 17.983 12.3007 16.7373 12.3007C15.4915 12.3007 14.4816 11.2908 14.4816 10.0451C14.4816 8.79929 15.4915 7.78939 16.7373 7.78939C17.983 7.78939 18.9929 8.79929 18.9929 10.0451ZM21.3413 15.1103C21.7819 15.4059 22.0004 15.9233 22.0004 16.4538C22.0004 17.4822 21.1667 18.3158 20.1383 18.3158H17.3996C17.6481 17.8808 17.7901 17.377 17.7901 16.8402C17.7901 15.9912 17.4405 15.1633 16.7355 14.6904C16.3073 14.4032 15.8469 14.1407 15.3585 13.906C15.8036 13.8395 16.2646 13.8046 16.7369 13.8046C18.5154 13.8046 20.1336 14.3001 21.3413 15.1103Z" fill="url(#paint1_linear_187_7044)"/>
</g>
<path d="M21.3412 15.1104L21.8983 14.2799L21.8983 14.2799L21.3412 15.1104ZM17.3994 18.3158L16.5311 17.8198C16.3543 18.1294 16.3556 18.5096 16.5345 18.8178C16.7135 19.1261 17.043 19.3158 17.3994 19.3158V18.3158ZM16.7353 14.6904L17.2924 13.86H17.2924L16.7353 14.6904ZM15.3584 13.9061L15.2106 12.917C14.7763 12.9819 14.4351 13.3226 14.3696 13.7568C14.304 14.191 14.5295 14.6172 14.9253 14.8074L15.3584 13.9061ZM16.7371 13.3007C18.5352 13.3007 19.9928 11.8431 19.9928 10.0451H17.9928C17.9928 10.7386 17.4306 11.3007 16.7371 11.3007V13.3007ZM13.4814 10.0451C13.4814 11.8431 14.9391 13.3007 16.7371 13.3007V11.3007C16.0436 11.3007 15.4814 10.7386 15.4814 10.0451H13.4814ZM16.7371 6.78943C14.9391 6.78943 13.4814 8.24704 13.4814 10.0451H15.4814C15.4814 9.35161 16.0436 8.78943 16.7371 8.78943V6.78943ZM19.9928 10.0451C19.9928 8.24704 18.5352 6.78943 16.7371 6.78943V8.78943C17.4306 8.78943 17.9928 9.35161 17.9928 10.0451H19.9928ZM23.0002 16.4538C23.0002 15.6679 22.6746 14.8008 21.8983 14.2799L20.784 15.9408C20.8888 16.0111 21.0002 16.1787 21.0002 16.4538H23.0002ZM20.1382 19.3158C21.7188 19.3158 23.0002 18.0345 23.0002 16.4538H21.0002C21.0002 16.9299 20.6143 17.3158 20.1382 17.3158V19.3158ZM17.3994 19.3158H20.1382V17.3158H17.3994V19.3158ZM16.7899 16.8402C16.7899 17.1986 16.6956 17.5319 16.5311 17.8198L18.2677 18.8118C18.6002 18.2297 18.7899 17.5556 18.7899 16.8402H16.7899ZM16.1782 15.5209C16.5474 15.7686 16.7899 16.2467 16.7899 16.8402H18.7899C18.7899 15.7359 18.3332 14.5582 17.2924 13.86L16.1782 15.5209ZM14.9253 14.8074C15.3724 15.0223 15.7913 15.2613 16.1782 15.5209L17.2924 13.86C16.823 13.5451 16.3209 13.2591 15.7915 13.0047L14.9253 14.8074ZM16.7367 12.8046C16.2152 12.8046 15.7047 12.8432 15.2106 12.917L15.5062 14.8951C15.9021 14.8359 16.3137 14.8046 16.7367 14.8046V12.8046ZM21.8983 14.2799C20.5103 13.3487 18.6941 12.8046 16.7367 12.8046V14.8046C18.3363 14.8046 19.7566 15.2515 20.784 15.9408L21.8983 14.2799Z" fill="#434559" mask="url(#path-3-inside-2_187_7044)"/>
<defs>
<filter id="filter0_i_187_7044" x="1.99982" y="4.13147" width="14.7368" height="15.2369" filterUnits="userSpaceOnUse" color-interpolation-filters="sRGB">
<feFlood flood-opacity="0" result="BackgroundImageFix"/>
<feBlend mode="normal" in="SourceGraphic" in2="BackgroundImageFix" result="shape"/>
<feColorMatrix in="SourceAlpha" type="matrix" values="0 0 0 0 0 0 0 0 0 0 0 0 0 0 0 0 0 0 127 0" result="hardAlpha"/>
<feOffset dy="-0.5"/>
<feGaussianBlur stdDeviation="0.75"/>
<feComposite in2="hardAlpha" operator="arithmetic" k2="-1" k3="1"/>
<feColorMatrix type="matrix" values="0 0 0 0 0 0 0 0 0 0 0 0 0 0 0 0 0 0 1 0"/>
<feBlend mode="normal" in2="shape" result="effect1_innerShadow_187_7044"/>
</filter>
<filter id="filter1_i_187_7044" x="14.4814" y="7.28943" width="7.51874" height="11.0264" filterUnits="userSpaceOnUse" color-interpolation-filters="sRGB">
<feFlood flood-opacity="0" result="BackgroundImageFix"/>
<feBlend mode="normal" in="SourceGraphic" in2="BackgroundImageFix" result="shape"/>
<feColorMatrix in="SourceAlpha" type="matrix" values="0 0 0 0 0 0 0 0 0 0 0 0 0 0 0 0 0 0 127 0" result="hardAlpha"/>
<feOffset dy="-0.5"/>
<feGaussianBlur stdDeviation="0.75"/>
<feComposite in2="hardAlpha" operator="arithmetic" k2="-1" k3="1"/>
<feColorMatrix type="matrix" values="0 0 0 0 0 0 0 0 0 0 0 0 0 0 0 0 0 0 1 0"/>
<feBlend mode="normal" in2="shape" result="effect1_innerShadow_187_7044"/>
</filter>
<linearGradient id="paint0_linear_187_7044" x1="10.4736" y1="4.63147" x2="10.4736" y2="19.3684" gradientUnits="userSpaceOnUse">
<stop stop-color="#A790F9"/>
<stop offset="1" stop-color="#8160F7"/>
</linearGradient>
<linearGradient id="paint1_linear_187_7044" x1="18.8046" y1="7.78943" x2="18.8046" y2="18.3158" gradientUnits="userSpaceOnUse">
<stop stop-color="#A790F9"/>
<stop offset="1" stop-color="#8160F7"/>
</linearGradient>
</defs>
</svg>
