<svg width="16" height="16" viewBox="0 0 16 16" fill="none" xmlns="http://www.w3.org/2000/svg">
<path d="M13.6004 2.05L8.08789 1H7.91289L2.40039 2.05C2.13789 2.05 1.96289 2.3125 1.96289 2.575V9.05C1.96289 10.1 2.31289 11.0625 2.92539 11.85C3.45039 12.55 4.06289 13.1625 4.93789 13.6875C6.33789 14.5625 7.73789 15 7.82539 15H8.08789C8.17539 15 9.57539 14.5625 10.9754 13.6875C11.8504 13.1625 12.4629 12.55 12.9879 11.85C13.6004 10.975 13.9504 10.0125 13.9504 9.05V2.575C14.0379 2.3125 13.8629 2.1375 13.6004 2.05V2.05ZM12.9879 9.05C12.9879 10.5375 12.1129 11.7625 10.5379 12.8125C9.83789 13.25 9.05039 13.6 8.08789 13.95H8.00039C4.67539 12.8125 3.01289 11.15 3.01289 9.05V3.1C3.01289 3.0125 3.01289 3.0125 3.10039 3.0125L8.00039 2.1375H8.08789L12.9004 3.0125C12.9879 3.0125 12.9879 3.1 12.9879 3.1V9.05V9.05Z" fill="white"/>
<path d="M10.6247 6.07503L7.0372 8.87503L5.3747 7.65003C5.1122 7.47503 4.8497 7.47503 4.6747 7.73753C4.4997 7.91253 4.4997 8.26253 4.7622 8.43753L6.6872 9.92503C6.7747 10.0125 6.8622 10.0125 6.9497 10.0125C7.1247 10.0125 7.2122 10.0125 7.2997 9.92503L11.2372 6.86253C11.4997 6.68753 11.4997 6.33753 11.3247 6.16253C11.2372 5.90003 10.8872 5.90003 10.6247 6.07503V6.07503Z" fill="white"/>
</svg>
