<svg width="16" height="16" viewBox="0 0 16 16" fill="none" xmlns="http://www.w3.org/2000/svg">
<g clip-path="url(#clip0_611_7105)">
<path d="M2.11983 12.7802C2.04681 12.7072 1.94777 12.6662 1.8445 12.6662C1.74123 12.6662 1.64219 12.7072 1.56917 12.7802C1.49615 12.8533 1.45512 12.9523 1.45512 13.0556C1.45512 13.1588 1.49615 13.2579 1.56917 13.3309L2.66895 14.4307C2.73329 14.4951 2.8182 14.5349 2.90888 14.5431C2.99956 14.5514 3.09026 14.5275 3.16517 14.4758L3.21961 14.4307L4.31939 13.3309C4.35555 13.2948 4.38424 13.2519 4.40383 13.2047C4.42341 13.1575 4.43351 13.1069 4.43355 13.0558C4.43359 13.0047 4.42356 12.9541 4.40404 12.9069C4.38452 12.8597 4.35589 12.8168 4.31978 12.7806C4.28367 12.7445 4.2408 12.7158 4.1936 12.6962C4.14641 12.6766 4.09582 12.6665 4.04472 12.6665C3.99362 12.6664 3.94302 12.6765 3.8958 12.696C3.84857 12.7155 3.80566 12.7441 3.7695 12.7802L3.33317 13.2166V2.78345L3.76872 3.21901C3.83312 3.28363 3.91818 3.32355 4.00903 3.3318C4.09989 3.34004 4.19075 3.31609 4.26572 3.26412L4.31939 3.21979C4.38381 3.15544 4.42361 3.07053 4.43186 2.97985C4.4401 2.88917 4.41626 2.79847 4.3645 2.72356L4.31939 2.66912L3.21961 1.56934L3.16517 1.52423C3.10023 1.47941 3.02319 1.45541 2.94428 1.45541C2.86537 1.45541 2.78833 1.47941 2.72339 1.52423L2.66895 1.56934L1.56917 2.66912C1.51671 2.7215 1.48032 2.78779 1.46429 2.86017C1.44825 2.93255 1.45324 3.008 1.47865 3.07764C1.50407 3.14728 1.54887 3.2082 1.60776 3.25323C1.66665 3.29826 1.73719 3.32551 1.81106 3.33179H1.87717C1.94475 3.3261 2.00966 3.30276 2.06539 3.26412L2.11983 3.21979L2.55539 2.78423V13.2158L2.11983 12.7802V12.7802ZM11.1109 4.8889C11.3152 4.88892 11.5175 4.84869 11.7063 4.77053C11.895 4.69236 12.0665 4.57779 12.211 4.43334C12.3554 4.28889 12.47 4.1174 12.5482 3.92866C12.6264 3.73992 12.6666 3.53763 12.6666 3.33334C12.6666 3.12905 12.6264 2.92676 12.5482 2.73802C12.47 2.54928 12.3554 2.37779 12.211 2.23335C12.0665 2.0889 11.895 1.97432 11.7063 1.89615C11.5175 1.81799 11.3152 1.77777 11.1109 1.77779H6.44428C6.23999 1.77777 6.03769 1.81799 5.84895 1.89615C5.6602 1.97432 5.4887 2.0889 5.34424 2.23335C5.19978 2.37779 5.08518 2.54928 5.007 2.73802C4.92882 2.92676 4.88858 3.12905 4.88858 3.33334C4.88858 3.53763 4.92882 3.73992 5.007 3.92866C5.08518 4.1174 5.19978 4.28889 5.34424 4.43334C5.4887 4.57779 5.6602 4.69236 5.84895 4.77053C6.03769 4.84869 6.23999 4.88892 6.44428 4.8889H11.1109ZM11.1109 4.11112H6.44428C6.24604 4.1109 6.05537 4.03499 5.91121 3.8989C5.76706 3.76282 5.68032 3.57682 5.6687 3.37892C5.65708 3.18102 5.72147 2.98616 5.84871 2.83414C5.97594 2.68212 6.15643 2.58442 6.35328 2.56101L6.44428 2.55556H11.1109C11.3172 2.55556 11.5151 2.63751 11.6609 2.78337C11.8068 2.92923 11.8887 3.12706 11.8887 3.33334C11.8887 3.53962 11.8068 3.73745 11.6609 3.88331C11.5151 4.02917 11.3172 4.11112 11.1109 4.11112V4.11112ZM12.6665 9.55556C13.0791 9.55556 13.4747 9.39168 13.7664 9.09995C14.0582 8.80823 14.2221 8.41257 14.2221 8.00001C14.2221 7.58745 14.0582 7.19179 13.7664 6.90006C13.4747 6.60834 13.0791 6.44445 12.6665 6.44445H6.44428C6.03172 6.44445 5.63606 6.60834 5.34434 6.90006C5.05261 7.19179 4.88872 7.58745 4.88872 8.00001C4.88872 8.41257 5.05261 8.80823 5.34434 9.09995C5.63606 9.39168 6.03172 9.55556 6.44428 9.55556H12.6665ZM12.6665 8.77779H6.44428C6.24604 8.77757 6.05537 8.70166 5.91121 8.56557C5.76706 8.42948 5.68032 8.24349 5.6687 8.04559C5.65708 7.84769 5.72147 7.65282 5.84871 7.50081C5.97594 7.34879 6.15643 7.25109 6.35328 7.22767L6.44428 7.22223H12.6665C12.8728 7.22223 13.0706 7.30417 13.2165 7.45004C13.3623 7.5959 13.4443 7.79373 13.4443 8.00001C13.4443 8.20629 13.3623 8.40412 13.2165 8.54998C13.0706 8.69584 12.8728 8.77779 12.6665 8.77779V8.77779ZM13.4443 14.2222C13.6486 14.2222 13.8509 14.182 14.0396 14.1039C14.2284 14.0257 14.3999 13.9111 14.5443 13.7667C14.6888 13.6222 14.8034 13.4507 14.8816 13.262C14.9597 13.0733 15 12.871 15 12.6667C15 12.4624 14.9597 12.2601 14.8816 12.0714C14.8034 11.8826 14.6888 11.7111 14.5443 11.5667C14.3999 11.4222 14.2284 11.3077 14.0396 11.2295C13.8509 11.1513 13.6486 11.1111 13.4443 11.1111H6.44428C6.23999 11.1111 6.03769 11.1513 5.84895 11.2295C5.6602 11.3077 5.4887 11.4222 5.34424 11.5667C5.19978 11.7111 5.08518 11.8826 5.007 12.0714C4.92882 12.2601 4.88858 12.4624 4.88858 12.6667C4.88858 12.871 4.92882 13.0733 5.007 13.262C5.08518 13.4507 5.19978 13.6222 5.34424 13.7667C5.4887 13.9111 5.6602 14.0257 5.84895 14.1039C6.03769 14.182 6.23999 14.2222 6.44428 14.2222H13.4443V14.2222ZM13.4443 13.4445H6.44428C6.24604 13.4442 6.05537 13.3683 5.91121 13.2322C5.76706 13.0962 5.68032 12.9102 5.6687 12.7123C5.65708 12.5144 5.72147 12.3195 5.84871 12.1675C5.97594 12.0155 6.15643 11.9178 6.35328 11.8943L6.44428 11.8889H13.4443C13.6506 11.8889 13.8484 11.9708 13.9943 12.1167C14.1401 12.2626 14.2221 12.4604 14.2221 12.6667C14.2221 12.873 14.1401 13.0708 13.9943 13.2166C13.8484 13.3625 13.6506 13.4445 13.4443 13.4445V13.4445Z" fill="white" stroke="white" stroke-width="0.3"/>
</g>
<defs>
<clipPath id="clip0_611_7105">
<rect width="14" height="14" fill="white" transform="matrix(1 0 0 -1 1 15)"/>
</clipPath>
</defs>
</svg>
