<svg width="16" height="16" viewBox="0 0 16 16" fill="none" xmlns="http://www.w3.org/2000/svg">
<g clip-path="url(#clip0_611_7105)">
<path d="M12.6667 1.33331H3.33333C3.15824 1.33331 2.98486 1.3678 2.82309 1.43481C2.66132 1.50181 2.51434 1.60003 2.39052 1.72384C2.26671 1.84765 2.1685 1.99463 2.10149 2.1564C2.03449 2.31817 2 2.49155 2 2.66665V14C2.0003 14.1244 2.03539 14.2462 2.1013 14.3517C2.16722 14.4571 2.26133 14.5421 2.37299 14.5969C2.48466 14.6517 2.60942 14.6741 2.73319 14.6617C2.85695 14.6493 2.97477 14.6025 3.07333 14.5266L7.18 11.3333C7.41428 11.1506 7.70289 11.0513 8 11.0513C8.29711 11.0513 8.58572 11.1506 8.82 11.3333L12.9267 14.5266C13.0252 14.6025 13.1431 14.6493 13.2668 14.6617C13.3906 14.6741 13.5153 14.6517 13.627 14.5969C13.7387 14.5421 13.8328 14.4571 13.8987 14.3517C13.9646 14.2462 13.9997 14.1244 14 14V2.66665C14 2.49155 13.9655 2.31817 13.8985 2.1564C13.8315 1.99463 13.7333 1.84765 13.6095 1.72384C13.4857 1.60003 13.3387 1.50181 13.1769 1.43481C13.0151 1.3678 12.8418 1.33331 12.6667 1.33331V1.33331ZM12.8 12.9066L9.55333 10.3866C9.10946 10.0407 8.56279 9.85277 8 9.85277C7.43721 9.85277 6.89054 10.0407 6.44667 10.3866L3.2 12.9066V2.66665C3.2 2.64914 3.20345 2.6318 3.21015 2.61562C3.21685 2.59945 3.22667 2.58475 3.23905 2.57237C3.25143 2.55998 3.26613 2.55016 3.28231 2.54346C3.29849 2.53676 3.31582 2.53331 3.33333 2.53331H12.6667C12.6842 2.53331 12.7015 2.53676 12.7177 2.54346C12.7339 2.55016 12.7486 2.55998 12.7609 2.57237C12.7733 2.58475 12.7831 2.59945 12.7899 2.61562C12.7966 2.6318 12.8 2.64914 12.8 2.66665V12.9066Z" fill="white"/>
<path d="M10.0004 5.40002H8.60039V4.00002C8.60039 3.84089 8.53718 3.68828 8.42465 3.57576C8.31213 3.46324 8.15952 3.40002 8.00039 3.40002C7.84126 3.40002 7.68865 3.46324 7.57613 3.57576C7.4636 3.68828 7.40039 3.84089 7.40039 4.00002V5.40002H6.00039C5.84126 5.40002 5.68865 5.46324 5.57613 5.57576C5.4636 5.68828 5.40039 5.84089 5.40039 6.00002C5.40039 6.15915 5.4636 6.31177 5.57613 6.42429C5.68865 6.53681 5.84126 6.60002 6.00039 6.60002H7.40039V8.00002C7.40039 8.15915 7.4636 8.31177 7.57613 8.42429C7.68865 8.53681 7.84126 8.60002 8.00039 8.60002C8.15952 8.60002 8.31213 8.53681 8.42465 8.42429C8.53718 8.31177 8.60039 8.15915 8.60039 8.00002V6.60002H10.0004C10.1595 6.60002 10.3121 6.53681 10.4247 6.42429C10.5372 6.31177 10.6004 6.15915 10.6004 6.00002C10.6004 5.84089 10.5372 5.68828 10.4247 5.57576C10.3121 5.46324 10.1595 5.40002 10.0004 5.40002V5.40002Z" fill="white"/>
</g>
<defs>
<clipPath id="clip0_611_7105">
<rect width="16" height="16" fill="white"/>
</clipPath>
</defs>
</svg>
