<svg width="16" height="16" viewBox="0 0 16 16" fill="none" xmlns="http://www.w3.org/2000/svg">
<g clip-path="url(#clip0_611_7105)">
<path d="M10.357 6.03333L11.2997 6.976L9.28768 8.988C9.36367 9.27151 9.34399 9.57218 9.23168 9.84337C9.11937 10.1146 8.92072 10.3411 8.66652 10.4879C8.41233 10.6346 8.11681 10.6934 7.8258 10.6551C7.53479 10.6168 7.26455 10.4836 7.057 10.276C6.84945 10.0685 6.71618 9.79822 6.67788 9.50721C6.63957 9.2162 6.69836 8.92068 6.84514 8.66649C6.99191 8.4123 7.21846 8.21364 7.48964 8.10133C7.76083 7.98902 8.0615 7.96934 8.34501 8.04533L10.357 6.03333V6.03333ZM1.33301 8.66667C1.33301 4.98467 4.31768 2 7.99968 2C11.6817 2 14.6663 4.98467 14.6663 8.66667C14.6673 9.65521 14.448 10.6316 14.0243 11.5247C13.6006 12.4179 12.9832 13.2054 12.217 13.83L11.1103 12.9993C12.0274 12.341 12.7119 11.4086 13.0653 10.3365C13.4187 9.26439 13.4228 8.10777 13.077 7.03317C12.7312 5.95856 12.0533 5.02139 11.141 4.35656C10.2286 3.69173 9.12889 3.33353 8.00001 3.33353C6.87114 3.33353 5.77138 3.69173 4.85904 4.35656C3.94671 5.02139 3.26885 5.95856 2.92306 7.03317C2.57726 8.10777 2.58136 9.26439 2.93477 10.3365C3.28817 11.4086 3.97265 12.341 4.88968 12.9993L3.78234 13.83C3.01614 13.2054 2.39875 12.4179 1.97507 11.5247C1.55138 10.6316 1.33205 9.65521 1.33301 8.66667V8.66667ZM5.99968 12H9.99968V13.3333H5.99968V12Z" fill="white"/>
</g>
<defs>
<clipPath id="clip0_611_7105">
<rect width="16" height="16" fill="white"/>
</clipPath>
</defs>
</svg>
