<svg width="16" height="16" viewBox="0 0 16 16" fill="none" xmlns="http://www.w3.org/2000/svg">
<g clip-path="url(#clip0_611_7105)">
<path d="M13.75 9.71875C14.0261 9.71875 14.25 9.94261 14.25 10.2188V13.75C14.25 14.0261 14.0261 14.25 13.75 14.25H9.09375C8.81761 14.25 8.59375 14.0261 8.59375 13.75V10.2188C8.59375 9.94261 8.81761 9.71875 9.09375 9.71875H13.75ZM6.90625 7.4375C7.18239 7.4375 7.40625 7.66136 7.40625 7.9375V13.75C7.40625 14.0261 7.18239 14.25 6.90625 14.25H2.25C1.97386 14.25 1.75 14.0261 1.75 13.75V7.9375C1.75 7.66136 1.97386 7.4375 2.25 7.4375H6.90625ZM13.25 10.7188H9.59375V13.25H13.25V10.7188ZM6.40625 8.4375H2.75V13.25H6.40625V8.4375ZM13.75 1.75C14.0261 1.75 14.25 1.97386 14.25 2.25V8.0625C14.25 8.33864 14.0261 8.5625 13.75 8.5625H9.09375C8.81761 8.5625 8.59375 8.33864 8.59375 8.0625V2.25C8.59375 1.97386 8.81761 1.75 9.09375 1.75H13.75ZM13.25 2.75H9.59375V7.5625H13.25V2.75ZM6.90625 1.75C7.18239 1.75 7.40625 1.97386 7.40625 2.25V5.78125C7.40625 6.05739 7.18239 6.28125 6.90625 6.28125H2.25C1.97386 6.28125 1.75 6.05739 1.75 5.78125V2.25C1.75 1.97386 1.97386 1.75 2.25 1.75H6.90625ZM6.40625 2.75H2.75V5.28125H6.40625V2.75Z" fill="white"/>
</g>
<defs>
<clipPath id="clip0_611_7105">
<rect width="16" height="16" fill="white"/>
</clipPath>
</defs>
</svg>
