<svg width="16" height="16" viewBox="0 0 16 16" fill="none" xmlns="http://www.w3.org/2000/svg">
<g clip-path="url(#clip0_611_7105)">
<path d="M7.99968 13.25C8.68911 13.25 9.3718 13.1142 10.0088 12.8503C10.6457 12.5865 11.2245 12.1998 11.712 11.7123C12.1995 11.2248 12.5862 10.646 12.85 10.0091C13.1139 9.37211 13.2497 8.68942 13.2497 7.99998C13.2497 7.31054 13.1139 6.62785 12.85 5.99089C12.5862 5.35393 12.1995 4.77518 11.712 4.28767C11.2245 3.80016 10.6457 3.41345 10.0088 3.14961C9.3718 2.88577 8.68911 2.74998 7.99968 2.74998C6.60729 2.74998 5.27193 3.3031 4.28736 4.28767C3.3028 5.27224 2.74967 6.60759 2.74967 7.99998C2.74967 9.39237 3.3028 10.7277 4.28736 11.7123C5.27193 12.6969 6.60729 13.25 7.99968 13.25V13.25ZM7.99968 14.4166C4.45592 14.4166 1.58301 11.5437 1.58301 7.99998C1.58301 4.45623 4.45592 1.58331 7.99968 1.58331C11.5434 1.58331 14.4163 4.45623 14.4163 7.99998C14.4163 11.5437 11.5434 14.4166 7.99968 14.4166ZM6.33134 6.06215L6.03851 6.0884L5.95159 5.03198L6.21409 4.9859C6.26659 4.97715 6.57926 4.92056 6.66676 4.90598C7.07509 4.83773 7.43501 4.81031 8.06092 4.81031C9.31451 4.81031 10.0023 5.33006 10.0023 6.36781C10.0023 6.95406 9.75842 7.30523 9.16226 7.82615C9.10101 7.8804 9.10101 7.8804 9.03976 7.9329C8.49142 8.41123 8.29542 8.69473 8.27909 9.17656L8.26917 9.45831H7.10426L7.09959 9.17131C7.08793 8.42056 7.37551 7.93056 7.98568 7.36765C8.00609 7.3484 8.27151 7.10923 8.33976 7.0439C8.58126 6.81231 8.67926 6.65481 8.68392 6.48156C8.69501 6.11931 8.51359 5.98165 7.91393 5.98165C7.43792 5.98165 7.14742 5.99215 6.82601 6.01781C6.71867 6.02656 6.19251 6.0744 6.33134 6.06215V6.06215ZM7.12467 10.3333C7.12467 10.0154 7.40467 9.89465 7.71851 9.89465C8.03234 9.89465 8.31176 10.0154 8.31176 10.3333V10.9166C8.31176 11.2346 8.03176 11.3553 7.71793 11.3553C7.40409 11.3553 7.12467 11.2346 7.12467 10.9166V10.3333V10.3333Z" fill="white"/>
</g>
<defs>
<clipPath id="clip0_611_7105">
<rect width="14" height="14" fill="white" transform="translate(1 1)"/>
</clipPath>
</defs>
</svg>
