<svg width="16" height="16" viewBox="0 0 16 16" fill="none" xmlns="http://www.w3.org/2000/svg">
<g clip-path="url(#clip0_611_7105)">
<path d="M14.7889 7.89062L8.75138 1.85625L8.3467 1.45156C8.15451 1.26094 7.84513 1.26094 7.65295 1.45156L1.21076 7.89062C1.01857 8.08281 0.915447 8.3375 0.91701 8.60938C0.92326 9.15938 1.38107 9.59844 1.93107 9.59844H2.59513V14.6875H13.4045V9.59844H14.0826C14.3498 9.59844 14.6014 9.49375 14.7904 9.30469C14.9795 9.11562 15.0826 8.86406 15.0826 8.59688C15.0826 8.33125 14.9779 8.07969 14.7889 7.89062V7.89062ZM8.87482 13.5625H7.12482V10.375H8.87482V13.5625ZM12.2795 8.47344V13.5625H9.87482V10C9.87482 9.65469 9.59514 9.375 9.24982 9.375H6.74982C6.40451 9.375 6.12482 9.65469 6.12482 10V13.5625H3.72013V8.47344H2.22013L8.00138 2.69688L8.36232 3.05781L13.7811 8.47344H12.2795Z" fill="white"/>
</g>
<defs>
<clipPath id="clip0_611_7105">
<rect width="16" height="16" fill="white"/>
</clipPath>
</defs>
</svg>
