<svg width="16" height="16" viewBox="0 0 16 16" fill="none" xmlns="http://www.w3.org/2000/svg">
<g clip-path="url(#clip0_611_7105)">
<path d="M2.22478 14.4166C2.14008 14.4182 2.05593 14.4027 1.97737 14.371C1.8988 14.3393 1.82743 14.2921 1.76753 14.2322C1.70763 14.1723 1.66042 14.101 1.62874 14.0224C1.59705 13.9438 1.58153 13.8597 1.58312 13.775V11.9357C1.58312 9.79665 2.7597 8.62006 4.8982 8.62006H8.64145C10.7805 8.62006 11.9565 9.79665 11.9565 11.9357V13.775C11.9565 14.1384 11.6789 14.4166 11.3149 14.4166C11.2302 14.4182 11.146 14.4027 11.0675 14.371C10.9889 14.3393 10.9175 14.2921 10.8576 14.2322C10.7977 14.1723 10.7505 14.101 10.7188 14.0224C10.6871 13.9438 10.6716 13.8597 10.6732 13.775V11.9357C10.6732 10.5025 10.0531 9.9034 8.64145 9.9034H4.8982C3.46553 9.9034 2.86645 10.5241 2.86645 11.9357V13.775C2.86645 14.1174 2.5882 14.4166 2.22478 14.4166V14.4166ZM6.75903 8.08573C6.332 8.08596 5.90912 8.00201 5.51456 7.83868C5.11999 7.67535 4.7615 7.43585 4.45957 7.13387C4.15764 6.83188 3.9182 6.47334 3.75494 6.07875C3.59169 5.68416 3.50781 5.26126 3.50812 4.83423C3.50789 4.40725 3.59182 3.98441 3.75511 3.58989C3.9184 3.19536 4.15786 2.83689 4.45978 2.53497C4.7617 2.23305 5.12017 1.9936 5.51469 1.83031C5.90921 1.66701 6.33205 1.58308 6.75903 1.58331C7.18606 1.58301 7.60897 1.66688 8.00356 1.83014C8.39815 1.9934 8.75669 2.23284 9.05867 2.53477C9.36065 2.83669 9.60016 3.19519 9.76349 3.58975C9.92682 3.98431 10.0108 4.4072 10.0105 4.83423C10.0108 5.26131 9.92695 5.68426 9.76365 6.07889C9.60036 6.47352 9.36087 6.83208 9.05888 7.13407C8.75689 7.43606 8.39832 7.67556 8.00369 7.83885C7.60906 8.00214 7.18611 8.08604 6.75903 8.08573V8.08573ZM6.75903 2.86665C6.50045 2.86595 6.24428 2.91637 6.00525 3.01501C5.76622 3.11364 5.54904 3.25855 5.3662 3.44139C5.18335 3.62424 5.03845 3.84142 4.93981 4.08045C4.84118 4.31948 4.79076 4.57565 4.79145 4.83423C4.79068 5.09286 4.84104 5.34909 4.93965 5.58819C5.03825 5.82729 5.18314 6.04454 5.36599 6.22744C5.54884 6.41035 5.76605 6.55531 6.00512 6.65398C6.24419 6.75265 6.5004 6.80309 6.75903 6.8024C7.01771 6.80317 7.27399 6.75278 7.51313 6.65415C7.75227 6.55551 7.96954 6.41057 8.15246 6.22765C8.33537 6.04474 8.48031 5.82746 8.57895 5.58833C8.67759 5.34919 8.72797 5.09291 8.7272 4.83423C8.72789 4.5756 8.67746 4.31938 8.57878 4.08031C8.48011 3.84125 8.33516 3.62404 8.15225 3.44119C7.96934 3.25833 7.75209 3.11344 7.51299 3.01484C7.2739 2.91624 7.01766 2.86588 6.75903 2.86665ZM13.7748 14.4166C13.6901 14.4182 13.6059 14.4027 13.5274 14.371C13.4488 14.3393 13.3774 14.2921 13.3175 14.2322C13.2576 14.1723 13.2104 14.101 13.1787 14.0224C13.147 13.9438 13.1315 13.8597 13.1331 13.775V11.9357C13.1331 10.6734 12.6414 10.2884 12.2564 10.1175C11.9355 9.96756 11.8072 9.58256 11.9565 9.26173C12.1065 8.9409 12.4915 8.81256 12.8123 8.96248C13.5397 9.3049 14.4165 10.1175 14.4165 11.9357V13.775C14.4165 14.1174 14.1172 14.4166 13.7748 14.4166V14.4166Z" fill="white"/>
<path d="M10.1817 7.89327C9.92503 7.89327 9.68995 7.74336 9.58261 7.48669C9.45428 7.16586 9.6042 6.78086 9.94661 6.65252C10.3125 6.5097 10.6266 6.25967 10.8479 5.93522C11.0692 5.61076 11.1873 5.22701 11.1868 4.83427C11.1872 4.44163 11.0691 4.05801 10.8478 3.73367C10.6265 3.40933 10.3124 3.1594 9.94661 3.01661C9.62578 2.88827 9.45428 2.50327 9.58261 2.18244C9.71095 1.86161 10.0959 1.69011 10.4168 1.81844C11.6575 2.31077 12.4491 3.48677 12.4491 4.83427C12.4491 6.18177 11.6575 7.33677 10.4168 7.85011C10.3316 7.87169 10.2674 7.89327 10.1817 7.89327Z" fill="white"/>
</g>
<defs>
<clipPath id="clip0_611_7105">
<rect width="14" height="14" fill="white" transform="translate(1 1)"/>
</clipPath>
</defs>
</svg>
