<svg width="1440" height="842" viewBox="0 0 1440 842" fill="none" xmlns="http://www.w3.org/2000/svg">
<g clip-path="url(#clip0_24_1819)">
<rect x="104.452" y="149" width="35.8142" height="23.9272" rx="11.9636" transform="rotate(13.1715 104.452 149)" fill="#4594F7"/>
<rect x="155.784" y="490" width="116.31" height="42.1845" rx="21.0922" transform="rotate(23.4453 155.784 490)" fill="#EA8F95"/>
<rect x="1269.63" y="641" width="65.0345" height="14.0006" rx="7.00032" transform="rotate(76.7302 1269.63 641)" fill="#89DFE2"/>
<rect x="1194.26" y="-10.3468" width="132.266" height="116.747" rx="45" transform="rotate(119.03 1194.26 -10.3468)" fill="#89DFE2"/>
<rect x="0.265991" y="746" width="135.345" height="42.1845" rx="21.0922" transform="rotate(68.5619 0.265991 746)" fill="#89DFE2"/>
<rect x="1508.31" y="376.825" width="135.601" height="119.69" rx="45" transform="rotate(119.03 1508.31 376.825)" fill="#4594F7"/>
<path d="M1362.86 352.535C1363.02 350.231 1364.74 348.339 1367.02 347.96L1413.27 340.271C1417.9 339.501 1420.95 344.959 1417.86 348.493L1368.08 405.444C1364.92 409.055 1358.98 406.58 1359.33 401.796L1362.86 352.535Z" fill="#4594F7"/>
</g>
<defs>
<clipPath id="clip0_24_1819">
<rect width="1440" height="842" fill="white"/>
</clipPath>
</defs>
</svg>
