<svg width="20" height="20" viewBox="0 0 20 20" fill="none" xmlns="http://www.w3.org/2000/svg">
<path fill-rule="evenodd" clip-rule="evenodd" d="M10.5 4H15C15.5523 4 16 4.44772 16 5V7.5H10.5V4ZM10.5 8.5H16V11.5H10.5V8.5ZM9.5 11.5V8.5H4V11.5H9.5ZM4 12.5H9.5V16H5C4.44772 16 4 15.5523 4 15V12.5ZM10.5 12.5H16V15C16 15.5523 15.5523 16 15 16H10.5V12.5ZM9.5 4V7.5H4V5C4 4.44772 4.44772 4 5 4H9.5ZM3 5C3 3.89543 3.89543 3 5 3H15C16.1046 3 17 3.89543 17 5V15C17 16.1046 16.1046 17 15 17H5C3.89543 17 3 16.1046 3 15V5Z" fill="#1F1F1F" fill-opacity="0.6"/>
</svg>
