<svg width="20" height="20" viewBox="0 0 20 20" fill="none" xmlns="http://www.w3.org/2000/svg">
<path fill-rule="evenodd" clip-rule="evenodd" d="M17 10C17 13.866 13.866 17 10 17C6.13401 17 3 13.866 3 10C3 6.13401 6.13401 3 10 3C13.866 3 17 6.13401 17 10ZM18 10C18 14.4183 14.4183 18 10 18C5.58172 18 2 14.4183 2 10C2 5.58172 5.58172 2 10 2C14.4183 2 18 5.58172 18 10ZM5.64645 8.85355L9.64645 12.8536C9.84171 13.0488 10.1583 13.0488 10.3536 12.8536L14.3536 8.85355L13.6464 8.14645L10 11.7929L6.35355 8.14645L5.64645 8.85355Z" fill="#5A65EA"/>
</svg>
