<svg width="25" height="24" viewBox="0 0 25 24" fill="none" xmlns="http://www.w3.org/2000/svg">
<rect x="0.5" width="24" height="24" rx="3" fill="#70E09D" fill-opacity="0.2"/>
<path d="M17.7304 6.85327L13.4047 5.17143C12.8185 4.94286 12.1678 4.94286 11.5816 5.17143L7.25589 6.85327C7.02971 6.94142 6.83546 7.09586 6.6986 7.29635C6.56174 7.49683 6.48867 7.734 6.48897 7.97674V9.93441C6.46662 11.8597 6.99154 13.7517 8.00262 15.3903C8.99054 16.9993 10.4726 18.2454 12.2274 18.9424C12.3132 18.9804 12.406 19 12.4999 19C12.5937 19 12.6865 18.9804 12.7723 18.9424C14.5271 18.2454 16.0092 16.9993 16.9971 15.3903C18.0082 13.7517 18.5331 11.8597 18.5108 9.93441V7.97674C18.5091 7.73264 18.4337 7.49475 18.2944 7.29426C18.1552 7.09377 17.9586 6.94006 17.7304 6.85327V6.85327Z" stroke="#70E09D" stroke-miterlimit="10"/>
</svg>
