<svg width="24" height="24" viewBox="0 0 24 24" fill="none" xmlns="http://www.w3.org/2000/svg">
<rect x="0.000488281" width="24" height="24" rx="3" fill="#E74ABB" fill-opacity="0.2"/>
<path fill-rule="evenodd" clip-rule="evenodd" d="M13.4822 7.63395C13.5561 7.36788 13.4004 7.09228 13.1343 7.01837C12.8682 6.94446 12.5926 7.10024 12.5187 7.3663L10.0187 16.3663C9.9448 16.6324 10.1006 16.908 10.3666 16.9819C10.6327 17.0558 10.9083 16.9 10.9822 16.6339L13.4822 7.63395ZM14.5532 14.7237C14.4298 14.4767 14.5299 14.1764 14.7769 14.0529L18.8824 12.0001L14.7769 9.94734C14.5299 9.82385 14.4298 9.52351 14.5532 9.27652C14.6767 9.02953 14.9771 8.92942 15.2241 9.05291L20.2241 11.5529V12.4473L15.2241 14.9473C14.9771 15.0708 14.6767 14.9707 14.5532 14.7237ZM9.44768 9.27652C9.57117 9.52351 9.47106 9.82385 9.22407 9.94734L5.1185 12.0001L9.22407 14.0529C9.47106 14.1764 9.57117 14.4767 9.44768 14.7237C9.32418 14.9707 9.02384 15.0708 8.77686 14.9473L3.77686 12.4473V11.5529L8.77686 9.05291C9.02384 8.92942 9.32418 9.02953 9.44768 9.27652Z" fill="#E74ABB"/>
</svg>
