<svg width="81" height="16" viewBox="0 0 81 16" fill="none" xmlns="http://www.w3.org/2000/svg">
<path d="M1.61842 1.77393C1.73338 0.763351 2.5885 0 3.6056 0H78.7596C79.9537 0 80.8817 1.0396 80.7468 2.22607L79.3816 14.2261C79.2666 15.2366 78.4115 16 77.3944 16H2.24043C1.04631 16 0.11827 14.9604 0.253247 13.7739L1.61842 1.77393Z" fill="#FF7F57"/>
<path d="M9.58 11.1C9.12667 11.1 8.74333 11.0167 8.43 10.85C8.12333 10.6767 7.90333 10.43 7.77 10.11C7.64333 9.78333 7.61333 9.40333 7.68 8.97L7.9 7.53C7.97333 7.09 8.12667 6.71 8.36 6.39C8.59333 6.07 8.89333 5.82667 9.26 5.66C9.62667 5.48667 10.0367 5.4 10.49 5.4C11.15 5.4 11.65 5.57333 11.99 5.92C12.3367 6.26667 12.4733 6.74 12.4 7.34H11.33C11.3567 7.02667 11.2833 6.78333 11.11 6.61C10.9367 6.43667 10.6767 6.35 10.33 6.35C9.96333 6.35 9.66333 6.45333 9.43 6.66C9.19667 6.86 9.05 7.14667 8.99 7.52L8.76 8.97C8.7 9.34333 8.75333 9.63333 8.92 9.84C9.09333 10.0467 9.36333 10.15 9.73 10.15C10.0767 10.15 10.3633 10.0633 10.59 9.89C10.8167 9.71667 10.9667 9.47333 11.04 9.16H12.12C12 9.76 11.71 10.2333 11.25 10.58C10.7967 10.9267 10.24 11.1 9.58 11.1ZM15.5361 11.1C15.0894 11.1 14.7128 11.0167 14.4061 10.85C14.1061 10.6767 13.8928 10.43 13.7661 10.11C13.6394 9.78333 13.6094 9.40333 13.6761 8.97L13.8961 7.53C13.9694 7.09 14.1194 6.71 14.3461 6.39C14.5794 6.07 14.8761 5.82667 15.2361 5.66C15.5961 5.48667 15.9994 5.4 16.4461 5.4C16.8994 5.4 17.2761 5.48667 17.5761 5.66C17.8761 5.82667 18.0894 6.07 18.2161 6.39C18.3494 6.71 18.3828 7.08667 18.3161 7.52L18.0861 8.97C18.0194 9.40333 17.8694 9.78333 17.6361 10.11C17.4028 10.43 17.1061 10.6767 16.7461 10.85C16.3928 11.0167 15.9894 11.1 15.5361 11.1ZM15.6861 10.15C16.0528 10.15 16.3494 10.05 16.5761 9.85C16.8028 9.65 16.9461 9.35667 17.0061 8.97L17.2261 7.53C17.2928 7.14333 17.2428 6.85 17.0761 6.65C16.9161 6.45 16.6561 6.35 16.2961 6.35C15.9361 6.35 15.6428 6.45 15.4161 6.65C15.1894 6.85 15.0428 7.14333 14.9761 7.53L14.7561 8.97C14.6961 9.35667 14.7461 9.65 14.9061 9.85C15.0728 10.05 15.3328 10.15 15.6861 10.15ZM19.1422 11L20.0122 5.5H20.9122L20.8122 6.2H21.0022L20.8122 6.41C20.8655 6.10333 20.9889 5.86 21.1822 5.68C21.3822 5.49333 21.6222 5.4 21.9022 5.4C22.2022 5.4 22.4155 5.51667 22.5422 5.75C22.6689 5.98333 22.6989 6.30333 22.6322 6.71L22.4722 6.2H22.8522L22.6522 6.41C22.7055 6.10333 22.8322 5.86 23.0322 5.68C23.2322 5.49333 23.4755 5.4 23.7622 5.4C24.1022 5.4 24.3489 5.53 24.5022 5.79C24.6555 6.04333 24.6989 6.38333 24.6322 6.81L23.9622 11H23.0022L23.6522 6.84C23.6855 6.63333 23.6689 6.47333 23.6022 6.36C23.5355 6.24667 23.4189 6.19 23.2522 6.19C23.0855 6.19 22.9455 6.24667 22.8322 6.36C22.7255 6.46667 22.6555 6.62333 22.6222 6.83L21.9622 11H21.1522L21.8022 6.84C21.8422 6.62667 21.8222 6.46667 21.7422 6.36C21.6689 6.24667 21.5489 6.19 21.3822 6.19C21.2155 6.19 21.0789 6.24667 20.9722 6.36C20.8722 6.46667 20.8055 6.62333 20.7722 6.83L20.1122 11H19.1422ZM25.3183 11L25.4783 10.02H27.4083L27.9683 6.48H26.2883L26.4383 5.5H29.1683L28.4583 10.02H30.2383L30.0783 11H25.3183ZM28.7283 4.55C28.4949 4.55 28.3183 4.49 28.1983 4.37C28.0849 4.24333 28.0416 4.07667 28.0683 3.87C28.1083 3.65667 28.2049 3.49 28.3583 3.37C28.5183 3.24333 28.7149 3.18 28.9483 3.18C29.1816 3.18 29.3583 3.24333 29.4783 3.37C29.5983 3.49 29.6416 3.65667 29.6083 3.87C29.5749 4.07667 29.4783 4.24333 29.3183 4.37C29.1649 4.49 28.9683 4.55 28.7283 4.55ZM31.3844 11L32.2544 5.5H33.3244L33.1544 6.55H33.4144L33.1144 6.8C33.1877 6.36 33.3744 6.01667 33.6744 5.77C33.9744 5.52333 34.3544 5.4 34.8144 5.4C35.361 5.4 35.7677 5.57667 36.0344 5.93C36.3077 6.27667 36.3977 6.74667 36.3044 7.34L35.7244 11H34.6444L35.2044 7.46C35.2577 7.1 35.2044 6.82 35.0444 6.62C34.891 6.42 34.6444 6.32 34.3044 6.32C33.9644 6.32 33.681 6.42667 33.4544 6.64C33.2277 6.84667 33.081 7.14333 33.0144 7.53L32.4644 11H31.3844ZM37.8305 12.8L37.9705 11.87H39.6605C39.9405 11.87 40.1605 11.8033 40.3205 11.67C40.4805 11.5367 40.5805 11.34 40.6205 11.08L40.7105 10.53L40.8905 9.51H40.6605L40.9205 9.31C40.8471 9.73 40.6605 10.06 40.3605 10.3C40.0605 10.54 39.6871 10.66 39.2405 10.66C38.6738 10.66 38.2538 10.4733 37.9805 10.1C37.7138 9.72667 37.6305 9.22333 37.7305 8.59L37.9105 7.47C37.9771 7.04333 38.1071 6.67667 38.3005 6.37C38.5005 6.06333 38.7505 5.82667 39.0505 5.66C39.3571 5.48667 39.6971 5.4 40.0705 5.4C40.5171 5.4 40.8538 5.52333 41.0805 5.77C41.3071 6.01 41.3871 6.34 41.3205 6.76L41.1205 6.55H41.3505L41.5005 5.5H42.5705L41.6905 11.1C41.6038 11.6267 41.3671 12.04 40.9805 12.34C40.6005 12.6467 40.1138 12.8 39.5205 12.8H37.8305ZM39.7305 9.73C40.0771 9.73 40.3638 9.62667 40.5905 9.42C40.8171 9.20667 40.9638 8.91333 41.0305 8.54L41.1805 7.53C41.2471 7.15667 41.1971 6.86667 41.0305 6.66C40.8638 6.44667 40.6105 6.34 40.2705 6.34C39.9171 6.34 39.6271 6.44333 39.4005 6.65C39.1805 6.85 39.0405 7.14333 38.9805 7.53L38.8205 8.54C38.7605 8.92 38.8105 9.21333 38.9705 9.42C39.1305 9.62667 39.3838 9.73 39.7305 9.73ZM51.2927 11.1C50.6927 11.1 50.2327 10.9633 49.9127 10.69C49.5993 10.41 49.4627 10.04 49.5027 9.58H50.5827C50.5827 9.76 50.656 9.90667 50.8027 10.02C50.9493 10.1333 51.1593 10.19 51.4327 10.19H51.8627C52.196 10.19 52.4527 10.1233 52.6327 9.99C52.8193 9.85 52.9327 9.67 52.9727 9.45C52.9993 9.23667 52.9493 9.06667 52.8227 8.94C52.7027 8.80667 52.4993 8.72 52.2127 8.68L51.5227 8.57C50.956 8.48333 50.5493 8.32 50.3027 8.08C50.0627 7.84 49.9793 7.48 50.0527 7C50.126 6.49333 50.3493 6.1 50.7227 5.82C51.1027 5.54 51.6193 5.4 52.2727 5.4H52.6527C53.2193 5.4 53.6527 5.53333 53.9527 5.8C54.2593 6.06667 54.3993 6.42 54.3727 6.86H53.2927C53.2927 6.7 53.2227 6.57 53.0827 6.47C52.9493 6.36333 52.756 6.31 52.5027 6.31H52.1227C51.8093 6.31 51.5727 6.37 51.4127 6.49C51.2527 6.61 51.1527 6.78333 51.1127 7.01C51.086 7.21 51.1227 7.36333 51.2227 7.47C51.3227 7.57667 51.506 7.65333 51.7727 7.7L52.4827 7.81C53.0827 7.90333 53.5093 8.07333 53.7627 8.32C54.0227 8.56667 54.116 8.93333 54.0427 9.42C53.956 9.94667 53.716 10.36 53.3227 10.66C52.936 10.9533 52.3993 11.1 51.7127 11.1H51.2927ZM57.5088 11.1C57.0621 11.1 56.6854 11.0167 56.3788 10.85C56.0788 10.6767 55.8654 10.43 55.7388 10.11C55.6121 9.78333 55.5821 9.40333 55.6488 8.97L55.8688 7.53C55.9421 7.09 56.0921 6.71 56.3188 6.39C56.5521 6.07 56.8488 5.82667 57.2088 5.66C57.5688 5.48667 57.9721 5.4 58.4188 5.4C58.8721 5.4 59.2488 5.48667 59.5488 5.66C59.8488 5.82667 60.0621 6.07 60.1888 6.39C60.3221 6.71 60.3554 7.08667 60.2888 7.52L60.0588 8.97C59.9921 9.40333 59.8421 9.78333 59.6088 10.11C59.3754 10.43 59.0788 10.6767 58.7188 10.85C58.3654 11.0167 57.9621 11.1 57.5088 11.1ZM57.6588 10.15C58.0254 10.15 58.3221 10.05 58.5488 9.85C58.7754 9.65 58.9188 9.35667 58.9788 8.97L59.1988 7.53C59.2654 7.14333 59.2154 6.85 59.0488 6.65C58.8888 6.45 58.6288 6.35 58.2688 6.35C57.9088 6.35 57.6154 6.45 57.3888 6.65C57.1621 6.85 57.0154 7.14333 56.9488 7.53L56.7288 8.97C56.6688 9.35667 56.7188 9.65 56.8788 9.85C57.0454 10.05 57.3054 10.15 57.6588 10.15ZM63.5048 11.1C63.0582 11.1 62.6815 11.0167 62.3748 10.85C62.0748 10.6767 61.8615 10.43 61.7348 10.11C61.6082 9.78333 61.5782 9.40333 61.6448 8.97L61.8648 7.53C61.9382 7.09 62.0882 6.71 62.3148 6.39C62.5482 6.07 62.8448 5.82667 63.2048 5.66C63.5648 5.48667 63.9682 5.4 64.4148 5.4C64.8682 5.4 65.2448 5.48667 65.5448 5.66C65.8448 5.82667 66.0582 6.07 66.1848 6.39C66.3182 6.71 66.3515 7.08667 66.2848 7.52L66.0548 8.97C65.9882 9.40333 65.8382 9.78333 65.6048 10.11C65.3715 10.43 65.0748 10.6767 64.7148 10.85C64.3615 11.0167 63.9582 11.1 63.5048 11.1ZM63.6548 10.15C64.0215 10.15 64.3182 10.05 64.5448 9.85C64.7715 9.65 64.9148 9.35667 64.9748 8.97L65.1948 7.53C65.2615 7.14333 65.2115 6.85 65.0448 6.65C64.8848 6.45 64.6248 6.35 64.2648 6.35C63.9048 6.35 63.6115 6.45 63.3848 6.65C63.1582 6.85 63.0115 7.14333 62.9448 7.53L62.7248 8.97C62.6648 9.35667 62.7148 9.65 62.8748 9.85C63.0415 10.05 63.3015 10.15 63.6548 10.15ZM67.3609 11L68.2309 5.5H69.3009L69.1309 6.55H69.3909L69.0909 6.8C69.1643 6.36 69.3509 6.01667 69.6509 5.77C69.9509 5.52333 70.3309 5.4 70.7909 5.4C71.3376 5.4 71.7443 5.57667 72.0109 5.93C72.2843 6.27667 72.3743 6.74667 72.2809 7.34L71.7009 11H70.6209L71.1809 7.46C71.2343 7.1 71.1809 6.82 71.0209 6.62C70.8676 6.42 70.6209 6.32 70.2809 6.32C69.9409 6.32 69.6576 6.42667 69.4309 6.64C69.2043 6.84667 69.0576 7.14333 68.9909 7.53L68.4409 11H67.3609Z" fill="white"/>
</svg>
