<svg width="24" height="24" viewBox="0 0 24 24" fill="none" xmlns="http://www.w3.org/2000/svg">
<path fill-rule="evenodd" clip-rule="evenodd" d="M6.29 12.22L7.4 11.12L8.1 11.83L5.79 14.14L3.5 11.84L4.21 11.13L5.29 12.23V12C5.2871 10.7263 5.64733 9.47817 6.32848 8.40187C7.00962 7.32557 7.98344 6.46573 9.13581 5.92313C10.2882 5.38053 11.5713 5.17766 12.8349 5.33828C14.0985 5.49891 15.29 6.01638 16.27 6.83004L15.63 7.60004C14.7962 6.9081 13.7824 6.46815 12.7075 6.33176C11.6326 6.19536 10.541 6.36818 9.56081 6.82995C8.5806 7.29172 7.75231 8.02332 7.17301 8.939C6.59371 9.85468 6.28741 10.9165 6.29 12V12.22ZM18.21 9.85999L20.5 12.16L19.81 12.87L18.73 11.78V12.01C18.7342 13.2865 18.3736 14.5376 17.6907 15.6161C17.0078 16.6946 16.0311 17.5556 14.8754 18.0977C13.7197 18.6398 12.4333 18.8405 11.1674 18.6762C9.90149 18.5118 8.7089 17.9892 7.72998 17.17L8.36998 16.4C9.20381 17.0919 10.2176 17.5319 11.2925 17.6683C12.3674 17.8047 13.459 17.6318 14.4392 17.1701C15.4194 16.7083 16.2477 15.9767 16.827 15.061C17.4063 14.1453 17.7126 13.0835 17.71 12V11.78L16.6 12.88L15.9 12.17L18.21 9.85999Z" fill="#1F1F1F"/>
</svg>
