<svg width="20" height="20" viewBox="0 0 20 20" fill="none" xmlns="http://www.w3.org/2000/svg">
<path fill-rule="evenodd" clip-rule="evenodd" d="M5.42481 3.9248C4.59638 3.9248 3.9248 4.59638 3.9248 5.4248V14.5752C3.9248 15.4037 4.59638 16.0752 5.4248 16.0752H14.5752C15.4037 16.0752 16.0752 15.4037 16.0752 14.5752V11.8584C16.0752 11.5823 15.8514 11.3584 15.5752 11.3584C15.2991 11.3584 15.0752 11.5823 15.0752 11.8584V14.5752C15.0752 14.8514 14.8514 15.0752 14.5752 15.0752H5.4248C5.14866 15.0752 4.9248 14.8514 4.9248 14.5752V5.4248C4.9248 5.14866 5.14866 4.9248 5.42481 4.9248H8.14162C8.41776 4.9248 8.64162 4.70095 8.64162 4.4248C8.64162 4.14866 8.41776 3.9248 8.14162 3.9248H5.42481ZM11.1151 3.9248C10.8389 3.9248 10.6151 4.14866 10.6151 4.4248C10.6151 4.70095 10.8389 4.9248 11.1151 4.9248H14.3681L7.41638 11.8766C7.22112 12.0718 7.22112 12.3884 7.41638 12.5837C7.61165 12.7789 7.92823 12.7789 8.12349 12.5837L15.0752 5.63191V8.5133C15.0752 8.78944 15.2991 9.0133 15.5752 9.0133C15.8514 9.0133 16.0752 8.78944 16.0752 8.5133V4.4248C16.0752 4.14866 15.8514 3.9248 15.5752 3.9248H11.1151Z" fill="#1F1F1F" fill-opacity="0.75"/>
<rect x="0.5" y="0.5" width="19" height="19" rx="2.5" stroke="#E1E3E6"/>
</svg>
