<svg width="24" height="24" viewBox="0 0 24 24" fill="none" xmlns="http://www.w3.org/2000/svg">
<path fill-rule="evenodd" clip-rule="evenodd" d="M8.77778 5.58337C8.77778 5.30723 9.00164 5.08337 9.27778 5.08337H14.7222C14.9984 5.08337 15.2222 5.30723 15.2222 5.58337C15.2222 5.85952 14.9984 6.08337 14.7222 6.08337H9.27778C9.00164 6.08337 8.77778 5.85952 8.77778 5.58337ZM4.5 7.91671C4.5 7.64056 4.72386 7.41671 5 7.41671H7.72222H16.2778H19C19.2761 7.41671 19.5 7.64056 19.5 7.91671C19.5 8.19285 19.2761 8.41671 19 8.41671H16.7778V18.4167C16.7778 18.6929 16.5539 18.9167 16.2778 18.9167H7.72222C7.44608 18.9167 7.22222 18.6929 7.22222 18.4167V8.41671H5C4.72386 8.41671 4.5 8.19285 4.5 7.91671ZM8.22222 8.41671V17.9167H15.7778V8.41671H8.22222Z" fill="#1F1F1F"/>
</svg>
