<svg width="40" height="16" viewBox="0 0 40 16" fill="none" xmlns="http://www.w3.org/2000/svg">
<path d="M0.792819 1.88782C0.852331 0.8285 1.72868 0 2.78967 0H37.8845C39.0331 0 39.9458 0.96533 39.8813 2.11218L39.2072 14.1122C39.1477 15.1715 38.2713 16 37.2103 16H2.11551C0.966853 16 0.054232 15.0347 0.118662 13.8878L0.792819 1.88782Z" fill="#FF7F57"/>
<path d="M10.32 11.1C9.72 11.1 9.26 10.9633 8.94 10.69C8.62667 10.41 8.49 10.04 8.53 9.58H9.61C9.61 9.76 9.68333 9.90667 9.83 10.02C9.97667 10.1333 10.1867 10.19 10.46 10.19H10.89C11.2233 10.19 11.48 10.1233 11.66 9.99C11.8467 9.85 11.96 9.67 12 9.45C12.0267 9.23667 11.9767 9.06667 11.85 8.94C11.73 8.80667 11.5267 8.72 11.24 8.68L10.55 8.57C9.98333 8.48333 9.57667 8.32 9.33 8.08C9.09 7.84 9.00667 7.48 9.08 7C9.15333 6.49333 9.37667 6.1 9.75 5.82C10.13 5.54 10.6467 5.4 11.3 5.4H11.68C12.2467 5.4 12.68 5.53333 12.98 5.8C13.2867 6.06667 13.4267 6.42 13.4 6.86H12.32C12.32 6.7 12.25 6.57 12.11 6.47C11.9767 6.36333 11.7833 6.31 11.53 6.31H11.15C10.8367 6.31 10.6 6.37 10.44 6.49C10.28 6.61 10.18 6.78333 10.14 7.01C10.1133 7.21 10.15 7.36333 10.25 7.47C10.35 7.57667 10.5333 7.65333 10.8 7.7L11.51 7.81C12.11 7.90333 12.5367 8.07333 12.79 8.32C13.05 8.56667 13.1433 8.93333 13.07 9.42C12.9833 9.94667 12.7433 10.36 12.35 10.66C11.9633 10.9533 11.4267 11.1 10.74 11.1H10.32ZM16.5361 11.1C16.0894 11.1 15.7128 11.0167 15.4061 10.85C15.1061 10.6767 14.8928 10.43 14.7661 10.11C14.6394 9.78333 14.6094 9.40333 14.6761 8.97L14.8961 7.53C14.9694 7.09 15.1194 6.71 15.3461 6.39C15.5794 6.07 15.8761 5.82667 16.2361 5.66C16.5961 5.48667 16.9994 5.4 17.4461 5.4C17.8994 5.4 18.2761 5.48667 18.5761 5.66C18.8761 5.82667 19.0894 6.07 19.2161 6.39C19.3494 6.71 19.3828 7.08667 19.3161 7.52L19.0861 8.97C19.0194 9.40333 18.8694 9.78333 18.6361 10.11C18.4028 10.43 18.1061 10.6767 17.7461 10.85C17.3928 11.0167 16.9894 11.1 16.5361 11.1ZM16.6861 10.15C17.0528 10.15 17.3494 10.05 17.5761 9.85C17.8028 9.65 17.9461 9.35667 18.0061 8.97L18.2261 7.53C18.2928 7.14333 18.2428 6.85 18.0761 6.65C17.9161 6.45 17.6561 6.35 17.2961 6.35C16.9361 6.35 16.6428 6.45 16.4161 6.65C16.1894 6.85 16.0428 7.14333 15.9761 7.53L15.7561 8.97C15.6961 9.35667 15.7461 9.65 15.9061 9.85C16.0728 10.05 16.3328 10.15 16.6861 10.15ZM22.5322 11.1C22.0855 11.1 21.7089 11.0167 21.4022 10.85C21.1022 10.6767 20.8889 10.43 20.7622 10.11C20.6355 9.78333 20.6055 9.40333 20.6722 8.97L20.8922 7.53C20.9655 7.09 21.1155 6.71 21.3422 6.39C21.5755 6.07 21.8722 5.82667 22.2322 5.66C22.5922 5.48667 22.9955 5.4 23.4422 5.4C23.8955 5.4 24.2722 5.48667 24.5722 5.66C24.8722 5.82667 25.0855 6.07 25.2122 6.39C25.3455 6.71 25.3789 7.08667 25.3122 7.52L25.0822 8.97C25.0155 9.40333 24.8655 9.78333 24.6322 10.11C24.3989 10.43 24.1022 10.6767 23.7422 10.85C23.3889 11.0167 22.9855 11.1 22.5322 11.1ZM22.6822 10.15C23.0489 10.15 23.3455 10.05 23.5722 9.85C23.7989 9.65 23.9422 9.35667 24.0022 8.97L24.2222 7.53C24.2889 7.14333 24.2389 6.85 24.0722 6.65C23.9122 6.45 23.6522 6.35 23.2922 6.35C22.9322 6.35 22.6389 6.45 22.4122 6.65C22.1855 6.85 22.0389 7.14333 21.9722 7.53L21.7522 8.97C21.6922 9.35667 21.7422 9.65 21.9022 9.85C22.0689 10.05 22.3289 10.15 22.6822 10.15ZM26.3883 11L27.2583 5.5H28.3283L28.1583 6.55H28.4183L28.1183 6.8C28.1916 6.36 28.3783 6.01667 28.6783 5.77C28.9783 5.52333 29.3583 5.4 29.8183 5.4C30.3649 5.4 30.7716 5.57667 31.0383 5.93C31.3116 6.27667 31.4016 6.74667 31.3083 7.34L30.7283 11H29.6483L30.2083 7.46C30.2616 7.1 30.2083 6.82 30.0483 6.62C29.8949 6.42 29.6483 6.32 29.3083 6.32C28.9683 6.32 28.6849 6.42667 28.4583 6.64C28.2316 6.84667 28.0849 7.14333 28.0183 7.53L27.4683 11H26.3883Z" fill="white"/>
</svg>
