<svg width="43" height="43" viewBox="0 0 43 43" fill="none" xmlns="http://www.w3.org/2000/svg">
<path fill-rule="evenodd" clip-rule="evenodd" d="M28.9989 7.49896C28.9989 6.77547 28.4123 6.18896 27.6889 6.18896C26.9654 6.18896 26.3789 6.77547 26.3789 7.49896V12.4099C26.3789 13.1334 26.9654 13.7199 27.6889 13.7199C28.4123 13.7199 28.9989 13.1334 28.9989 12.4099V7.49896ZM4.67963 12.7369C3.40385 12.7369 2.36963 13.7712 2.36963 15.0469V35.5009C2.36963 36.2243 2.95614 36.8109 3.67963 36.8109H27.2248C28.1693 36.8109 29.0187 36.2358 29.3695 35.3588L32.7219 26.9778C33.3289 25.4605 32.2114 23.8099 30.5771 23.8099H8.50903C7.56446 23.8099 6.71506 24.385 6.36425 25.262L4.98963 28.6986V15.3569H14.21L16.3017 17.4486C16.7349 17.8818 17.3224 18.1252 17.9351 18.1252H27.2839V20.2755C27.2839 20.999 27.8704 21.5855 28.5939 21.5855C29.3173 21.5855 29.9039 20.999 29.9039 20.2755V17.8152C29.9039 16.5394 28.8696 15.5052 27.5939 15.5052H18.0635L15.9718 13.4135C15.5386 12.9803 14.9511 12.7369 14.3384 12.7369H4.67963ZM27.0149 34.1909H5.61454L8.71891 26.4299H30.1192L27.0149 34.1909ZM32.5994 18.6297C32.5994 17.9062 33.1859 17.3197 33.9094 17.3197H38.8203C39.5438 17.3197 40.1303 17.9062 40.1303 18.6297C40.1303 19.3532 39.5438 19.9397 38.8203 19.9397H33.9094C33.1859 19.9397 32.5994 19.3532 32.5994 18.6297ZM36.4727 11.6993C36.9843 11.1877 36.9843 10.3582 36.4727 9.84664C35.9611 9.33505 35.1317 9.33505 34.6201 9.84664L31.1279 13.3389C30.6163 13.8505 30.6163 14.6799 31.1279 15.1915C31.6394 15.7031 32.4689 15.7031 32.9805 15.1915L36.4727 11.6993Z" fill="#1F1F1F" fill-opacity="0.2"/>
</svg>
