<svg width="40" height="40" viewBox="0 0 40 40" fill="none" xmlns="http://www.w3.org/2000/svg">
<g filter="url(#filter0_d_100_2208)">
<path fill-rule="evenodd" clip-rule="evenodd" d="M17.7299 11.9922C18.8219 10.3945 21.1787 10.3945 22.2707 11.9922L22.7026 12.6241C25.4086 16.5834 27.7336 20.79 29.6463 25.1876L29.7365 25.3951C30.4106 26.9448 29.3922 28.7045 27.7127 28.8923C22.587 29.4651 17.4135 29.4651 12.2879 28.8923C10.6084 28.7045 9.58999 26.9448 10.264 25.3951L10.3543 25.1876C12.267 20.79 14.592 16.5834 17.298 12.6241L17.7299 11.9922ZM21.0003 16.9996C21.0003 17.5518 20.5526 17.9996 20.0003 17.9996C19.448 17.9996 19.0003 17.5518 19.0003 16.9996C19.0003 16.4473 19.448 15.9996 20.0003 15.9996C20.5526 15.9996 21.0003 16.4473 21.0003 16.9996ZM20.0003 19.7496C20.4145 19.7496 20.7503 20.0853 20.7503 20.4996V25.4996C20.7503 25.9138 20.4145 26.2496 20.0003 26.2496C19.5861 26.2496 19.2503 25.9138 19.2503 25.4996V20.4996C19.2503 20.0853 19.5861 19.7496 20.0003 19.7496Z" fill="#FB5D61"/>
</g>
<defs>
<filter id="filter0_d_100_2208" x="0.0537109" y="0.793945" width="39.8936" height="38.5283" filterUnits="userSpaceOnUse" color-interpolation-filters="sRGB">
<feFlood flood-opacity="0" result="BackgroundImageFix"/>
<feColorMatrix in="SourceAlpha" type="matrix" values="0 0 0 0 0 0 0 0 0 0 0 0 0 0 0 0 0 0 127 0" result="hardAlpha"/>
<feOffset/>
<feGaussianBlur stdDeviation="5"/>
<feComposite in2="hardAlpha" operator="out"/>
<feColorMatrix type="matrix" values="0 0 0 0 0.984314 0 0 0 0 0.364706 0 0 0 0 0.380392 0 0 0 0.2 0"/>
<feBlend mode="normal" in2="BackgroundImageFix" result="effect1_dropShadow_100_2208"/>
<feBlend mode="normal" in="SourceGraphic" in2="effect1_dropShadow_100_2208" result="shape"/>
</filter>
</defs>
</svg>
