<svg width="24" height="24" viewBox="0 0 24 24" fill="none" xmlns="http://www.w3.org/2000/svg">
<path d="M5.5 16H5C5 16.1672 5.08355 16.3233 5.22265 16.416L5.5 16ZM10 19L9.72265 19.416C9.87608 19.5183 10.0734 19.5278 10.2359 19.4408C10.3985 19.3538 10.5 19.1844 10.5 19H10ZM5.5 5V4.5C5.22386 4.5 5 4.72386 5 5H5.5ZM10 8H10.5C10.5 7.83282 10.4164 7.67671 10.2773 7.58397L10 8ZM14 5H14.5C14.5 4.72386 14.2761 4.5 14 4.5V5ZM13.5 8C13.5 8.27614 13.7239 8.5 14 8.5C14.2761 8.5 14.5 8.27614 14.5 8H13.5ZM14 17.5V18C14.2761 18 14.5 17.7761 14.5 17.5H14ZM14.5 14.5C14.5 14.2239 14.2761 14 14 14C13.7239 14 13.5 14.2239 13.5 14.5H14.5ZM12.5 11C12.2239 11 12 11.2239 12 11.5C12 11.7761 12.2239 12 12.5 12V11ZM18.5 11.5L18.8536 11.8536C19.0488 11.6583 19.0488 11.3417 18.8536 11.1464L18.5 11.5ZM16.8536 9.14645C16.6583 8.95118 16.3417 8.95118 16.1464 9.14645C15.9512 9.34171 15.9512 9.65829 16.1464 9.85355L16.8536 9.14645ZM16.1464 13.1464C15.9512 13.3417 15.9512 13.6583 16.1464 13.8536C16.3417 14.0488 16.6583 14.0488 16.8536 13.8536L16.1464 13.1464ZM5.22265 16.416L9.72265 19.416L10.2773 18.584L5.77735 15.584L5.22265 16.416ZM5.22265 5.41603L9.72265 8.41603L10.2773 7.58397L5.77735 4.58397L5.22265 5.41603ZM5 5V16H6V5H5ZM5.5 5.5H14V4.5H5.5V5.5ZM13.5 5V8H14.5V5H13.5ZM10.5 19V17.5H9.5V19H10.5ZM10.5 17.5V8H9.5V17.5H10.5ZM10 18H14V17H10V18ZM14.5 17.5V14.5H13.5V17.5H14.5ZM12.5 12H18.5V11H12.5V12ZM18.8536 11.1464L16.8536 9.14645L16.1464 9.85355L18.1464 11.8536L18.8536 11.1464ZM18.1464 11.1464L16.1464 13.1464L16.8536 13.8536L18.8536 11.8536L18.1464 11.1464Z" fill="#1F1F1F" fill-opacity="0.75"/>
</svg>
