<svg width="385" height="121" viewBox="0 0 385 121" fill="none" xmlns="http://www.w3.org/2000/svg">
<g clip-path="url(#clip0_231_1394)">
<path d="M156.47 84.3C151.512 84.4156 146.678 82.7439 142.85 79.59L146.47 74.69C149.214 76.8994 152.627 78.1091 156.15 78.12C160.86 78.12 164.15 76.02 164.15 71.63C164.15 67.63 160.52 65.52 156.38 63.42C149.76 60.05 143.01 57.12 143.01 48.27C143.01 41.39 148.11 36.27 156.45 36.27C160.945 36.2642 165.329 37.6627 168.99 40.27L165.56 45.47C162.954 43.4251 159.699 42.3852 156.39 42.54C152.76 42.54 149.71 44.38 149.71 47.89C149.71 52.89 154.16 54.63 159.89 57.5C165.18 60.11 170.78 63.5 170.78 71.25C170.73 79.59 164.24 84.3 156.47 84.3Z" fill="#1F1F1F"/>
<path d="M178.49 83.54V37.06H204.49V43.06H184.86V57.88H204.02V63.88H184.86V77.55H205.67V83.55L178.49 83.54Z" fill="#1F1F1F"/>
<path d="M236.29 84.3C222.98 84.3 212.41 74.18 212.41 60.17C212.41 46.61 222.56 36.3 235.97 36.3C250.36 36.3 260.03 46.8 260.03 60.3C260.067 63.4401 259.48 66.5563 258.304 69.4679C257.127 72.3794 255.384 75.0284 253.175 77.261C250.967 79.4936 248.337 81.2655 245.439 82.4738C242.54 83.6821 239.43 84.3029 236.29 84.3ZM236.03 42.54C225.97 42.54 219.03 49.99 219.03 60.17C218.982 62.4788 219.391 64.7743 220.233 66.9246C221.075 69.0749 222.334 71.0376 223.937 72.7C225.54 74.3624 227.456 75.6917 229.574 76.6115C231.692 77.5313 233.971 78.0236 236.28 78.06C245.38 78.06 253.4 71.19 253.4 60.06C253.41 49.99 246.28 42.54 236.03 42.54Z" fill="#1F1F1F"/>
<path d="M266.39 72.84V67.37H279.89V72.84H266.39Z" fill="#1F1F1F"/>
<path d="M309.8 84.3C303.499 84.2261 297.484 81.6595 293.07 77.1618C288.657 72.664 286.205 66.6013 286.25 60.3C286.25 45.91 297.07 36.3 309.87 36.3C316.176 36.1096 322.311 38.3673 326.99 42.6L323.11 47.3C319.416 44.0771 314.639 42.3728 309.74 42.53C300.38 42.53 292.87 49.59 292.87 60.35C292.87 69.77 300.57 78.05 309.99 78.05C316.68 78.05 321.99 74.3 323.68 68.69L309.68 62.69H331.06C331.098 65.509 330.577 68.3077 329.527 70.924C328.476 73.5403 326.917 75.9222 324.94 77.932C322.963 79.9418 320.607 81.5394 318.008 82.6325C315.409 83.7255 312.619 84.2923 309.8 84.3Z" fill="#1F1F1F"/>
<path d="M360.66 84.3C347.35 84.3 336.79 74.18 336.79 60.17C336.79 46.61 346.91 36.3 360.34 36.3C374.73 36.3 384.4 46.8 384.4 60.3C384.437 63.4401 383.85 66.5563 382.674 69.4679C381.497 72.3794 379.754 75.0284 377.545 77.261C375.337 79.4936 372.707 81.2655 369.809 82.4738C366.91 83.6821 363.8 84.3029 360.66 84.3ZM360.4 42.54C350.4 42.54 343.4 49.99 343.4 60.17C343.352 62.4796 343.762 64.7759 344.604 66.9269C345.447 69.0778 346.707 71.0409 348.311 72.7035C349.915 74.366 351.831 75.6951 353.951 76.6143C356.07 77.5336 358.35 78.0249 360.66 78.06C369.76 78.06 377.78 71.19 377.78 60.06C377.78 49.99 370.65 42.54 360.4 42.54V42.54Z" fill="#1F1F1F"/>
<path d="M52.52 60.3L0.559998 30.3L52.52 0.299988L104.48 30.3L52.52 60.3Z" fill="#A3AAFF"/>
<path d="M52.52 60.3V120.3L104.48 90.3V30.3L52.52 60.3Z" fill="#5A65EA"/>
<path d="M33.13 64.35L18.86 56.11V40.86L0.559998 30.3V83.16L33.13 64.35Z" fill="#2833B3"/>
<path d="M39.32 91.55V75.07L6.75 93.87L52.52 120.3V99.17L39.32 91.55Z" fill="#5A65EA"/>
</g>
<defs>
<clipPath id="clip0_231_1394">
<rect width="383.84" height="120" fill="white" transform="translate(0.559998 0.299988)"/>
</clipPath>
</defs>
</svg>
