<svg width="64" height="64" viewBox="0 0 64 64" fill="none" xmlns="http://www.w3.org/2000/svg">
<path d="M43.3337 10.6666C42.8032 10.6666 42.2945 10.4559 41.9194 10.0808C41.5444 9.70577 41.3337 9.19706 41.3337 8.66663C41.3337 8.13619 41.5444 7.62749 41.9194 7.25241C42.2945 6.87734 42.8032 6.66663 43.3337 6.66663H52.667C53.9047 6.66663 55.0917 7.15829 55.9668 8.03346C56.842 8.90863 57.3337 10.0956 57.3337 11.3333V20.6666C57.3337 21.1971 57.123 21.7058 56.7479 22.0808C56.3728 22.4559 55.8641 22.6666 55.3337 22.6666C54.8032 22.6666 54.2945 22.4559 53.9194 22.0808C53.5444 21.7058 53.3337 21.1971 53.3337 20.6666V11.3333C53.3337 11.1565 53.2634 10.9869 53.1384 10.8619C53.0134 10.7369 52.8438 10.6666 52.667 10.6666H43.3337ZM53.3337 43.3333C53.3337 42.8029 53.5444 42.2942 53.9194 41.9191C54.2945 41.544 54.8032 41.3333 55.3337 41.3333C55.8641 41.3333 56.3728 41.544 56.7479 41.9191C57.123 42.2942 57.3337 42.8029 57.3337 43.3333V52.6666C57.3337 53.9043 56.842 55.0913 55.9668 55.9665C55.0917 56.8416 53.9047 57.3333 52.667 57.3333H43.3337C42.8032 57.3333 42.2945 57.1226 41.9194 56.7475C41.5444 56.3724 41.3337 55.8637 41.3337 55.3333C41.3337 54.8029 41.5444 54.2942 41.9194 53.9191C42.2945 53.544 42.8032 53.3333 43.3337 53.3333H52.667C52.8438 53.3333 53.0134 53.2631 53.1384 53.138C53.2634 53.013 53.3337 52.8434 53.3337 52.6666V43.3333ZM20.667 53.3333C21.1974 53.3333 21.7061 53.544 22.0812 53.9191C22.4563 54.2942 22.667 54.8029 22.667 55.3333C22.667 55.8637 22.4563 56.3724 22.0812 56.7475C21.7061 57.1226 21.1974 57.3333 20.667 57.3333H11.3337C10.096 57.3333 8.909 56.8416 8.03383 55.9665C7.15866 55.0913 6.66699 53.9043 6.66699 52.6666V43.3333C6.66699 42.8029 6.87771 42.2942 7.25278 41.9191C7.62785 41.544 8.13656 41.3333 8.66699 41.3333C9.19743 41.3333 9.70613 41.544 10.0812 41.9191C10.4563 42.2942 10.667 42.8029 10.667 43.3333V52.6666C10.667 52.8434 10.7372 53.013 10.8623 53.138C10.9873 53.2631 11.1568 53.3333 11.3337 53.3333H20.667ZM10.667 20.6666C10.667 21.1971 10.4563 21.7058 10.0812 22.0808C9.70613 22.4559 9.19743 22.6666 8.66699 22.6666C8.13656 22.6666 7.62785 22.4559 7.25278 22.0808C6.87771 21.7058 6.66699 21.1971 6.66699 20.6666V11.3333C6.66699 10.0956 7.15866 8.90863 8.03383 8.03346C8.909 7.15829 10.096 6.66663 11.3337 6.66663H20.667C21.1974 6.66663 21.7061 6.87734 22.0812 7.25241C22.4563 7.62749 22.667 8.13619 22.667 8.66663C22.667 9.19706 22.4563 9.70577 22.0812 10.0808C21.7061 10.4559 21.1974 10.6666 20.667 10.6666H11.3337C11.1568 10.6666 10.9873 10.7369 10.8623 10.8619C10.7372 10.9869 10.667 11.1565 10.667 11.3333V20.6666ZM50.0003 30C50.5308 30 51.0395 30.2107 51.4145 30.5857C51.7896 30.9608 52.0003 31.4695 52.0003 32C52.0003 32.5304 51.7896 33.0391 51.4145 33.4142C51.0395 33.7893 50.5308 34 50.0003 34H14.0003C13.4699 34 12.9612 33.7893 12.5861 33.4142C12.211 33.0391 12.0003 32.5304 12.0003 32C12.0003 31.4695 12.211 30.9608 12.5861 30.5857C12.9612 30.2107 13.4699 30 14.0003 30H50.0003Z" fill="white"/>
</svg>
