<svg width="29" height="28" viewBox="0 0 29 28" fill="none" xmlns="http://www.w3.org/2000/svg">
<path d="M23.5842 5.39809e-06H4.49761C3.90774 -0.000909168 3.32347 0.114397 2.77818 0.339337C2.23289 0.564278 1.73725 0.894445 1.31959 1.31098C0.901921 1.72751 0.570411 2.22225 0.343993 2.76693C0.117575 3.31161 0.000684918 3.89557 0 4.48543L0 23.5146C0.000684918 24.1044 0.117575 24.6884 0.343993 25.2331C0.570411 25.7778 0.901921 26.2725 1.31959 26.689C1.73725 27.1056 2.23289 27.4357 2.77818 27.6607C3.32347 27.8856 3.90774 28.0009 4.49761 28H23.5842C24.174 28.0009 24.7581 27.8856 25.3033 27.6606C25.8485 27.4357 26.344 27.1055 26.7616 26.6889C27.1791 26.2724 27.5104 25.7776 27.7367 25.2329C27.9629 24.6883 28.0796 24.1044 28.08 23.5146V4.48543C28.0796 3.89565 27.9629 3.31173 27.7367 2.76706C27.5104 2.22239 27.1791 1.72764 26.7616 1.31108C26.344 0.894527 25.8485 0.564333 25.3033 0.339371C24.7581 0.11441 24.174 -0.000909174 23.5842 5.39809e-06Z" fill="#1677FF"/>
<path d="M23.1196 17.5807C21.9956 17.2049 20.4872 16.6307 18.8082 16.0252C19.864 14.1785 20.6531 12.1915 21.1518 10.1235H15.6172V8.13485H22.4028V7.0248H15.6172V3.71901H12.8491C12.7855 3.71688 12.7221 3.72769 12.6628 3.75079C12.6035 3.77388 12.5496 3.80877 12.5042 3.85335C12.4588 3.89793 12.4229 3.95127 12.3988 4.01012C12.3746 4.06898 12.3627 4.13213 12.3636 4.19574V7.03176H5.50673V8.14181H12.3636V10.1235H6.70204V11.2318H17.6842C17.2968 12.5698 16.766 13.8619 16.1009 15.0857C12.5394 13.9148 8.73597 12.963 6.35754 13.5494C4.82992 13.9235 3.84514 14.5933 3.2675 15.2893C0.614173 18.5063 2.51761 23.3954 8.12004 23.3954C11.4258 23.3954 14.6237 21.5546 17.0961 18.5237C20.7847 20.2932 28.0887 23.3293 28.0887 23.3293V19.0039C28.0887 19.0039 27.1631 18.9308 23.1196 17.5807ZM7.58764 21.5302C3.21878 21.5302 1.92779 18.0992 4.08699 16.2236C4.8073 15.5885 6.12439 15.2788 6.82557 15.2092C9.41974 14.9622 11.8312 15.94 14.6568 17.3197C12.6646 19.9121 10.1261 21.5302 7.58764 21.5302Z" fill="white"/>
</svg>
