<svg width="32" height="28" viewBox="0 0 32 28" fill="none" xmlns="http://www.w3.org/2000/svg">
<path d="M11.542 17.7119C11.3952 17.7871 11.2326 17.8261 11.0676 17.8259C10.8791 17.8262 10.694 17.7759 10.5317 17.6801C10.3693 17.5844 10.2357 17.4468 10.1447 17.2817L10.0749 17.1309L7.18477 10.7955C7.15301 10.7249 7.13552 10.6487 7.13329 10.5712C7.13425 10.4311 7.19035 10.297 7.28944 10.1979C7.38852 10.0988 7.52264 10.0427 7.66277 10.0418C7.77705 10.0415 7.88822 10.079 7.97899 10.1484L11.3986 12.5752C11.6568 12.7431 11.9583 12.8325 12.2663 12.8326C12.4518 12.8314 12.6357 12.799 12.8105 12.737L28.842 5.6C25.9556 2.20617 21.2234 0 15.8697 0C7.10387 0 0 5.9199 0 13.237C0 17.2081 2.13631 20.7968 5.48234 23.22C5.62003 23.3172 5.73232 23.4461 5.80975 23.5959C5.88719 23.7456 5.92748 23.9118 5.92725 24.0804C5.92356 24.195 5.90502 24.3087 5.87209 24.4186C5.60368 25.4151 5.17715 26.9925 5.1367 27.0844C5.0939 27.2032 5.06551 27.3266 5.05213 27.4521C5.05213 27.5926 5.10792 27.7272 5.20722 27.8265C5.30651 27.9258 5.44119 27.9816 5.58162 27.9816C5.69016 27.9782 5.79569 27.9451 5.8868 27.886L9.36152 25.8784C9.61536 25.7235 9.90619 25.6396 10.2035 25.6357C10.3619 25.6344 10.5195 25.658 10.6705 25.7056C12.355 26.19 14.0986 26.4375 15.8513 26.441C24.6135 26.441 31.7174 20.5211 31.7174 13.2039C31.7106 11.0402 31.091 8.92267 29.9304 7.09652L11.6596 17.6494L11.542 17.7119Z" fill="#09BB07"/>
</svg>
