<svg width="48" height="48" viewBox="0 0 48 48" fill="none" xmlns="http://www.w3.org/2000/svg">
<rect width="48" height="48" rx="24" fill="#091429" fill-opacity="0.8"/>
<path d="M28.3012 20.1008C28.5691 20.1008 28.8371 20.1008 29.1051 20.1445C28.3477 16.7047 24.6809 14.1562 20.4781 14.1562C15.7859 14.1562 11.9414 17.3746 11.9414 21.3969C11.9414 23.7211 13.1937 25.6871 15.3375 27.1637L14.4871 29.7121L17.4812 28.2383C18.5531 28.4625 19.4035 28.684 20.4754 28.684C20.7434 28.684 21.0113 28.684 21.3258 28.6402C21.148 28.0578 21.0578 27.4781 21.0578 26.852C21.0605 23.1414 24.2352 20.1008 28.3012 20.1008ZM23.6965 17.7766C24.3664 17.7766 24.7684 18.2223 24.7684 18.8484C24.7684 19.4746 24.3227 19.9203 23.6965 19.9203C23.0266 19.9203 22.4004 19.4719 22.4004 18.8484C22.4004 18.1785 23.073 17.7766 23.6965 17.7766ZM17.782 19.7754C17.1066 19.7754 16.475 19.3324 16.475 18.7145C16.475 18.05 17.1504 17.6535 17.782 17.6535C18.4137 17.6535 18.8621 18.0965 18.8621 18.7145C18.8648 19.3352 18.4137 19.7754 17.782 19.7754Z" fill="white"/>
<path d="M36.0805 26.7613C36.0805 23.3188 32.6844 20.5488 28.8398 20.5488C24.7711 20.5488 21.5527 23.3652 21.5527 26.7613C21.5527 30.2039 24.7711 32.9738 28.8398 32.9738C29.6902 32.9738 30.5379 32.7496 31.3883 32.5281L33.7125 33.8242L33.0863 31.6777C34.7844 30.3816 36.0805 28.6836 36.0805 26.7613ZM26.4691 25.6895C26.0672 25.6895 25.6188 25.2875 25.6188 24.8391C25.6188 24.4371 26.0645 23.9887 26.4691 23.9887C27.0953 23.9887 27.541 24.4344 27.541 24.8391C27.541 25.2875 27.1391 25.6895 26.4691 25.6895ZM31.3363 25.4816C30.9316 25.4816 30.4805 25.0824 30.4805 24.6422C30.4805 24.243 30.9316 23.8027 31.3363 23.8027C31.968 23.8027 32.4164 24.2457 32.4164 24.6422C32.4164 25.0852 31.968 25.4816 31.3363 25.4816Z" fill="white"/>
</svg>
