<svg width="48" height="48" viewBox="0 0 48 48" fill="none" xmlns="http://www.w3.org/2000/svg">
<rect width="48" height="48" rx="24" fill="#091429" fill-opacity="0.8"/>
<path d="M32.5531 26.7672C32.1156 25.3617 31.6125 24.1805 30.8387 22.2473C30.959 17.1695 28.848 13.0625 23.9863 13.0625C19.0699 13.0625 17.0055 17.2516 17.1367 22.2473C16.3602 24.1832 15.8598 25.3563 15.4223 26.7672C14.4926 29.7613 14.7934 31 15.023 31.0273C15.5152 31.0875 16.9398 28.7742 16.9398 28.7742C16.9398 30.1141 17.6289 31.8613 19.1219 33.1219C18.4 33.3434 16.7785 33.9395 17.1641 34.593C17.4758 35.1207 22.5289 34.9293 23.9863 34.7652C25.4437 34.9293 30.4969 35.1207 30.8086 34.593C31.1941 33.9422 29.5699 33.3434 28.8508 33.1219C30.3438 31.8586 31.0328 30.1113 31.0328 28.7742C31.0328 28.7742 32.4574 31.0875 32.9496 31.0273C33.182 30.9973 33.4828 29.7586 32.5531 26.7672Z" fill="white"/>
</svg>
