<svg width="720" height="250" viewBox="0 0 720 250" fill="none" xmlns="http://www.w3.org/2000/svg">
<g clip-path="url(#clip0_60_370)">
<path d="M204.31 143.28C203.2 89.43 159.06 45.61 105.2 44.87C87.6497 44.6036 70.3378 48.9557 55 57.49C52.9897 58.6292 50.6235 58.9675 48.3745 58.4373C46.1255 57.907 44.1596 56.5473 42.87 54.63L9.92002 5.62C9.4878 4.97071 8.85845 4.47744 8.12471 4.21285C7.39096 3.94827 6.59164 3.92638 5.84451 4.15041C5.09739 4.37443 4.44198 4.83253 3.97488 5.45718C3.50777 6.08184 3.25367 6.84002 3.25002 7.62V144.02C3.23934 161.457 7.68011 178.608 16.1517 193.848C24.6233 209.089 36.8453 221.914 51.66 231.11V148.86C51.66 117.09 77.24 90.73 109.01 90.86C117.311 90.9267 125.498 92.8059 132.997 96.3663C140.497 99.9266 147.128 105.082 152.427 111.472C157.727 117.862 161.566 125.333 163.678 133.362C165.789 141.39 166.121 149.783 164.651 157.954C163.18 166.124 159.943 173.875 155.165 180.664C150.387 187.453 144.184 193.116 136.989 197.258C129.795 201.399 121.782 203.919 113.512 204.642C105.242 205.364 96.9138 204.272 89.11 201.44C86.8078 200.612 84.2853 200.634 81.9984 201.504C79.7114 202.373 77.8108 204.032 76.64 206.18L60.33 235.92C73.447 242.327 87.8228 245.743 102.42 245.92C115.915 246.104 129.309 243.57 141.803 238.467C154.298 233.365 165.637 225.799 175.145 216.221C184.653 206.643 192.135 195.248 197.146 182.717C202.157 170.185 204.593 156.773 204.31 143.28Z" fill="url(#paint0_linear_60_370)"/>
<path d="M42.84 54.63L9.93001 5.62C9.49779 4.97071 8.86844 4.47744 8.1347 4.21285C7.40096 3.94827 6.60163 3.92638 5.8545 4.15041C5.10738 4.37443 4.45197 4.83253 3.98487 5.45718C3.51776 6.08184 3.26366 6.84002 3.26001 7.62V144.02C3.26001 144.2 3.60001 144.39 3.60001 144.57C3.62652 127.236 8.12799 110.202 16.6686 95.1183C25.2092 80.0343 37.4997 67.4108 52.35 58.47C50.5627 58.8503 48.7024 58.688 47.008 58.0038C45.3135 57.3196 43.8621 56.1448 42.84 54.63Z" fill="url(#paint1_linear_60_370)"/>
<path d="M3.25001 145.18C3.1837 145.18 3.12012 145.154 3.07323 145.107C3.02635 145.06 3.00001 144.996 3.00001 144.93C2.99291 127.46 7.52587 110.288 16.1545 95.0979C24.783 79.9076 37.2111 67.2203 52.22 58.28C52.2786 58.2467 52.3479 58.2375 52.4132 58.2542C52.4785 58.271 52.5347 58.3125 52.57 58.37C52.6028 58.4271 52.6118 58.4948 52.5949 58.5585C52.5781 58.6222 52.5368 58.6766 52.48 58.71C37.539 67.6007 25.1663 80.2232 16.5758 95.3388C7.98541 110.454 3.47252 127.544 3.48001 144.93C3.48021 144.993 3.45663 145.054 3.41399 145.1C3.37135 145.146 3.31279 145.175 3.25001 145.18Z" fill="url(#paint2_linear_60_370)"/>
<path d="M389.94 82.14H243.35C242.024 82.14 240.752 81.6132 239.814 80.6755C238.877 79.7379 238.35 78.4661 238.35 77.14C238.35 75.8139 238.877 74.5422 239.814 73.6045C240.752 72.6668 242.024 72.14 243.35 72.14H389.94C391.266 72.14 392.538 72.6668 393.476 73.6045C394.413 74.5422 394.94 75.8139 394.94 77.14C394.94 78.4661 394.413 79.7379 393.476 80.6755C392.538 81.6132 391.266 82.14 389.94 82.14Z" fill="#101E2D"/>
<path d="M295.21 119.18C294.332 119.179 293.469 118.947 292.709 118.507C291.949 118.067 291.318 117.434 290.88 116.673C290.442 115.912 290.213 115.049 290.214 114.17C290.216 113.292 290.449 112.43 290.89 111.67L312.31 74.67C312.636 74.0968 313.072 73.5937 313.593 73.1897C314.114 72.7857 314.71 72.4887 315.347 72.3159C315.983 72.1432 316.647 72.098 317.301 72.183C317.955 72.268 318.586 72.4815 319.157 72.8112C319.728 73.1409 320.228 73.5803 320.628 74.1041C321.029 74.6279 321.322 75.2258 321.491 75.8633C321.659 76.5008 321.7 77.1653 321.611 77.8186C321.521 78.4719 321.303 79.1011 320.97 79.67L299.54 116.67C299.102 117.432 298.472 118.065 297.712 118.506C296.952 118.946 296.089 119.179 295.21 119.18Z" fill="#101E2D"/>
<path d="M374 219.84H260.55C259.224 219.84 257.952 219.313 257.014 218.376C256.077 217.438 255.55 216.166 255.55 214.84V114.18C255.55 112.854 256.077 111.582 257.014 110.644C257.952 109.707 259.224 109.18 260.55 109.18H374C375.326 109.18 376.598 109.707 377.536 110.644C378.473 111.582 379 112.854 379 114.18V214.84C379 216.166 378.473 217.438 377.536 218.376C376.598 219.313 375.326 219.84 374 219.84ZM265.52 209.84H369V119.18H265.55L265.52 209.84Z" fill="#101E2D"/>
<path d="M370.23 169.51H264.35C263.024 169.51 261.752 168.983 260.814 168.046C259.877 167.108 259.35 165.836 259.35 164.51C259.35 163.184 259.877 161.912 260.814 160.974C261.752 160.037 263.024 159.51 264.35 159.51H370.23C371.556 159.51 372.828 160.037 373.766 160.974C374.703 161.912 375.23 163.184 375.23 164.51C375.23 165.836 374.703 167.108 373.766 168.046C372.828 168.983 371.556 169.51 370.23 169.51Z" fill="#101E2D"/>
<path d="M461.4 114.22H411.79C411.035 114.211 410.291 114.031 409.615 113.694C408.939 113.356 408.348 112.87 407.887 112.271C407.426 111.672 407.107 110.977 406.953 110.237C406.8 109.498 406.816 108.733 407 108L414.73 78.12C414.895 77.4844 415.183 76.8875 415.579 76.3633C415.974 75.8392 416.469 75.3981 417.035 75.0652C417.601 74.7323 418.227 74.5141 418.877 74.4232C419.528 74.3322 420.189 74.3702 420.825 74.535C421.461 74.6998 422.058 74.9882 422.582 75.3837C423.106 75.7792 423.547 76.274 423.88 76.84C424.213 77.406 424.431 78.032 424.522 78.6823C424.613 79.3326 424.575 79.9944 424.41 80.63L418.3 104.25H461.4C462.726 104.25 463.998 104.777 464.936 105.714C465.873 106.652 466.4 107.924 466.4 109.25C466.4 110.576 465.873 111.848 464.936 112.786C463.998 113.723 462.726 114.25 461.4 114.25V114.22Z" fill="#101E2D"/>
<path d="M440 225.9C438.674 225.9 437.402 225.373 436.464 224.436C435.527 223.498 435 222.226 435 220.9V69.46C435 68.1339 435.527 66.8621 436.464 65.9245C437.402 64.9868 438.674 64.46 440 64.46C441.326 64.46 442.598 64.9868 443.536 65.9245C444.473 66.8621 445 68.1339 445 69.46V220.9C445 222.226 444.473 223.498 443.536 224.436C442.598 225.373 441.326 225.9 440 225.9Z" fill="#101E2D"/>
<path d="M406.45 191.05C405.302 191.049 404.19 190.653 403.3 189.928C402.41 189.204 401.796 188.195 401.561 187.072C401.327 185.948 401.486 184.778 402.012 183.758C402.538 182.738 403.399 181.93 404.45 181.47L458.71 157.67C459.916 157.187 461.263 157.192 462.466 157.685C463.668 158.178 464.631 159.12 465.151 160.311C465.671 161.501 465.707 162.848 465.252 164.065C464.796 165.282 463.884 166.274 462.71 166.83L408.45 190.63C407.82 190.908 407.139 191.051 406.45 191.05Z" fill="#101E2D"/>
<path d="M554.37 92.05H469.77C468.444 92.05 467.172 91.5232 466.234 90.5855C465.297 89.6479 464.77 88.3761 464.77 87.05C464.77 85.7239 465.297 84.4521 466.234 83.5145C467.172 82.5768 468.444 82.05 469.77 82.05H554.37C555.696 82.05 556.968 82.5768 557.906 83.5145C558.843 84.4521 559.37 85.7239 559.37 87.05C559.37 88.3761 558.843 89.6479 557.906 90.5855C556.968 91.5232 555.696 92.05 554.37 92.05Z" fill="#101E2D"/>
<path d="M512.32 120.63C510.994 120.63 509.722 120.103 508.784 119.166C507.847 118.228 507.32 116.956 507.32 115.63V69C507.32 67.6739 507.847 66.4021 508.784 65.4645C509.722 64.5268 510.994 64 512.32 64C513.646 64 514.918 64.5268 515.856 65.4645C516.793 66.4021 517.32 67.6739 517.32 69V115.67C517.309 116.989 516.778 118.251 515.841 119.18C514.905 120.109 513.639 120.63 512.32 120.63Z" fill="#101E2D"/>
<path d="M555.88 125.55H467.93C466.604 125.55 465.332 125.023 464.394 124.086C463.457 123.148 462.93 121.876 462.93 120.55C462.93 119.224 463.457 117.952 464.394 117.014C465.332 116.077 466.604 115.55 467.93 115.55H555.88C557.206 115.55 558.478 116.077 559.416 117.014C560.353 117.952 560.88 119.224 560.88 120.55C560.88 121.876 560.353 123.148 559.416 124.086C558.478 125.023 557.206 125.55 555.88 125.55Z" fill="#101E2D"/>
<path d="M555.88 156.71H467.93C466.604 156.71 465.332 156.183 464.394 155.246C463.457 154.308 462.93 153.036 462.93 151.71C462.93 150.384 463.457 149.112 464.394 148.174C465.332 147.237 466.604 146.71 467.93 146.71H555.88C557.206 146.71 558.478 147.237 559.416 148.174C560.353 149.112 560.88 150.384 560.88 151.71C560.88 153.036 560.353 154.308 559.416 155.246C558.478 156.183 557.206 156.71 555.88 156.71Z" fill="#101E2D"/>
<path d="M509.27 201.17C508.612 201.17 507.961 201.04 507.354 200.788C506.746 200.535 506.194 200.166 505.73 199.7L480.94 174.91C480.029 173.967 479.525 172.704 479.537 171.393C479.548 170.082 480.074 168.828 481.001 167.901C481.928 166.974 483.182 166.448 484.493 166.437C485.804 166.425 487.067 166.929 488.01 167.84L512.8 192.63C513.737 193.568 514.264 194.839 514.264 196.165C514.264 197.491 513.737 198.762 512.8 199.7C511.865 200.638 510.595 201.167 509.27 201.17Z" fill="#101E2D"/>
<path d="M522.09 225.9C521.058 225.901 520.051 225.582 519.208 224.989C518.364 224.395 517.725 223.554 517.378 222.583C517.03 221.611 516.992 220.556 517.268 219.562C517.544 218.568 518.121 217.683 518.92 217.03L535.47 203.45V125.12C535.47 123.794 535.997 122.522 536.934 121.584C537.872 120.647 539.144 120.12 540.47 120.12C541.796 120.12 543.068 120.647 544.006 121.584C544.943 122.522 545.47 123.794 545.47 125.12V205.82C545.47 206.56 545.307 207.291 544.99 207.961C544.674 208.63 544.212 209.221 543.64 209.69L525.26 224.76C524.367 225.495 523.247 225.898 522.09 225.9Z" fill="#101E2D"/>
<path d="M711.25 225.9H582.78C581.454 225.9 580.182 225.373 579.244 224.436C578.307 223.498 577.78 222.226 577.78 220.9V77.14C577.78 75.8139 578.307 74.5422 579.244 73.6045C580.182 72.6668 581.454 72.14 582.78 72.14H711.25C712.576 72.14 713.848 72.6668 714.786 73.6045C715.723 74.5422 716.25 75.8139 716.25 77.14V220.9C716.25 222.226 715.723 223.498 714.786 224.436C713.848 225.373 712.576 225.9 711.25 225.9ZM587.78 215.9H706.25V82.14H587.78V215.9Z" fill="#101E2D"/>
<path d="M599.16 157.38C597.896 157.379 596.679 156.898 595.754 156.036C594.83 155.173 594.266 153.992 594.178 152.731C594.089 151.47 594.481 150.221 595.276 149.238C596.071 148.254 597.208 147.608 598.46 147.43C626.66 143.43 656.33 121.58 671.22 109.18H613.08C612.186 109.179 611.309 108.938 610.54 108.482C609.771 108.027 609.138 107.373 608.707 106.59C608.276 105.807 608.063 104.923 608.09 104.029C608.117 103.136 608.383 102.266 608.86 101.51L617.63 87.67C617.959 87.0728 618.407 86.5492 618.945 86.1313C619.484 85.7135 620.103 85.4102 620.763 85.2402C621.423 85.0702 622.111 85.037 622.785 85.1426C623.458 85.2483 624.103 85.4906 624.679 85.8547C625.256 86.2187 625.752 86.6968 626.137 87.2596C626.522 87.8223 626.787 88.4578 626.918 89.1271C627.048 89.7963 627.04 90.4851 626.894 91.1511C626.748 91.8172 626.468 92.4463 626.07 93L622.17 99.16H684.44C685.436 99.16 686.408 99.4573 687.234 100.014C688.059 100.57 688.7 101.36 689.074 102.283C689.448 103.205 689.538 104.219 689.332 105.193C689.126 106.167 688.635 107.057 687.92 107.75C686.09 109.53 642.65 151.23 599.92 157.31C599.669 157.356 599.415 157.379 599.16 157.38Z" fill="#101E2D"/>
<path d="M696.55 158.9C695.923 158.901 695.302 158.782 694.72 158.55L606.9 124C605.665 123.515 604.674 122.559 604.144 121.343C603.615 120.126 603.59 118.75 604.075 117.515C604.56 116.28 605.516 115.289 606.732 114.759C607.949 114.23 609.325 114.205 610.56 114.69L698.38 149.25C699.462 149.678 700.36 150.469 700.922 151.488C701.483 152.506 701.671 153.689 701.455 154.832C701.238 155.974 700.63 157.006 699.734 157.748C698.839 158.491 697.713 158.898 696.55 158.9Z" fill="#101E2D"/>
<path d="M680.77 183.37C680.331 183.372 679.894 183.315 679.47 183.2L620.59 167.34C619.309 166.994 618.218 166.153 617.557 165.003C616.896 163.852 616.719 162.486 617.065 161.205C617.411 159.924 618.252 158.833 619.402 158.172C620.553 157.511 621.919 157.334 623.2 157.68L682.07 173.54C683.243 173.854 684.261 174.583 684.935 175.593C685.609 176.602 685.893 177.822 685.734 179.026C685.575 180.229 684.984 181.333 684.07 182.133C683.157 182.932 681.984 183.372 680.77 183.37Z" fill="#101E2D"/>
<path d="M670.61 207.11C670.171 207.108 669.733 207.048 669.31 206.93L610.43 191.07C609.796 190.899 609.201 190.604 608.681 190.203C608.161 189.802 607.724 189.302 607.397 188.733C607.07 188.163 606.858 187.534 606.773 186.883C606.689 186.231 606.734 185.569 606.905 184.935C607.076 184.301 607.371 183.706 607.772 183.186C608.173 182.666 608.673 182.229 609.242 181.902C610.393 181.241 611.759 181.064 613.04 181.41L671.91 197.28C673.083 197.594 674.101 198.323 674.775 199.333C675.449 200.342 675.733 201.562 675.574 202.766C675.415 203.969 674.824 205.073 673.91 205.873C672.997 206.672 671.824 207.112 670.61 207.11Z" fill="#101E2D"/>
</g>
<defs>
<linearGradient id="paint0_linear_60_370" x1="26.3" y1="160.67" x2="184.78" y2="36.92" gradientUnits="userSpaceOnUse">
<stop stop-color="#0050F7"/>
<stop offset="0.19" stop-color="#0259F8"/>
<stop offset="0.5" stop-color="#0972FA"/>
<stop offset="0.89" stop-color="#149AFE"/>
<stop offset="1" stop-color="#17A7FF"/>
</linearGradient>
<linearGradient id="paint1_linear_60_370" x1="23.76" y1="82.94" x2="5.04001" y2="-2.05" gradientUnits="userSpaceOnUse">
<stop stop-color="#1118C7"/>
<stop offset="1" stop-color="#0098FF"/>
</linearGradient>
<linearGradient id="paint2_linear_60_370" x1="-8.84999" y1="129.84" x2="63.97" y2="72.97" gradientUnits="userSpaceOnUse">
<stop stop-color="#0050F7" stop-opacity="0"/>
<stop offset="0.05" stop-color="#0B58F7" stop-opacity="0.04"/>
<stop offset="0.14" stop-color="#2A6DF8" stop-opacity="0.13"/>
<stop offset="0.25" stop-color="#5D90FA" stop-opacity="0.29"/>
<stop offset="0.37" stop-color="#A3C0FC" stop-opacity="0.51"/>
<stop offset="0.51" stop-color="#FBFCFF" stop-opacity="0.79"/>
<stop offset="0.52" stop-color="white" stop-opacity="0.8"/>
<stop offset="0.61" stop-color="#D8EEFF" stop-opacity="0.68"/>
<stop offset="0.81" stop-color="#76C5FF" stop-opacity="0.39"/>
<stop offset="1" stop-color="#159BFF" stop-opacity="0.1"/>
</linearGradient>
<clipPath id="clip0_60_370">
<rect width="713.25" height="241.94" fill="white" transform="translate(3 4)"/>
</clipPath>
</defs>
</svg>
