<svg width="20" height="20" viewBox="0 0 20 20" fill="none" xmlns="http://www.w3.org/2000/svg">
<path fill-rule="evenodd" clip-rule="evenodd" d="M6.72508 15.1856L6.72836 15.1993L6.7319 15.2129C6.95347 16.0674 7.7134 16.9459 8.90638 16.9459H11.0739C11.5991 16.9459 12.1105 16.7621 12.5101 16.4411C12.8714 16.1509 13.2128 15.6813 13.2832 15.0686L13.5227 14.0683C13.7334 13.264 14.1465 12.4777 14.8244 11.8241C16.3548 10.3487 17.0735 8.18088 16.6093 6.01054C16.1274 3.40467 14.0369 1.30863 11.4022 0.747873C10.8729 0.623827 10.3667 0.624257 10.0351 0.62454L9.99014 0.624565C8.45122 0.624565 6.98238 1.19042 5.78741 2.02825L5.7427 2.0596L5.70038 2.09412C4.19173 3.32479 3.25195 5.22511 3.25195 7.17448C3.25195 8.98237 3.963 10.5616 5.10566 11.7733L5.13017 11.7993L5.1559 11.8241C5.92198 12.5627 6.3202 13.2424 6.43167 13.9409L6.44074 13.9978L6.45414 14.0537L6.72508 15.1856ZM12.0674 13.7045L11.7964 14.8364C11.7964 15.1847 11.4352 15.4459 11.0739 15.4459H8.90638C8.54513 15.4459 8.27419 15.1847 8.18387 14.8364L7.91293 13.7045C7.7323 12.5727 7.10011 11.6149 6.19697 10.7442C5.29383 9.7865 4.75195 8.56756 4.75195 7.17448C4.75195 5.69433 5.47446 4.21418 6.64854 3.25644C7.64199 2.5599 8.81607 2.12457 9.99014 2.12457C10.3514 2.12457 10.7127 2.12457 11.0739 2.21163C13.1511 2.64697 14.7768 4.30125 15.138 6.30381C15.4993 7.95809 14.9574 9.61237 13.7833 10.7442C12.8802 11.6149 12.3383 12.6597 12.0674 13.7045ZM7.61621 17.8752C7.202 17.8752 6.86621 18.211 6.86621 18.6252C6.86621 19.0395 7.202 19.3752 7.61621 19.3752H12.3854C12.7996 19.3752 13.1354 19.0395 13.1354 18.6252C13.1354 18.211 12.7996 17.8752 12.3854 17.8752H7.61621Z" fill="#5A8AEA"/>
</svg>
