<svg width="20" height="20" viewBox="0 0 20 20" fill="none" xmlns="http://www.w3.org/2000/svg">
<path fill-rule="evenodd" clip-rule="evenodd" d="M17.5 10C17.5 14.1421 14.1421 17.5 10 17.5C5.85786 17.5 2.5 14.1421 2.5 10C2.5 5.85786 5.85786 2.5 10 2.5C14.1421 2.5 17.5 5.85786 17.5 10ZM19 10C19 14.9706 14.9706 19 10 19C5.02944 19 1 14.9706 1 10C1 5.02944 5.02944 1 10 1C14.9706 1 19 5.02944 19 10ZM10.75 6.5C10.75 6.08579 10.4142 5.75 10 5.75C9.58579 5.75 9.25 6.08579 9.25 6.5V10C9.25 10.4142 9.58579 10.75 10 10.75C10.4142 10.75 10.75 10.4142 10.75 10V6.5ZM10.75 13C10.75 12.5858 10.4142 12.25 10 12.25C9.58579 12.25 9.25 12.5858 9.25 13V13.5C9.25 13.9142 9.58579 14.25 10 14.25C10.4142 14.25 10.75 13.9142 10.75 13.5V13Z" fill="#1F1F1F" fill-opacity="0.75"/>
</svg>
