<svg width="24" height="25" viewBox="0 0 24 25" fill="none" xmlns="http://www.w3.org/2000/svg">
<path fill-rule="evenodd" clip-rule="evenodd" d="M5.99854 12.75C5.99854 9.43549 8.68549 6.74854 12 6.74854C12.8934 6.74854 13.7398 6.9434 14.5004 7.29247C14.7514 7.40766 15.0482 7.29758 15.1634 7.04661C15.2786 6.79564 15.1685 6.49881 14.9175 6.38363C14.0288 5.97571 13.0402 5.74854 12 5.74854C8.13321 5.74854 4.99854 8.88321 4.99854 12.75C4.99854 16.6168 8.13321 19.7515 12 19.7515C15.8668 19.7515 19.0015 16.6168 19.0015 12.75C19.0015 12.4739 18.7776 12.25 18.5015 12.25C18.2254 12.25 18.0015 12.4739 18.0015 12.75C18.0015 16.0645 15.3145 18.7515 12 18.7515C8.68549 18.7515 5.99854 16.0645 5.99854 12.75ZM18.5846 7.95646C18.7799 7.76119 18.7799 7.44461 18.5846 7.24935C18.3893 7.05409 18.0727 7.05409 17.8775 7.24935L12.0005 13.1264L10.4577 11.5837C10.2625 11.3884 9.94589 11.3884 9.75063 11.5837C9.55537 11.7789 9.55537 12.0955 9.75063 12.2908L11.6469 14.187C11.8422 14.3823 12.1587 14.3823 12.354 14.187L18.5846 7.95646Z" fill="#1F1F1F"/>
</svg>
