<svg width="24" height="24" viewBox="0 0 24 24" fill="none" xmlns="http://www.w3.org/2000/svg">
<path fill-rule="evenodd" clip-rule="evenodd" d="M14.421 5.24544C14.3899 5.26845 14.3602 5.29324 14.3319 5.3197L13.5561 6.04708C12.644 6.76773 11.4467 7.20535 10.1721 7.27969H7.52831C6.64038 7.27969 5.92073 7.69567 5.37304 8.25827C4.73049 8.84139 4.41602 9.66696 4.41602 10.5576C4.41602 12.2685 5.70929 13.6927 7.28763 13.8254V17.3913C7.28763 18.2959 7.99502 19.0747 8.85367 19.0747C9.71466 19.0747 10.4197 18.3685 10.4197 17.3913V13.8407C11.5922 13.8922 12.6847 14.3215 13.5333 15.1225C13.5468 15.1353 13.5607 15.1477 13.5749 15.1596L14.3404 15.8055C14.37 15.8305 14.4011 15.8538 14.4335 15.8753C15.5348 16.6037 17.0465 15.8362 17.0465 14.43V6.68513C17.0465 5.98805 16.6657 5.41442 16.139 5.12623L15.6608 6.0002L16.139 5.12623C15.6258 4.84537 14.9734 4.83662 14.421 5.24544ZM14.2326 6.78351L15.0159 6.04924C15.2299 5.89081 15.4596 5.89438 15.659 6.00348C15.8758 6.12211 16.0465 6.36559 16.0465 6.68513V14.43C16.0465 15.0376 15.423 15.3308 14.9852 15.0412L14.2197 14.3954C13.1109 13.3485 11.6732 12.8355 10.179 12.8355C9.75967 12.8355 9.41971 13.1754 9.41971 13.5948V17.3913C9.41971 17.857 9.12247 18.0747 8.85367 18.0747C8.60965 18.0747 8.28763 17.8081 8.28763 17.3913V13.5948C8.28763 13.1754 7.94767 12.8355 7.52831 12.8355C6.43545 12.8355 5.41602 11.8436 5.41602 10.5576C5.41602 9.90207 5.64385 9.36081 6.04895 8.99528C6.06148 8.98397 6.07363 8.97225 6.08538 8.96013C6.50068 8.53186 6.97818 8.27969 7.52831 8.27969H10.179C10.1935 8.27969 10.208 8.27927 10.2225 8.27844C11.6888 8.19443 13.094 7.69004 14.1852 6.82443C14.2016 6.81145 14.2174 6.79779 14.2326 6.78351ZM19.5838 8.96286C19.5838 8.68671 19.3599 8.46286 19.0838 8.46286C18.8076 8.46286 18.5838 8.68671 18.5838 8.96286V12.0001C18.5838 12.2763 18.8076 12.5001 19.0838 12.5001C19.3599 12.5001 19.5838 12.2763 19.5838 12.0001V8.96286Z" fill="#1F1F1F"/>
</svg>
