<svg width="30" height="24" viewBox="0 0 30 24" fill="none" xmlns="http://www.w3.org/2000/svg">
<rect width="30" height="24" rx="12" fill="#61C177" fill-opacity="0.15"/>
<path fill-rule="evenodd" clip-rule="evenodd" d="M8.99854 12C8.99854 8.68549 11.6855 5.99854 15 5.99854C15.8934 5.99854 16.7398 6.1934 17.5004 6.54247C17.7514 6.65766 18.0482 6.54758 18.1634 6.29661C18.2786 6.04564 18.1685 5.74881 17.9175 5.63363C17.0288 5.22571 16.0402 4.99854 15 4.99854C11.1332 4.99854 7.99854 8.13321 7.99854 12C7.99854 15.8668 11.1332 19.0015 15 19.0015C18.8668 19.0015 22.0015 15.8668 22.0015 12C22.0015 11.7239 21.7776 11.5 21.5015 11.5C21.2254 11.5 21.0015 11.7239 21.0015 12C21.0015 15.3145 18.3145 18.0015 15 18.0015C11.6855 18.0015 8.99854 15.3145 8.99854 12ZM21.5846 7.20646C21.7799 7.01119 21.7799 6.69461 21.5846 6.49935C21.3893 6.30409 21.0727 6.30409 20.8775 6.49935L15.0005 12.3764L13.4577 10.8337C13.2625 10.6384 12.9459 10.6384 12.7506 10.8337C12.5554 11.0289 12.5554 11.3455 12.7506 11.5408L14.6469 13.437C14.8422 13.6323 15.1587 13.6323 15.354 13.437L21.5846 7.20646Z" fill="#61C177"/>
<rect x="0.5" y="0.5" width="29" height="23" rx="11.5" stroke="#61C177" stroke-opacity="0.2"/>
</svg>
