<svg width="20" height="20" viewBox="0 0 20 20" fill="none" xmlns="http://www.w3.org/2000/svg">
<path fill-rule="evenodd" clip-rule="evenodd" d="M4.4823 10.0001C4.4823 6.95276 6.95263 4.48242 9.99995 4.48242C10.8218 4.48242 11.5998 4.66162 12.2986 4.98237C12.6751 5.15515 13.1203 4.99004 13.2931 4.61358C13.4659 4.23712 13.3008 3.79188 12.9243 3.6191C12.0331 3.21008 11.0421 2.98242 9.99995 2.98242C6.12421 2.98242 2.9823 6.12433 2.9823 10.0001C2.9823 13.8758 6.12421 17.0177 9.99995 17.0177C13.8757 17.0177 17.0176 13.8758 17.0176 10.0001C17.0176 9.58586 16.6818 9.25007 16.2676 9.25007C15.8534 9.25007 15.5176 9.58586 15.5176 10.0001C15.5176 13.0474 13.0473 15.5177 9.99995 15.5177C6.95263 15.5177 4.4823 13.0474 4.4823 10.0001ZM16.5371 5.57107C16.83 5.27818 16.83 4.80331 16.5371 4.51041C16.2442 4.21752 15.7693 4.21752 15.4764 4.51041L10.0003 9.98658L8.70253 8.68884C8.40964 8.39595 7.93476 8.39595 7.64187 8.68884C7.34898 8.98174 7.34898 9.45661 7.64187 9.7495L9.46993 11.5776C9.61058 11.7182 9.80135 11.7972 10.0003 11.7972C10.1992 11.7972 10.3899 11.7182 10.5306 11.5776L16.5371 5.57107Z" fill="#61C177"/>
</svg>
