<svg width="25" height="25" viewBox="0 0 25 25" fill="none" xmlns="http://www.w3.org/2000/svg">
<path fill-rule="evenodd" clip-rule="evenodd" d="M14.0155 5.34741C13.342 4.18074 11.658 4.18075 10.9845 5.34741L3.73585 17.9024C3.06227 19.069 3.90424 20.5274 5.25139 20.5274H19.7486C21.0958 20.5274 21.9377 19.069 21.2641 17.9024L14.0155 5.34741ZM12.2835 6.09741C12.3797 5.93075 12.6203 5.93075 12.7165 6.09741L19.9651 18.6524C20.0613 18.819 19.941 19.0274 19.7486 19.0274H5.25139C5.05894 19.0274 4.93866 18.819 5.03488 18.6524L12.2835 6.09741ZM13.25 10.3501C13.25 9.93591 12.9142 9.60012 12.5 9.60012C12.0858 9.60012 11.75 9.93591 11.75 10.3501V13.6497C11.75 14.0639 12.0858 14.3997 12.5 14.3997C12.9142 14.3997 13.25 14.0639 13.25 13.6497V10.3501ZM13.25 16.4778C13.25 16.0636 12.9142 15.7278 12.5 15.7278C12.0858 15.7278 11.75 16.0636 11.75 16.4778V16.9492C11.75 17.3634 12.0858 17.6992 12.5 17.6992C12.9142 17.6992 13.25 17.3634 13.25 16.9492V16.4778Z" fill="#D3594F"/>
</svg>
