<svg width="25" height="25" viewBox="0 0 25 25" fill="none" xmlns="http://www.w3.org/2000/svg">
<path fill-rule="evenodd" clip-rule="evenodd" d="M15.725 9.3499C15.725 10.0126 15.1877 10.5499 14.525 10.5499C13.8623 10.5499 13.325 10.0126 13.325 9.3499C13.325 8.68716 13.8623 8.1499 14.525 8.1499C15.1877 8.1499 15.725 8.68716 15.725 9.3499ZM17.1195 10.0999C16.7945 11.2262 15.7559 12.0499 14.525 12.0499C13.0338 12.0499 11.825 10.8411 11.825 9.3499C11.825 7.85873 13.0338 6.6499 14.525 6.6499C15.7559 6.6499 16.7945 7.47362 17.1195 8.5999H17.225L19.925 8.5999C20.3392 8.5999 20.675 8.93569 20.675 9.3499C20.675 9.76412 20.3392 10.0999 19.925 10.0999L17.225 10.0999H17.1195ZM10.325 15.6499C10.325 16.3126 9.78774 16.8499 9.125 16.8499C8.46226 16.8499 7.925 16.3126 7.925 15.6499C7.925 14.9872 8.46226 14.4499 9.125 14.4499C9.78774 14.4499 10.325 14.9872 10.325 15.6499ZM11.825 15.6499C11.825 17.1411 10.6162 18.3499 9.125 18.3499C7.89408 18.3499 6.85554 17.5262 6.53053 16.3999H4.175C3.76079 16.3999 3.425 16.0641 3.425 15.6499C3.425 15.2357 3.76079 14.8999 4.175 14.8999H6.53053C6.85554 13.7736 7.89408 12.9499 9.125 12.9499C10.6162 12.9499 11.825 14.1587 11.825 15.6499ZM3.425 9.3499C3.425 8.93569 3.76079 8.5999 4.175 8.5999H10.025C10.4392 8.5999 10.775 8.93569 10.775 9.3499C10.775 9.76412 10.4392 10.0999 10.025 10.0999H4.175C3.76079 10.0999 3.425 9.76412 3.425 9.3499ZM13.625 14.8999C13.2108 14.8999 12.875 15.2357 12.875 15.6499C12.875 16.0641 13.2108 16.3999 13.625 16.3999L20.825 16.3999C21.2392 16.3999 21.575 16.0641 21.575 15.6499C21.575 15.2357 21.2392 14.8999 20.825 14.8999L13.625 14.8999Z" fill="#8A8BA0"/>
</svg>
