<svg width="24" height="25" viewBox="0 0 24 25" fill="none" xmlns="http://www.w3.org/2000/svg">
<path fill-rule="evenodd" clip-rule="evenodd" d="M9 4C8.72386 4 8.5 4.22386 8.5 4.5C8.5 4.77614 8.72386 5 9 5H11.5V6.51758C7.86736 6.77396 5 9.80212 5 13.5C5 17.366 8.13401 20.5 12 20.5C15.866 20.5 19 17.366 19 13.5C19 9.80212 16.1326 6.77396 12.5 6.51758V5H15C15.2761 5 15.5 4.77614 15.5 4.5C15.5 4.22386 15.2761 4 15 4H12H9ZM12 7.5C8.68629 7.5 6 10.1863 6 13.5C6 16.8137 8.68629 19.5 12 19.5C15.3137 19.5 18 16.8137 18 13.5C18 10.1863 15.3137 7.5 12 7.5ZM12 9.25C12.2761 9.25 12.5 9.47386 12.5 9.75V13.2929L15.1035 15.8964C15.2988 16.0917 15.2988 16.4083 15.1035 16.6036C14.9083 16.7988 14.5917 16.7988 14.3964 16.6036L11.6464 13.8536L11.5 13.7071V13.5V9.75C11.5 9.47386 11.7239 9.25 12 9.25Z" fill="#1F1F1F"/>
</svg>
