<svg width="24" height="24" viewBox="0 0 24 24" fill="none" xmlns="http://www.w3.org/2000/svg">
<path fill-rule="evenodd" clip-rule="evenodd" d="M14.4211 5.24544C14.39 5.26845 14.3603 5.29324 14.3321 5.3197L13.5562 6.04708C12.6441 6.76773 11.4468 7.20535 10.1722 7.27969H7.52843C6.64051 7.27969 5.92085 7.69567 5.37316 8.25827C4.73062 8.84139 4.41614 9.66696 4.41614 10.5576C4.41614 12.2685 5.70941 13.6927 7.28775 13.8254V17.3913C7.28775 18.2959 7.99514 19.0747 8.85379 19.0747C9.71478 19.0747 10.4198 18.3685 10.4198 17.3913V13.8407C11.5923 13.8922 12.6849 14.3215 13.5334 15.1225C13.5469 15.1353 13.5608 15.1477 13.575 15.1596L14.3405 15.8055C14.3702 15.8305 14.4013 15.8538 14.4337 15.8753C15.5349 16.6037 17.0466 15.8362 17.0466 14.43V6.68513C17.0466 5.98805 16.6658 5.41442 16.1391 5.12623L15.6609 6.0002L16.1391 5.12623C15.6259 4.84537 14.9735 4.83662 14.4211 5.24544ZM14.2328 6.78351L15.016 6.04924C15.2301 5.89081 15.4597 5.89438 15.6591 6.00348C15.8759 6.12211 16.0466 6.36559 16.0466 6.68513V14.43C16.0466 15.0376 15.4231 15.3308 14.9853 15.0412L14.2199 14.3954C13.111 13.3485 11.6733 12.8355 10.1792 12.8355C9.75979 12.8355 9.41983 13.1754 9.41983 13.5948V17.3913C9.41983 17.857 9.12259 18.0747 8.85379 18.0747C8.60978 18.0747 8.28775 17.8081 8.28775 17.3913V13.5948C8.28775 13.1754 7.94779 12.8355 7.52843 12.8355C6.43557 12.8355 5.41614 11.8436 5.41614 10.5576C5.41614 9.90207 5.64397 9.36081 6.04907 8.99528C6.0616 8.98397 6.07375 8.97225 6.0855 8.96013C6.5008 8.53186 6.9783 8.27969 7.52843 8.27969H10.1792C10.1936 8.27969 10.2081 8.27927 10.2226 8.27844C11.689 8.19443 13.0941 7.69004 14.1853 6.82443C14.2017 6.81145 14.2175 6.79779 14.2328 6.78351ZM19.5839 8.96286C19.5839 8.68671 19.36 8.46286 19.0839 8.46286C18.8078 8.46286 18.5839 8.68671 18.5839 8.96286V12.0001C18.5839 12.2763 18.8078 12.5001 19.0839 12.5001C19.36 12.5001 19.5839 12.2763 19.5839 12.0001V8.96286Z" fill="#5A65EA"/>
</svg>
