<svg width="30" height="24" viewBox="0 0 30 24" fill="none" xmlns="http://www.w3.org/2000/svg">
<rect width="30" height="24" rx="12" fill="#5A65EA" fill-opacity="0.15"/>
<path fill-rule="evenodd" clip-rule="evenodd" d="M12 3.75C11.7239 3.75 11.5 3.97386 11.5 4.25C11.5 4.52614 11.7239 4.75 12 4.75H14.5V6.26758C10.8674 6.52396 8 9.55212 8 13.25C8 17.116 11.134 20.25 15 20.25C18.866 20.25 22 17.116 22 13.25C22 9.55212 19.1326 6.52396 15.5 6.26758V4.75H18C18.2761 4.75 18.5 4.52614 18.5 4.25C18.5 3.97386 18.2761 3.75 18 3.75H15H12ZM15 7.25C11.6863 7.25 9 9.93629 9 13.25C9 16.5637 11.6863 19.25 15 19.25C18.3137 19.25 21 16.5637 21 13.25C21 9.93629 18.3137 7.25 15 7.25ZM15 9C15.2761 9 15.5 9.22386 15.5 9.5V13.0429L18.1035 15.6464C18.2988 15.8417 18.2988 16.1583 18.1035 16.3536C17.9083 16.5488 17.5917 16.5488 17.3964 16.3536L14.6464 13.6036L14.5 13.4571V13.25V9.5C14.5 9.22386 14.7239 9 15 9Z" fill="#5A65EA"/>
<rect x="0.5" y="0.5" width="29" height="23" rx="11.5" stroke="#5A65EA" stroke-opacity="0.2"/>
</svg>
