<svg width="24" height="24" viewBox="0 0 24 24" fill="none" xmlns="http://www.w3.org/2000/svg">
<path fill-rule="evenodd" clip-rule="evenodd" d="M19 12C19 15.866 15.866 19 12 19C8.13401 19 5 15.866 5 12C5 8.13401 8.13401 5 12 5C15.866 5 19 8.13401 19 12ZM20 12C20 16.4183 16.4183 20 12 20C7.58172 20 4 16.4183 4 12C4 7.58172 7.58172 4 12 4C16.4183 4 20 7.58172 20 12ZM12.5 8C12.5 7.72386 12.2761 7.5 12 7.5C11.7239 7.5 11.5 7.72386 11.5 8V12V12.5H12H16C16.2761 12.5 16.5 12.2761 16.5 12C16.5 11.7239 16.2761 11.5 16 11.5H12.5V8Z" fill="black"/>
</svg>
