<svg width="24" height="24" viewBox="0 0 24 24" fill="none" xmlns="http://www.w3.org/2000/svg">
<path fill-rule="evenodd" clip-rule="evenodd" d="M12.6012 5.12747L18.1418 7.55146C19.3401 8.07574 19.3401 9.77564 18.1418 10.2999L12.6012 12.7239C12.2179 12.8916 11.7821 12.8916 11.3988 12.7239L5.85824 10.2999C4.65988 9.77565 4.65987 8.07574 5.85824 7.55146L11.3988 5.12747L11.7996 6.04363L6.25905 8.46762C5.8596 8.64238 5.8596 9.20901 6.25906 9.38377L11.7996 11.8078C11.9274 11.8637 12.0727 11.8637 12.2004 11.8078L17.741 9.38377C18.1404 9.20901 18.1404 8.64238 17.7409 8.46762L12.2004 6.04363L12.6012 5.12747ZM12.2004 6.04363C12.0727 5.98774 11.9274 5.98774 11.7996 6.04363L11.3988 5.12747C11.7821 4.95979 12.2179 4.95979 12.6012 5.12747L12.2004 6.04363ZM4.96807 12.6373C5.07876 12.3843 5.37357 12.269 5.62656 12.3796L11.7996 15.0803C11.9274 15.1362 12.0727 15.1362 12.2004 15.0803L18.3735 12.3796C18.6265 12.269 18.9213 12.3843 19.032 12.6373C19.1427 12.8903 19.0273 13.1851 18.7743 13.2958L12.6013 15.9965C12.218 16.1642 11.7821 16.1642 11.3988 15.9965L5.22574 13.2958C4.97275 13.1851 4.85739 12.8903 4.96807 12.6373ZM5.62656 15.2557C5.37357 15.145 5.07876 15.2604 4.96807 15.5133C4.85739 15.7663 4.97275 16.0612 5.22574 16.1718L11.3988 18.8725C11.7821 19.0402 12.218 19.0402 12.6013 18.8725L18.7743 16.1718C19.0273 16.0612 19.1427 15.7663 19.032 15.5133C18.9213 15.2604 18.6265 15.145 18.3735 15.2557L12.2004 17.9564C12.0727 18.0123 11.9274 18.0123 11.7996 17.9564L5.62656 15.2557Z" fill="#5A65EA"/>
</svg>
