<svg width="25" height="25" viewBox="0 0 25 25" fill="none" xmlns="http://www.w3.org/2000/svg">
<path fill-rule="evenodd" clip-rule="evenodd" d="M9.22469 17.6856L9.22797 17.6993L9.2315 17.7129C9.45307 18.5674 10.213 19.4459 11.406 19.4459H13.5735C14.0987 19.4459 14.6101 19.2621 15.0097 18.9411C15.371 18.6509 15.7124 18.1813 15.7828 17.5686L16.0223 16.5683C16.233 15.764 16.6461 14.9777 17.324 14.3241C18.8544 12.8487 19.5731 10.6809 19.1089 8.51054C18.627 5.90467 16.5365 3.80863 13.9018 3.24787C13.3725 3.12383 12.8663 3.12426 12.5348 3.12454L12.4897 3.12457C10.9508 3.12457 9.48199 3.69042 8.28702 4.52825L8.2423 4.5596L8.19999 4.59412C6.69133 5.82479 5.75156 7.72511 5.75156 9.67448C5.75156 11.4824 6.46261 13.0616 7.60526 14.2733L7.62977 14.2993L7.6555 14.3241C8.42159 15.0627 8.81981 15.7424 8.93128 16.4409L8.94035 16.4978L8.95375 16.5537L9.22469 17.6856ZM14.567 16.2045L14.296 17.3364C14.296 17.6847 13.9348 17.9459 13.5735 17.9459H11.406C11.0447 17.9459 10.7738 17.6847 10.6835 17.3364L10.4125 16.2045C10.2319 15.0727 9.59971 14.1149 8.69657 13.2442C7.79344 12.2865 7.25156 11.0676 7.25156 9.67448C7.25156 8.19433 7.97407 6.71418 9.14814 5.75644C10.1416 5.0599 11.3157 4.62457 12.4897 4.62457C12.851 4.62457 13.2123 4.62457 13.5735 4.71163C15.6507 5.14697 17.2764 6.80125 17.6376 8.80381C17.9989 10.4581 17.457 12.1124 16.2829 13.2442C15.3798 14.1149 14.8379 15.1597 14.567 16.2045ZM10.1154 20.3753C9.70114 20.3753 9.36535 20.7111 9.36535 21.1253C9.36535 21.5395 9.70114 21.8753 10.1154 21.8753H14.8845C15.2987 21.8753 15.6345 21.5395 15.6345 21.1253C15.6345 20.7111 15.2987 20.3753 14.8845 20.3753H10.1154Z" fill="#5A8AEA"/>
</svg>
