<svg width="24" height="24" viewBox="0 0 24 24" fill="none" xmlns="http://www.w3.org/2000/svg">
<path fill-rule="evenodd" clip-rule="evenodd" d="M12.6747 19.6056C12.3618 19.9365 12.1335 20 12 20C11.8665 20 11.6382 19.9365 11.3253 19.6056C11.0104 19.2727 10.6807 18.7372 10.3829 17.9926C10.0476 17.1542 9.77738 16.1133 9.60578 14.9351C10.3602 14.8477 11.1634 14.8 12.0001 14.8C12.8366 14.8 13.6399 14.8477 14.3942 14.9351C14.2226 16.1133 13.9524 17.1542 13.6171 17.9926C13.3193 18.7372 12.9896 19.2727 12.6747 19.6056ZM14.5119 13.9421C13.7147 13.8496 12.8719 13.8 12.0001 13.8C11.1282 13.8 10.2853 13.8496 9.48807 13.9421C9.43073 13.3216 9.4 12.6715 9.4 12C9.4 11.3285 9.43073 10.6784 9.48807 10.0579C10.2853 10.1504 11.1282 10.2 12.0001 10.2C12.8719 10.2 13.7147 10.1504 14.5119 10.0579C14.5693 10.6784 14.6 11.3285 14.6 12C14.6 12.6715 14.5693 13.3216 14.5119 13.9421ZM15.3841 15.077C15.0931 17.0767 14.5266 18.7456 13.7994 19.7968C15.9212 19.3091 17.7207 17.9776 18.8259 16.1744C18.5852 16.0406 18.3076 15.9089 17.9926 15.7829C17.2624 15.4908 16.3785 15.2482 15.3841 15.077ZM19.2941 15.2906C18.3359 14.7614 17.0267 14.3406 15.5031 14.0829C15.5665 13.4143 15.6 12.717 15.6 12C15.6 11.283 15.5665 10.5857 15.5031 9.91712C17.0267 9.65936 18.3359 9.23855 19.2941 8.70938C19.7476 9.71305 20 10.827 20 12C20 13.173 19.7476 14.2869 19.2941 15.2906ZM19.6404 16.7588C19.6404 16.7588 19.6404 16.7588 19.6405 16.7588C19.8214 16.4689 19.9863 16.1679 20.134 15.8571C20.134 15.8571 20.1339 15.8571 20.1339 15.8571C20.6893 14.6881 21 13.3803 21 12C21 10.6197 20.6893 9.31193 20.1339 8.14289C20.1339 8.14288 20.134 8.14287 20.134 8.14286C19.9863 7.83208 19.8214 7.53112 19.6405 7.24119C19.6404 7.24121 19.6404 7.24122 19.6404 7.24123C19.0334 6.26872 18.2459 5.42049 17.3248 4.74344C17.3248 4.74345 17.3248 4.74346 17.3249 4.74347C15.8338 3.64747 13.9925 3 12.0001 3C12 3 12 3 12 3C7.02944 3 3 7.02944 3 12C3 16.3492 6.08504 19.9779 10.1862 20.8172C10.7721 20.937 11.3787 21 12 21C12 21 12 21 12.0001 21C12.1554 21 12.3098 20.9961 12.4631 20.9883C13.0025 20.9609 13.5293 20.8861 14.0395 20.7679C15.2455 20.4885 16.3587 19.9667 17.3249 19.2565C17.3248 19.2565 17.3248 19.2565 17.3248 19.2566C18.2459 18.5795 19.0334 17.7313 19.6404 16.7588ZM18.8259 7.82556C17.7207 6.02239 15.9212 4.69087 13.7994 4.20317C14.5266 5.25441 15.0931 6.92331 15.3841 8.92297C16.3785 8.75184 17.2624 8.50919 17.9926 8.21711C18.3076 8.09111 18.5852 7.95941 18.8259 7.82556ZM14.3942 9.06488C14.2226 7.88669 13.9524 6.84576 13.6171 6.00743C13.3193 5.26282 12.9896 4.72734 12.6747 4.39437C12.3618 4.06352 12.1335 4 12 4C11.8665 4 11.6382 4.06352 11.3253 4.39437C11.0104 4.72734 10.6807 5.26282 10.3829 6.00743C10.0476 6.84576 9.77738 7.88668 9.60578 9.06486C10.3602 9.15231 11.1634 9.2 12.0001 9.2C12.8366 9.2 13.6399 9.15231 14.3942 9.06488ZM8.6159 8.92295C8.90688 6.9233 9.47337 5.25441 10.2006 4.20318C8.07882 4.69086 6.27929 6.02237 5.17418 7.8255C5.41485 7.95938 5.69245 8.09109 6.00749 8.21711C6.73766 8.50917 7.62152 8.75182 8.6159 8.92295ZM4.70596 8.70932C4.25244 9.71301 4 10.827 4 12C4 13.173 4.25244 14.287 4.70596 15.2907C5.66407 14.7615 6.97329 14.3407 8.4969 14.0829C8.43354 13.4144 8.4 12.717 8.4 12C8.4 11.283 8.43354 10.5856 8.4969 9.9171C6.97329 9.65933 5.66407 9.23851 4.70596 8.70932ZM8.6159 15.077C7.62152 15.2482 6.73766 15.4908 6.0075 15.7829C5.69245 15.9089 5.41485 16.0406 5.17418 16.1745C6.27929 17.9776 8.07882 19.3091 10.2006 19.7968C9.47337 18.7456 8.90688 17.0767 8.6159 15.077Z" fill="#1F1F1F" fill-opacity="0.6"/>
</svg>
