<svg width="30" height="24" viewBox="0 0 30 24" fill="none" xmlns="http://www.w3.org/2000/svg">
<rect width="30" height="24" rx="12" fill="#1F1F1F" fill-opacity="0.1"/>
<path fill-rule="evenodd" clip-rule="evenodd" d="M17.421 5.24544C17.3899 5.26845 17.3602 5.29324 17.3319 5.3197L16.5561 6.04708C15.644 6.76773 14.4467 7.20535 13.1721 7.27969H10.5283C9.64038 7.27969 8.92073 7.69567 8.37304 8.25827C7.73049 8.84139 7.41602 9.66696 7.41602 10.5576C7.41602 12.2685 8.70929 13.6927 10.2876 13.8254V17.3913C10.2876 18.2959 10.995 19.0747 11.8537 19.0747C12.7147 19.0747 13.4197 18.3685 13.4197 17.3913V13.8407C14.5922 13.8922 15.6847 14.3215 16.5333 15.1225C16.5468 15.1353 16.5607 15.1477 16.5749 15.1596L17.3404 15.8055C17.37 15.8305 17.4011 15.8538 17.4335 15.8753C18.5348 16.6037 20.0465 15.8362 20.0465 14.43V6.68513C20.0465 5.98805 19.6657 5.41442 19.139 5.12623L18.6608 6.0002L19.139 5.12623C18.6258 4.84537 17.9734 4.83662 17.421 5.24544ZM17.2326 6.78351L18.0159 6.04924C18.2299 5.89081 18.4596 5.89438 18.659 6.00348C18.8758 6.12211 19.0465 6.36559 19.0465 6.68513V14.43C19.0465 15.0376 18.423 15.3308 17.9852 15.0412L17.2197 14.3954C16.1109 13.3485 14.6732 12.8355 13.179 12.8355C12.7597 12.8355 12.4197 13.1754 12.4197 13.5948V17.3913C12.4197 17.857 12.1225 18.0747 11.8537 18.0747C11.6097 18.0747 11.2876 17.8081 11.2876 17.3913V13.5948C11.2876 13.1754 10.9477 12.8355 10.5283 12.8355C9.43545 12.8355 8.41602 11.8436 8.41602 10.5576C8.41602 9.90207 8.64385 9.36081 9.04895 8.99528C9.06148 8.98397 9.07363 8.97225 9.08538 8.96013C9.50068 8.53186 9.97818 8.27969 10.5283 8.27969H13.179C13.1935 8.27969 13.208 8.27927 13.2225 8.27844C14.6888 8.19443 16.094 7.69004 17.1852 6.82443C17.2016 6.81145 17.2174 6.79779 17.2326 6.78351ZM22.5838 8.96286C22.5838 8.68671 22.3599 8.46286 22.0838 8.46286C21.8076 8.46286 21.5838 8.68671 21.5838 8.96286V12.0001C21.5838 12.2763 21.8076 12.5001 22.0838 12.5001C22.3599 12.5001 22.5838 12.2763 22.5838 12.0001V8.96286Z" fill="#1F1F1F"/>
<rect x="0.5" y="0.5" width="29" height="23" rx="11.5" stroke="#1F1F1F" stroke-opacity="0.15"/>
</svg>
