<svg width="48" height="48" viewBox="0 0 48 48" fill="none" xmlns="http://www.w3.org/2000/svg">
<path d="M35.2821 24.5839L14.1747 28.025C14.1468 28.0295 14.1186 28.0323 14.0904 28.0334C14.0616 28.0344 14.0328 28.0336 14.0041 28.0309C13.9746 28.0282 13.9453 28.0237 13.9163 28.0174C13.8861 28.0109 13.8562 28.0027 13.8269 27.9928C13.516 27.8828 13.2267 27.7178 12.9726 27.5056C12.6854 27.2669 12.4297 26.9918 12.2117 26.6871C11.9654 26.3445 11.7531 25.9779 11.5779 25.5929C11.3833 25.1671 11.2243 24.7255 11.1027 24.2726C10.9083 23.5562 10.6659 22.6631 10.4003 21.6836C10.1346 20.7041 9.84738 19.6467 9.56038 18.5892L8.72929 15.5274L8.04665 13.0133C7.80953 12.1328 7.52114 11.2674 7.18299 10.4215C6.87813 9.65617 6.52131 8.91316 6.1151 8.19784C5.75625 7.56372 5.34459 6.96185 4.88462 6.39882C4.45373 5.87782 4.00147 5.43286 3.5332 5.071L24.4252 4.80225C24.9434 5.13182 25.4239 5.51879 25.8577 5.95603C26.3334 6.43522 26.7638 6.95851 27.1432 7.51905C27.5589 8.13062 27.9255 8.77504 28.2394 9.44609C28.5802 10.1731 28.8693 10.9238 29.1047 11.6925C29.2891 12.2912 29.5206 13.0409 29.7756 13.8683C30.0305 14.6956 30.3114 15.6056 30.5922 16.516C30.8731 17.4265 31.1566 18.3457 31.4164 19.1882C31.6761 20.0307 31.9145 20.8032 32.1049 21.4208C32.2251 21.8142 32.3845 22.1943 32.5804 22.5551C32.7613 22.8895 32.979 23.2022 33.2294 23.4869C33.4609 23.7509 33.7264 23.982 34.0188 24.1741C34.294 24.3548 34.5966 24.4885 34.9145 24.5698C34.9455 24.5776 34.9769 24.5838 35.0085 24.5882C35.0393 24.5928 35.0703 24.5958 35.1014 24.5972C35.1321 24.5972 35.1625 24.5972 35.1924 24.5972C35.2223 24.5972 35.2525 24.5888 35.2821 24.5839Z" fill="url(#paint0_linear_2445_11877)"/>
<path d="M5.16432 5.71684C4.77908 5.71251 4.40959 5.47325 4.5404 5.3631C4.7166 5.21667 5.4166 5.42967 5.38216 5.61913C5.37149 5.67813 5.29006 5.71467 5.16432 5.71684ZM6.30456 5.69762C5.92465 5.69329 5.55543 5.45403 5.68251 5.34577C5.85364 5.19989 6.5483 5.41127 6.5176 5.60018C6.50826 5.65865 6.42843 5.69491 6.30402 5.69708L6.30456 5.69762ZM7.42878 5.67867C7.05502 5.67434 6.68499 5.43725 6.80807 5.33008C6.97412 5.18501 7.66238 5.39503 7.63568 5.58259C7.62741 5.64051 7.54945 5.67651 7.42744 5.67867H7.42878ZM4.63758 6.11172L25.5971 5.70736C25.5029 5.62057 25.4078 5.53649 25.3117 5.45512C25.2156 5.37374 25.1191 5.29543 25.0223 5.22019C24.9246 5.14495 24.826 5.07278 24.7265 5.00367C24.627 4.93456 24.5269 4.86807 24.4261 4.8042L3.53418 5.07296C3.62904 5.14513 3.72302 5.22154 3.8161 5.3022C3.90919 5.38285 4.00192 5.46612 4.09429 5.55201C4.18666 5.63898 4.27814 5.7292 4.36874 5.82266C4.45933 5.91613 4.54903 6.01248 4.63784 6.11172H4.63758Z" fill="#A6A6A6"/>
<path d="M26.4173 17.6544L12.4653 19.1029C12.4707 19.1221 12.476 19.141 12.4811 19.16C12.4862 19.1789 12.4918 19.1981 12.4968 19.2171C12.5019 19.236 12.5075 19.255 12.5126 19.2742C12.5177 19.2934 12.523 19.3121 12.5283 19.331L26.4795 17.8611C26.4745 17.8438 26.4694 17.8265 26.4641 17.8094C26.4587 17.7924 26.4536 17.7748 26.4486 17.7575C26.4435 17.7401 26.4382 17.7231 26.4331 17.7058C26.428 17.6885 26.4227 17.6711 26.4173 17.6538V17.6544Z" fill="#E6E6E6"/>
<path d="M26.6342 18.3755L22.6296 18.8123C22.6347 18.8299 22.6398 18.8475 22.6451 18.8665L22.6603 18.919C22.6657 18.9366 22.6708 18.9542 22.6758 18.9715C22.6809 18.9888 22.6862 19.0064 22.6913 19.024L26.6959 18.5812L26.6807 18.5301C26.6756 18.5133 26.6703 18.4962 26.6652 18.4792L26.651 18.4264C26.646 18.4093 26.6406 18.3923 26.6356 18.3752L26.6342 18.3755Z" fill="#E6E6E6"/>
<path d="M22.3687 18.8409L17.5149 19.3706C17.5202 19.3887 17.5253 19.4069 17.5304 19.4247C17.5354 19.4426 17.5408 19.4613 17.5461 19.4789L17.5613 19.533C17.5667 19.5511 17.5718 19.569 17.5768 19.5871L22.4304 19.0504C22.4253 19.0328 22.42 19.0152 22.4149 18.9979C22.4098 18.9806 22.4048 18.9627 22.3994 18.9438L22.3842 18.8913C22.3789 18.8737 22.3738 18.8561 22.3687 18.8372V18.8409Z" fill="#E6E6E6"/>
<path d="M16.9294 19.4344L12.6846 19.8975C12.6899 19.9165 12.695 19.9352 12.7003 19.9538C12.7057 19.9725 12.7107 19.9914 12.7158 20.0101C12.7209 20.0288 12.7262 20.0477 12.7313 20.0664C12.7364 20.0851 12.7417 20.1038 12.7468 20.1224L16.9916 19.6531C16.9866 19.6347 16.9815 19.6166 16.9762 19.599C16.9708 19.5814 16.966 19.5627 16.9607 19.5449C16.9553 19.527 16.9505 19.5086 16.9452 19.4907L16.9297 19.4366L16.9294 19.4344Z" fill="#E6E6E6"/>
<path d="M26.8463 19.0824L19.3889 19.9344C19.3937 19.952 19.3988 19.9696 19.4039 19.9869L19.4191 20.0394C19.4239 20.057 19.429 20.0743 19.434 20.0917C19.4391 20.109 19.4439 20.1266 19.449 20.1439L26.905 19.2808C26.8999 19.2645 26.8951 19.248 26.89 19.2315C26.885 19.215 26.8802 19.1985 26.8751 19.1817C26.87 19.1649 26.8652 19.1487 26.8602 19.1322C26.8551 19.1157 26.8503 19.0989 26.8452 19.0824H26.8463Z" fill="#E6E6E6"/>
<path d="M18.6794 20.0155L12.8994 20.6762L12.9146 20.7303C12.9194 20.7487 12.9245 20.7668 12.9296 20.7844L12.9448 20.8386C12.9496 20.8567 12.9547 20.8751 12.9598 20.8927L18.7397 20.2236L18.7248 20.1711C18.7197 20.1535 18.7146 20.1362 18.7098 20.1186L18.6946 20.0658L18.6794 20.0117V20.0155Z" fill="#E6E6E6"/>
<path d="M13.3833 16.0944L11.81 16.2281C11.7328 16.2397 11.6979 16.3093 11.7208 16.4086L11.8297 16.8035L11.9403 17.2029C11.9771 17.3368 12.0142 17.4712 12.0516 17.6062C12.089 17.7412 12.1264 17.8765 12.1637 18.0122C12.1958 18.1134 12.2681 18.1773 12.3482 18.1746L13.9212 18.0206C13.9965 18.0081 14.0296 17.9348 14.0056 17.8338C13.9682 17.6998 13.9308 17.5661 13.8934 17.4327C13.8561 17.2994 13.819 17.1666 13.7821 17.0343C13.7453 16.9021 13.7085 16.7704 13.6719 16.6394L13.5629 16.2494C13.5269 16.1371 13.4468 16.0903 13.3833 16.0938V16.0944Z" fill="#82DB67"/>
<path d="M22.7506 15.3441L13.9966 16.0911C14.0017 16.109 14.0067 16.1271 14.0115 16.1452L14.0268 16.1994L14.042 16.2535L14.0572 16.3076L22.812 15.5482L22.7968 15.497C22.7917 15.48 22.7869 15.4629 22.7819 15.4459L22.7666 15.395L22.7517 15.3441H22.7506Z" fill="#FF8880"/>
<path d="M20.2166 16.313L14.2097 16.8565C14.2148 16.8749 14.2201 16.8933 14.2252 16.9106C14.2303 16.928 14.2356 16.9477 14.2407 16.9648C14.2458 16.9818 14.2511 17.0018 14.2562 17.0205C14.2612 17.0392 14.2666 17.0576 14.2719 17.0747L20.2788 16.5228C20.2737 16.5049 20.2684 16.4871 20.2633 16.4687C20.2583 16.4503 20.2529 16.4332 20.2478 16.4145C20.2428 16.3959 20.2374 16.3791 20.2324 16.3604C20.2273 16.3417 20.2219 16.3249 20.2169 16.3063L20.2166 16.313Z" fill="#61C5FF"/>
<path d="M23.18 16.8002L16.5481 17.4344C16.5534 17.4528 16.5585 17.4715 16.5638 17.4899C16.5692 17.5083 16.5745 17.5269 16.5796 17.544C16.5847 17.561 16.5903 17.5811 16.5954 17.5981C16.6004 17.6152 16.606 17.6352 16.6111 17.6539L23.2427 17.0097L23.227 16.9556C23.2219 16.938 23.2165 16.9204 23.2112 16.9015C23.2059 16.8825 23.2008 16.8663 23.1957 16.8473C23.1906 16.8284 23.1853 16.8121 23.18 16.7946V16.8002Z" fill="#61C5FF"/>
<path d="M15.9596 17.4907L14.428 17.6371C14.4333 17.6558 14.4387 17.6748 14.4437 17.6934C14.4488 17.7121 14.4544 17.7311 14.4595 17.7497L14.4755 17.806C14.4806 17.825 14.4859 17.8437 14.4913 17.8626L16.0229 17.7137C16.0175 17.6951 16.0122 17.6767 16.0071 17.658C16.002 17.6393 15.9964 17.6206 15.9914 17.6022L15.9754 17.5465C15.9703 17.5278 15.9649 17.5094 15.9596 17.4907Z" fill="#61C5FF"/>
<path d="M24.7435 12.089L10.7742 12.98C10.7776 12.9927 10.7811 13.007 10.7848 13.0187C10.7886 13.0303 10.7921 13.0457 10.7958 13.0579C10.7995 13.0701 10.803 13.085 10.8065 13.0977L10.8177 13.1375L24.7865 12.2324C24.783 12.2203 24.7793 12.2081 24.7758 12.1962C24.7724 12.1843 24.7684 12.1721 24.7649 12.1602C24.7614 12.1483 24.7577 12.1364 24.7542 12.1244C24.7507 12.1125 24.747 12.1006 24.7435 12.089Z" fill="#E6E6E6"/>
<path d="M12.1449 13.4711L10.9326 13.5523L10.9446 13.5956L10.9566 13.6392C10.9606 13.6535 10.9647 13.6682 10.9689 13.683L10.9809 13.7272L12.193 13.6438L12.181 13.6002C12.177 13.5856 12.173 13.571 12.1687 13.5566L12.1567 13.5133C12.1527 13.499 12.1489 13.4847 12.1449 13.4706V13.4711Z" fill="#E6E6E6"/>
<path d="M17.5095 13.1091L12.437 13.4512L12.449 13.4943L12.461 13.5373C12.465 13.5516 12.469 13.5663 12.4733 13.5809L12.4853 13.6245L17.5578 13.2764C17.5538 13.2623 17.5495 13.2493 17.5455 13.2342L17.5335 13.1922L17.5215 13.1505L17.5095 13.1091Z" fill="#E6E6E6"/>
<path d="M24.9006 12.6103L18.0779 13.0704L18.0899 13.1115L18.1019 13.1532L18.1139 13.1951C18.1179 13.2089 18.1219 13.2222 18.1262 13.2371L24.9484 12.7689L24.9364 12.7288L24.9244 12.689L24.9124 12.6492C24.9084 12.6362 24.9046 12.6222 24.9006 12.61V12.6103Z" fill="#E6E6E6"/>
<path d="M16.0227 13.8317L11.1072 14.1836L11.12 14.2307C11.1245 14.2464 11.1288 14.2624 11.1331 14.278L11.1464 14.3257C11.1507 14.3417 11.1552 14.3576 11.1595 14.3736L16.075 14.0147C16.0705 13.9993 16.0662 13.9839 16.0617 13.9684C16.0571 13.953 16.0528 13.9376 16.0486 13.9224C16.0443 13.9073 16.0398 13.8918 16.0355 13.8764L16.0227 13.8309V13.8317Z" fill="#E6E6E6"/>
<path d="M25.0729 13.1838L16.7417 13.7793C16.7462 13.7941 16.7505 13.8093 16.7548 13.8245L16.7679 13.8702L16.7809 13.9159C16.7855 13.9314 16.7898 13.9468 16.794 13.9619L25.1236 13.3554L25.1105 13.3118L25.0974 13.2685C25.0931 13.2542 25.0886 13.2398 25.0843 13.2255L25.0715 13.1827L25.0729 13.1838Z" fill="#E6E6E6"/>
<path d="M11.708 10.5327L10.135 10.609C10.0741 10.6153 10.0207 10.6572 10.0549 10.7563C10.0965 10.8645 10.1375 10.9742 10.1777 11.0854C10.2179 11.1965 10.2576 11.3082 10.2968 11.4205C10.3357 11.5334 10.3741 11.6472 10.4118 11.7617C10.4496 11.8763 10.4865 11.992 10.5226 12.1087C10.5539 12.1964 10.6254 12.253 10.705 12.2527L12.2788 12.1596C12.3546 12.1507 12.3885 12.0887 12.365 12.0015C12.3287 11.8865 12.2918 11.772 12.2542 11.6589C12.2166 11.5458 12.1781 11.4332 12.1389 11.3217C12.0996 11.2102 12.0588 11.1 12.0198 10.9904C11.9808 10.8808 11.9384 10.7739 11.8965 10.6656C11.8813 10.6275 11.8556 10.5947 11.8224 10.5712C11.7893 10.5477 11.75 10.5345 11.7096 10.5333L11.708 10.5327Z" fill="#FFAB63"/>
<path d="M16.4013 10.9788L12.562 11.182C12.5676 11.1977 12.5732 11.2131 12.5786 11.2288C12.5839 11.2445 12.5898 11.26 12.5951 11.2754C12.6005 11.2908 12.6061 11.3068 12.6117 11.3222C12.6173 11.3376 12.6226 11.3536 12.628 11.3693L16.4676 11.1614C16.4622 11.146 16.4566 11.1309 16.4513 11.1154L16.4347 11.07C16.4291 11.0545 16.4238 11.0394 16.4182 11.0242L16.4013 10.9788Z" fill="#61C5FF"/>
<path d="M21.3232 10.7185L16.9731 10.9486C16.9788 10.9637 16.9844 10.9789 16.9897 10.994C16.995 11.0092 17.0009 11.0241 17.0062 11.0392C17.0116 11.0544 17.0175 11.0695 17.0228 11.085L17.0394 11.1304L21.3894 10.8947L21.3731 10.8506C21.3675 10.8357 21.3622 10.8211 21.3566 10.8065C21.351 10.7919 21.3456 10.777 21.34 10.7624L21.3232 10.7185Z" fill="#61C5FF"/>
<path d="M14.2493 11.7601L12.7876 11.844C12.7927 11.86 12.798 11.876 12.8031 11.8922C12.8082 11.9084 12.8132 11.9244 12.8186 11.9404L12.8338 11.9888L12.849 12.0375L14.3107 11.952L14.2955 11.9038C14.2904 11.8879 14.2853 11.8719 14.28 11.8559L14.2648 11.808C14.2594 11.7921 14.2543 11.7761 14.2493 11.7601Z" fill="#61C5FF"/>
<path d="M18.7545 11.5022L14.6965 11.7344C14.7019 11.7504 14.7069 11.7663 14.712 11.782C14.7171 11.7977 14.7224 11.814 14.7275 11.8299L14.7438 11.8765L14.759 11.9244L18.817 11.687L18.8018 11.6402C18.7964 11.6248 18.7914 11.6094 18.7863 11.5937L18.7711 11.5474L18.7553 11.5011L18.7545 11.5022Z" fill="#61C5FF"/>
<path d="M21.0973 10.1566L14.4583 10.4814L14.4759 10.5257C14.4821 10.5405 14.488 10.5554 14.4935 10.5704L14.5111 10.6151L14.5287 10.6597L21.1681 10.3263L21.1505 10.2835L21.1328 10.2407L21.1152 10.1983C21.1093 10.1839 21.1035 10.1712 21.0973 10.1558V10.1566Z" fill="#FF8880"/>
<path d="M13.8708 10.5107L12.3389 10.586L12.3565 10.6312L12.3741 10.6764C12.38 10.6913 12.3856 10.7064 12.3915 10.7216L12.4091 10.7671L13.9412 10.6902L13.9236 10.645C13.918 10.6301 13.9121 10.6152 13.9063 10.6003L13.8886 10.5554C13.8828 10.5405 13.8769 10.5256 13.8708 10.5107Z" fill="#FF8880"/>
<path d="M16.8866 27.5831C16.8583 27.5876 16.8298 27.5904 16.8012 27.5914C16.7721 27.5926 16.7429 27.5919 16.7139 27.5896C16.6841 27.587 16.6545 27.5828 16.6253 27.5768C16.5947 27.5705 16.5645 27.5625 16.5348 27.5527L16.487 27.5368L16.4392 27.5195L16.3917 27.5013L16.3444 27.4818C16.3156 27.4669 16.3156 27.4669 16.311 27.4431C16.3401 27.4193 16.3401 27.4193 17.9577 27.1584C18.0378 27.1479 18.1191 27.156 18.1956 27.1822C18.2113 27.189 18.2274 27.1952 18.2431 27.2014L18.2909 27.2193L18.339 27.2361L18.3873 27.252C18.4171 27.2614 18.4474 27.2692 18.4781 27.2753C18.5364 27.2867 18.5959 27.2915 18.6553 27.2894C18.684 27.2882 18.7127 27.2852 18.741 27.2805L16.8866 27.5831Z" fill="#B85CFF"/>
<path d="M27.3609 25.6581L18.5879 27.0747L18.6218 27.0896L18.6557 27.1039L18.6899 27.1177L18.7243 27.131L27.5 25.7092L27.465 25.6971L27.43 25.6846L27.3953 25.6716L27.3606 25.6581H27.3609Z" fill="#FF7066"/>
<path d="M25.1048 26.2305L19.0725 27.2132C19.084 27.2132 19.0952 27.2132 19.1067 27.2132L19.1406 27.2119L19.174 27.2089C19.1852 27.2089 19.1964 27.2062 19.2073 27.2043L25.2409 26.2205C25.2297 26.2224 25.2185 26.2237 25.207 26.2251C25.1955 26.2264 25.1843 26.2275 25.1728 26.2283L25.1384 26.2299L25.1048 26.2305Z" fill="#61C5FF"/>
<path d="M28.2416 23.2543L14.3057 25.2793C14.3129 25.2944 14.3203 25.3093 14.3278 25.3242C14.3353 25.3391 14.3425 25.354 14.35 25.3689L14.3724 25.413L14.3951 25.4568L28.3329 23.4145C28.3252 23.4012 28.3175 23.3874 28.31 23.375C28.3025 23.3625 28.2948 23.3479 28.2873 23.3349C28.2798 23.3219 28.2721 23.3079 28.2646 23.2949C28.2571 23.2819 28.2497 23.2678 28.2424 23.2543H28.2416Z" fill="#E6E6E6"/>
<path d="M15.8449 25.6947L14.6326 25.876C14.6408 25.8896 14.6491 25.9031 14.6577 25.9161C14.6662 25.9291 14.6745 25.9432 14.6844 25.9559L14.7111 25.9951L14.7378 26.0341L15.9501 25.8514L15.9234 25.8127L15.8967 25.7737C15.8881 25.7607 15.8796 25.7467 15.87 25.7345C15.8604 25.7223 15.8532 25.7074 15.8449 25.6947Z" fill="#E6E6E6"/>
<path d="M21.2046 24.8949L16.1375 25.6527L16.1641 25.6925L16.1895 25.7318L16.2162 25.7705L16.2429 25.8092L21.3109 25.0456C21.302 25.0335 21.2935 25.021 21.2842 25.0086L21.2575 24.9712L21.2308 24.9336L21.2046 24.8949Z" fill="#E6E6E6"/>
<path d="M28.5744 23.7916L21.772 24.8085L21.7973 24.8466L21.824 24.884C21.8326 24.8967 21.8414 24.9089 21.8507 24.9213C21.8601 24.9338 21.8681 24.946 21.8774 24.9581L28.6804 23.9334L28.6537 23.8985C28.6449 23.8869 28.6364 23.875 28.627 23.8633L28.6003 23.8276L28.5736 23.7916H28.5744Z" fill="#E6E6E6"/>
<path d="M19.9183 25.647L15.001 26.4007L15.0277 26.4354L15.0544 26.4695L15.0811 26.5033L15.1096 26.5366L20.0281 25.7788L19.9992 25.7468L19.9709 25.7144L19.9426 25.6813L19.9143 25.6481L19.9183 25.647Z" fill="#E6E6E6"/>
<path d="M28.9512 24.2623L20.6379 25.5366L20.6646 25.5698L20.6929 25.6026L20.7215 25.6348L20.7503 25.6667L29.0649 24.3839L29.0358 24.3541L29.007 24.3238C28.9974 24.3138 28.9878 24.3035 28.9784 24.2932C28.9691 24.2829 28.9592 24.2726 28.9499 24.2623H28.9512Z" fill="#E6E6E6"/>
<path d="M15.2409 22.7495L13.6686 22.9533C13.5912 22.9677 13.553 23.0294 13.5715 23.1108L13.6291 23.3206C13.6484 23.3893 13.667 23.457 13.6852 23.5236C13.7034 23.5902 13.7212 23.6554 13.7386 23.7193C13.7564 23.7831 13.7737 23.8463 13.7904 23.9087C13.8021 23.9509 13.8141 23.9932 13.8264 24.0348C13.8387 24.0765 13.851 24.1182 13.8638 24.1596C13.8766 24.201 13.8905 24.2408 13.9028 24.2825C13.9151 24.3242 13.9295 24.3637 13.9434 24.4043C13.9781 24.4933 14.0528 24.5464 14.1337 24.5396L15.7059 24.319C15.7815 24.3036 15.8127 24.2378 15.7841 24.1474C15.7703 24.1079 15.7574 24.0679 15.7436 24.0275C15.7297 23.9872 15.7169 23.9463 15.7046 23.906C15.6923 23.8657 15.6779 23.8248 15.6672 23.7829C15.6565 23.7409 15.6429 23.7 15.6312 23.6581C15.6144 23.5975 15.5972 23.5356 15.5794 23.4724C15.5618 23.4091 15.5436 23.3447 15.526 23.2792L15.4699 23.0786C15.4509 23.0108 15.4316 22.9418 15.412 22.8716C15.4017 22.8344 15.379 22.802 15.3477 22.7799C15.3164 22.7578 15.2786 22.7475 15.2406 22.7506L15.2409 22.7495Z" fill="#61C5FF"/>
<path d="M19.851 22.7974L16.0178 23.3116C16.0218 23.3254 16.0256 23.3387 16.0293 23.3522L16.0405 23.3925L16.0517 23.4326L16.0629 23.4721L19.8964 22.9535C19.8927 22.9408 19.8889 22.9265 19.8855 22.9151L19.8742 22.8761L19.863 22.8369C19.859 22.8239 19.8553 22.8098 19.8516 22.7974H19.851Z" fill="#61C5FF"/>
<path d="M24.7589 22.1396L20.4216 22.721L20.4328 22.7603L20.4441 22.7992L20.4553 22.8382L20.4665 22.8764L24.8037 22.2907L24.7925 22.2533C24.7888 22.2409 24.7853 22.2284 24.7816 22.216L24.7704 22.1781C24.7666 22.1654 24.7629 22.1526 24.7589 22.1396Z" fill="#61C5FF"/>
<path d="M17.6639 23.744L16.2043 23.9459L16.2212 23.9963L16.238 24.0466C16.2439 24.0631 16.2495 24.0799 16.2553 24.0964L16.273 24.1459L17.7325 23.9421L17.7149 23.8929C17.709 23.8766 17.7034 23.8601 17.6975 23.8436C17.6917 23.8271 17.686 23.8106 17.6804 23.7938C17.6748 23.777 17.6692 23.7605 17.6639 23.744Z" fill="#61C5FF"/>
<path d="M22.1587 23.1222L18.1111 23.6822L18.1279 23.732C18.1335 23.7485 18.1391 23.765 18.145 23.7815C18.1509 23.798 18.1565 23.8142 18.1621 23.8308L18.1797 23.8797L22.2273 23.3144C22.2211 23.2984 22.2153 23.2827 22.2096 23.2667C22.204 23.2508 22.1979 23.2348 22.1923 23.2188C22.1867 23.2028 22.1808 23.1869 22.1752 23.1706C22.1696 23.1544 22.164 23.1384 22.1587 23.1222Z" fill="#61C5FF"/>
<path d="M24.604 21.6163L17.9807 22.4786C17.9847 22.4932 17.989 22.5079 17.9933 22.5225C17.9975 22.5371 18.0015 22.5517 18.0055 22.566C18.0095 22.5804 18.0138 22.595 18.0178 22.6094C18.0218 22.6237 18.0261 22.6383 18.0301 22.6524L24.6532 21.7825L24.6409 21.7416C24.6369 21.7278 24.6329 21.7146 24.6286 21.7002C24.6243 21.6859 24.6206 21.6732 24.6163 21.6586C24.6121 21.6439 24.608 21.6315 24.604 21.6166V21.6163Z" fill="#FF8880"/>
<path d="M17.3926 22.5551L15.8621 22.7543C15.8663 22.7691 15.8703 22.784 15.8746 22.7989L15.8869 22.843C15.8912 22.8576 15.8952 22.8725 15.8994 22.8871L15.9114 22.9307L17.442 22.7296C17.438 22.7153 17.434 22.7009 17.4297 22.6863C17.4255 22.6717 17.4217 22.6574 17.4174 22.643L17.4052 22.5992C17.4009 22.5846 17.3969 22.5697 17.3926 22.5551Z" fill="#FF8880"/>
<path d="M13.3039 7.44427C13.1704 7.44969 13.1998 7.4984 13.2286 7.52547C13.2729 7.56931 13.357 7.56255 13.3551 7.51545C13.3546 7.50638 13.3514 7.49768 13.3458 7.49056L13.338 7.47892L13.33 7.46701L13.322 7.4551L13.314 7.44346L13.3039 7.44427ZM12.85 7.35252C12.7993 7.35631 12.7862 7.38392 12.8113 7.43372L12.9883 7.42857C12.9734 7.40511 12.9529 7.38579 12.9288 7.37237C12.9046 7.35895 12.8776 7.35185 12.85 7.35171V7.35252ZM13.03 7.60179C12.8164 7.60179 12.7056 7.40151 12.7555 7.34413C12.814 7.27674 13.0142 7.33764 13.0687 7.46322L12.8345 7.46999C12.863 7.51088 12.9044 7.54066 12.9518 7.55435C12.9993 7.56805 13.05 7.56482 13.0954 7.54523L13.1301 7.58095C13.0985 7.59506 13.0644 7.60216 13.03 7.60179ZM13.093 7.36714L13.0567 7.33466C13.0769 7.31923 13.2377 7.25346 13.3519 7.41423C13.3575 7.42289 13.3634 7.43128 13.369 7.43967L13.3864 7.46511L13.4035 7.49218L13.4205 7.51789C13.439 7.54496 13.4534 7.56471 13.4691 7.58366L13.4157 7.58528L13.389 7.55064H13.3869C13.369 7.62399 13.2131 7.60206 13.1584 7.5187C13.1279 7.47215 13.1261 7.41585 13.2897 7.41044V7.40909V7.40747C13.2686 7.37761 13.237 7.35712 13.2015 7.35022C13.1659 7.34332 13.129 7.35054 13.0986 7.37039L13.093 7.36714ZM13.4667 7.35929H13.4686C13.4633 7.33493 13.4651 7.29433 13.5375 7.29866L13.5455 7.3103L13.5535 7.32167L13.5612 7.33331L13.5692 7.34467C13.5126 7.33737 13.479 7.36497 13.5239 7.43209L13.5484 7.46836L13.5727 7.50463L13.597 7.54117L13.6213 7.57798L13.5612 7.57987L13.53 7.53223L13.4985 7.48514L13.467 7.43832C13.4563 7.42262 13.4456 7.40719 13.4352 7.3915C13.412 7.35794 13.3952 7.33466 13.3746 7.30787L13.428 7.30624L13.4675 7.36037L13.4667 7.35929ZM13.9224 7.57581C13.726 7.57446 13.5837 7.38338 13.6555 7.31842C13.695 7.28297 13.7844 7.28865 13.8354 7.30408C13.8392 7.31544 13.844 7.33114 13.8474 7.3417C13.7564 7.31463 13.6621 7.33304 13.7161 7.4256C13.77 7.51816 13.8901 7.56093 13.9705 7.51979C13.9812 7.53088 13.9953 7.54685 14.0057 7.55713C13.9793 7.56915 13.9506 7.5755 13.9216 7.57581H13.9224ZM12.6191 7.57229C12.7275 7.5658 12.6725 7.49786 12.6525 7.47973C12.6177 7.45425 12.5774 7.43755 12.535 7.43101C12.4688 7.41558 12.4015 7.39447 12.3534 7.34576C12.3054 7.29704 12.2961 7.23289 12.4026 7.22288C12.4468 7.21944 12.4912 7.22431 12.5337 7.23723C12.5371 7.24913 12.5414 7.26429 12.5446 7.27674C12.4747 7.25373 12.3639 7.25184 12.3898 7.31003C12.4119 7.35929 12.4848 7.37688 12.5379 7.3896C12.5911 7.40232 12.7064 7.4302 12.7435 7.51979C12.7873 7.62561 12.6116 7.63048 12.507 7.59259L12.4952 7.5501C12.5349 7.56497 12.5768 7.57249 12.6191 7.57229ZM14.0829 7.56444C14.0608 7.53088 14.0385 7.49741 14.0159 7.46403C13.9935 7.43074 13.9708 7.39745 13.9481 7.3647C13.9254 7.33195 13.903 7.2992 13.88 7.26673C13.857 7.23425 13.8343 7.20204 13.8114 7.16983L13.8712 7.16821L13.9006 7.20935L13.9299 7.25076C13.9395 7.26456 13.9494 7.27782 13.959 7.29244C13.9686 7.30705 13.9785 7.3195 13.9881 7.33412C13.9919 7.25942 14.1376 7.26429 14.2284 7.36281C14.2364 7.37147 14.246 7.38446 14.2532 7.3942L14.2799 7.43426L14.3066 7.47459L14.3333 7.51518L14.36 7.55605L14.3005 7.55795C14.2917 7.54469 14.2829 7.53088 14.2738 7.51843L14.2471 7.47919L14.2204 7.44021L14.1937 7.40124C14.1208 7.2992 14.0231 7.31382 14.0154 7.35577C14.0145 7.36334 14.0152 7.37102 14.0174 7.3783C14.0197 7.38557 14.0234 7.39229 14.0284 7.39799L14.0551 7.43886C14.0642 7.45266 14.0736 7.46593 14.0818 7.48L14.1085 7.52114C14.1176 7.53494 14.1269 7.5482 14.1352 7.56282L14.0754 7.56444H14.0829ZM22.5414 6.58306L11.7327 6.85371C11.3681 6.89241 11.446 7.10515 11.525 7.22856C11.5501 7.26429 11.5752 7.30056 11.6001 7.33683C11.6249 7.37309 11.65 7.4099 11.6748 7.44671C11.6996 7.48352 11.7242 7.5206 11.7488 7.55822C11.7733 7.59584 11.7979 7.63319 11.8222 7.67108C12.0091 7.91656 12.2461 8.0435 12.5462 8.05919L24.6486 7.66188C24.9775 7.61695 24.8601 7.37959 24.7941 7.27945C24.9903 7.60694 24.7324 7.65484 24.6486 7.66188L23.3709 7.70383C23.3048 7.60333 23.2381 7.50463 23.1706 7.40774C23.1032 7.31084 23.0351 7.21521 22.9664 7.12084C22.8972 7.02756 22.8272 6.93599 22.7566 6.84613C22.6859 6.75628 22.6147 6.66841 22.543 6.58252L22.5414 6.58306Z" fill="white"/>
<path d="M14.2766 8.6853L13.2447 8.72373C13.1088 8.73537 13.1331 8.86637 13.2209 8.9454C13.2692 8.99059 13.332 9.01638 13.3977 9.01793L14.4295 8.97734C14.5571 8.96597 14.5502 8.84201 14.452 8.75567C14.4033 8.71226 14.3413 8.68738 14.2766 8.6853Z" fill="#CCCCCC"/>
<path d="M16.0075 8.62061L14.9989 8.65823C14.8654 8.66986 14.8921 8.79924 14.9786 8.87745C15.026 8.92188 15.0877 8.94729 15.1521 8.94891L16.161 8.90939C16.2854 8.89802 16.2772 8.7765 16.18 8.69043C16.1322 8.64757 16.0713 8.62288 16.0075 8.62061Z" fill="#FF7066"/>
<path d="M17.6996 8.5575L16.7134 8.5943C16.5839 8.60567 16.6103 8.73342 16.6963 8.81082C16.743 8.8546 16.8036 8.87979 16.8672 8.88174L17.855 8.84303C17.9767 8.83194 17.9668 8.71177 17.8707 8.62651C17.8237 8.58427 17.7637 8.55987 17.7009 8.5575H17.6996Z" fill="#CCCCCC"/>
<path d="M19.3546 8.49585L18.3903 8.53185C18.2594 8.54348 18.2915 8.66961 18.3761 8.74593C18.422 8.78908 18.4817 8.81397 18.5443 8.81603L19.5086 8.77814C19.6277 8.76731 19.617 8.64823 19.5214 8.56432C19.4753 8.5226 19.4163 8.4984 19.3546 8.49585Z" fill="#CCCCCC"/>
<path d="M20.9736 8.4353L20.0301 8.47049C19.9023 8.48185 19.9354 8.60581 20.0192 8.68214C20.0643 8.72462 20.1229 8.74922 20.1845 8.75142L21.1279 8.71434C21.2443 8.70379 21.2323 8.58606 21.1378 8.50297C21.0925 8.46183 21.0344 8.43792 20.9736 8.4353Z" fill="#CCCCCC"/>
<path d="M22.5575 8.37646L21.6343 8.41219C21.5091 8.42356 21.543 8.54752 21.626 8.6214C21.6704 8.6634 21.7282 8.6878 21.7889 8.69015L22.712 8.65388C22.826 8.64333 22.8127 8.52695 22.7193 8.44467C22.6745 8.40421 22.6174 8.38061 22.5575 8.37782V8.37646Z" fill="#CCCCCC"/>
<path d="M4.73261 5.31613C4.44882 5.32777 4.49821 5.4474 4.57243 5.51614C4.80309 5.73104 5.3955 5.79329 5.38536 5.60194C5.37815 5.46661 5.02441 5.3118 4.73315 5.31613H4.73261Z" fill="#FF7066"/>
<path d="M5.86934 5.29966C5.58982 5.31103 5.64108 5.42985 5.7153 5.49805C5.9465 5.71105 6.53224 5.77303 6.51862 5.58303C6.50901 5.44771 6.15687 5.29506 5.86934 5.29966Z" fill="#FFEA4F"/>
<path d="M6.99168 5.28378C6.71616 5.29515 6.76876 5.41288 6.84351 5.48082C7.07577 5.69192 7.65457 5.75363 7.63749 5.56526C7.62547 5.4321 7.27547 5.27945 6.99168 5.28378Z" fill="#78FF4F"/>
<path d="M16.4744 24.4112L37.7885 21.3921C37.6434 21.4133 37.5047 21.4667 37.3824 21.5485C37.2536 21.6353 37.1417 21.7454 37.0524 21.8733C36.9531 22.0154 36.8761 22.1721 36.8239 22.338C36.7648 22.5243 36.7306 22.7177 36.7222 22.9132C36.7222 22.9316 36.7203 22.9546 36.7192 22.9797C36.7182 23.0049 36.7166 23.0339 36.7152 23.0609C36.7139 23.088 36.7126 23.1151 36.7115 23.1421C36.7104 23.1692 36.7091 23.1903 36.7083 23.2087C36.6977 23.4606 36.6546 23.71 36.5802 23.9506C36.5149 24.163 36.4187 24.3644 36.2945 24.5479C36.1844 24.7111 36.0459 24.8527 35.8858 24.9655C35.7367 25.0698 35.5669 25.14 35.3884 25.1709L14.2898 28.7059C14.4613 28.6753 14.622 28.5996 14.7557 28.4864C14.9093 28.3558 15.0373 28.1968 15.1326 28.0179C15.2483 27.8038 15.3344 27.5746 15.3887 27.3367C15.4539 27.0566 15.4886 26.77 15.492 26.4822C15.492 26.4609 15.492 26.4343 15.492 26.4051C15.492 26.3759 15.492 26.3439 15.4936 26.3123C15.4952 26.2806 15.4936 26.2484 15.4952 26.2192C15.4968 26.1899 15.4952 26.1634 15.4952 26.142C15.4979 25.9186 15.5255 25.6961 15.5774 25.4789C15.6218 25.2933 15.6916 25.115 15.7848 24.949C15.8625 24.8078 15.9663 24.6831 16.0905 24.5817C16.2014 24.4915 16.3338 24.4327 16.4744 24.4112Z" fill="url(#paint1_linear_2445_11877)"/>
<path d="M6.11552 8.19885C5.75667 7.56473 5.34501 6.96287 4.88504 6.39983C4.80334 6.30105 4.72058 6.20605 4.63755 6.11267L4.53076 6.71514C4.59377 6.78741 4.65651 6.86075 4.71764 6.93653C5.15617 7.47612 5.54853 8.05262 5.89046 8.65977C6.22178 9.24434 6.5182 9.84852 6.77814 10.4691L6.90415 9.76214C6.66771 9.22777 6.40449 8.70599 6.11552 8.19885Z" fill="#B8B8B8"/>
<path d="M24.3188 40.6414C24.1175 40.3667 23.8526 40.0054 23.5712 39.6219L22.7297 38.474C22.4652 38.1133 22.2302 37.7931 22.0703 37.5747C21.8074 37.2163 21.5559 36.8388 21.3167 36.4452C21.0775 36.0517 20.8527 35.6452 20.6407 35.2235C20.4287 34.8018 20.2311 34.3696 20.0477 33.9244C19.8643 33.4792 19.6967 33.0272 19.5445 32.5646C19.3923 32.1021 19.2559 31.6328 19.1352 31.1572C19.0146 30.6817 18.9107 30.1999 18.8229 29.7152C18.735 29.2305 18.6627 28.743 18.6093 28.2553C18.5559 27.7676 18.5172 27.2788 18.4972 26.7938C18.4824 26.4325 18.4275 26.0741 18.3335 25.7253C18.2479 25.4039 18.1245 25.0941 17.9659 24.8026C17.8284 24.5466 17.6523 24.314 17.444 24.1133C17.2501 23.9319 17.039 23.8031 16.8176 23.74C16.5986 23.6739 16.364 23.6847 16.1518 23.7706C15.9473 23.8537 15.7626 24.005 15.6066 24.2118C15.4507 24.4186 15.3245 24.6795 15.2348 24.9842C15.1397 25.3187 15.0898 25.6646 15.0866 26.0127C15.0866 26.0338 15.0866 26.0603 15.0866 26.0893C15.0866 26.1182 15.0866 26.1502 15.085 26.1821C15.0834 26.2141 15.085 26.2455 15.085 26.2747C15.085 26.3039 15.085 26.3288 15.085 26.3513C15.0827 26.6114 15.0455 26.87 14.9742 27.1199C14.9176 27.3235 14.8245 27.5149 14.6995 27.6842C14.5855 27.8323 14.4512 27.9376 14.3038 27.9917C14.1508 28.047 13.9837 28.047 13.8307 27.9917C13.5198 27.8817 13.2306 27.7168 12.9764 27.5045C12.6893 27.2659 12.4336 26.9908 12.2156 26.6861C11.9692 26.3434 11.7569 25.9769 11.5818 25.5918C11.3871 25.166 11.2282 24.7244 11.1066 24.2716C10.9122 23.5552 10.6698 22.662 10.4041 21.6825C10.1385 20.7031 9.85125 19.6456 9.56425 18.5882L8.73316 15.5263L8.04651 13.0133C7.8094 12.1328 7.52101 11.2674 7.18285 10.4215C7.09262 10.1967 6.99953 9.97686 6.9036 9.76196L6.77759 10.4692C6.82173 10.5735 6.86507 10.6787 6.9076 10.785C7.22951 11.5928 7.50408 12.4192 7.72988 13.2599C7.91676 13.9487 8.15009 14.8118 8.40799 15.7642C8.66589 16.7166 8.94968 17.7657 9.234 18.8153L10.0686 21.8985C10.3329 22.8729 10.5737 23.7641 10.7672 24.4781C10.903 24.9853 11.0804 25.4801 11.2977 25.9572C11.4934 26.3893 11.7308 26.8008 12.0062 27.1857C12.2501 27.5286 12.5362 27.8385 12.8576 28.1078C13.1625 28.3582 13.4845 28.546 13.8169 28.6607C14.0202 28.7352 14.2426 28.7365 14.4466 28.6643C14.6434 28.5934 14.8225 28.4542 14.975 28.2583C15.1274 28.0623 15.2537 27.8071 15.3431 27.5075C15.4389 27.1741 15.489 26.829 15.4921 26.4817C15.4921 26.4604 15.4921 26.4338 15.4921 26.4046C15.4921 26.3754 15.4921 26.3434 15.4937 26.3118C15.4953 26.2801 15.4937 26.2479 15.4953 26.2187C15.4969 26.1894 15.4953 26.1629 15.4953 26.1415C15.4979 25.8789 15.5358 25.6178 15.608 25.3656C15.667 25.1567 15.7631 24.9606 15.8915 24.7866C16.0092 24.6316 16.1486 24.5187 16.3026 24.4575C16.4627 24.3941 16.6391 24.3873 16.8035 24.438C16.9796 24.4939 17.1403 24.5909 17.2728 24.7211C17.4287 24.8722 17.5604 25.047 17.6631 25.2392C17.7816 25.4576 17.8738 25.6897 17.9376 25.9304C18.0077 26.1915 18.0487 26.4598 18.0599 26.7302C18.0812 27.2412 18.1207 27.7549 18.1781 28.2683C18.2355 28.7817 18.3116 29.2943 18.4027 29.804C18.4937 30.3136 18.6045 30.8206 18.7308 31.321C18.857 31.8214 19.0004 32.3173 19.1601 32.8031C19.3197 33.2889 19.4964 33.7682 19.6884 34.2348C19.8803 34.7014 20.0889 35.1602 20.3107 35.603C20.5326 36.0457 20.7707 36.478 21.0209 36.8915C21.271 37.3051 21.5361 37.7057 21.8124 38.0843L22.4684 38.9834L23.3053 40.1307L24.0489 41.1502C24.2499 41.4255 24.3866 41.6131 24.4114 41.6472L24.6827 41.1391L24.3188 40.6414Z" fill="#CCCCCC"/>
<path d="M3.53339 5.07214L3.42847 5.66054C3.82803 5.97595 4.19689 6.3294 4.53 6.71608L4.63679 6.11361C4.30135 5.7328 3.93198 5.38417 3.53339 5.07214Z" fill="#808080"/>
<path d="M16.3909 23.706L37.7164 20.7862C37.7524 20.7814 37.7887 20.7778 37.8253 20.7762C37.8619 20.7746 37.8993 20.774 37.9366 20.7762C37.974 20.7784 38.0117 20.7805 38.0496 20.7851C38.0875 20.7897 38.1257 20.7962 38.1641 20.8044C38.3996 20.8567 38.6208 20.9609 38.812 21.1097C39.0202 21.2707 39.1996 21.4666 39.3428 21.6888C39.5005 21.9315 39.623 22.1958 39.7067 22.4737C39.797 22.7704 39.8466 23.0782 39.854 23.3885C39.8642 23.8062 39.8928 24.2254 39.9387 24.6438C39.9846 25.0622 40.0487 25.4796 40.1296 25.8937C40.2105 26.3078 40.309 26.7194 40.4232 27.1249C40.5375 27.5303 40.6704 27.9306 40.8189 28.3225C40.9673 28.7144 41.1331 29.0996 41.3136 29.4739C41.4941 29.8482 41.6914 30.2146 41.9023 30.5678C42.1132 30.921 42.3393 31.2637 42.578 31.5909C42.8166 31.9181 43.0705 32.2332 43.3351 32.5298L43.9985 33.2735L44.8432 34.2208C45.1254 34.5369 45.3908 34.8349 45.5924 35.0598C45.7939 35.2848 45.9322 35.4407 45.957 35.4688L24.6833 41.1389L24.3186 40.6418C24.1173 40.3671 23.8525 40.0057 23.5711 39.6222L22.7296 38.4744C22.465 38.1136 22.2301 37.7934 22.0702 37.575C21.8072 37.2167 21.5557 36.8391 21.3165 36.4456C21.0773 36.0521 20.8525 35.6455 20.6405 35.2239C20.4286 34.8022 20.231 34.37 20.0476 33.9247C19.8642 33.4795 19.6965 33.0275 19.5444 32.565C19.3922 32.1024 19.2558 31.6331 19.1351 31.1576C19.0144 30.6821 18.9106 30.2003 18.8227 29.7156C18.7349 29.2308 18.6625 28.7434 18.6091 28.2557C18.5558 27.768 18.517 27.2792 18.497 26.7941C18.4823 26.4329 18.4274 26.0744 18.3334 25.7256C18.2478 25.4042 18.1244 25.0944 17.9657 24.803C17.8283 24.547 17.6522 24.3144 17.4438 24.1136C17.25 23.9323 17.0388 23.8034 16.8175 23.7404C16.7814 23.7295 16.7448 23.7205 16.7078 23.7133C16.6715 23.7068 16.6354 23.7022 16.601 23.6995C16.5311 23.6939 16.4608 23.6959 16.3914 23.7055L16.3909 23.706Z" fill="url(#paint2_linear_2445_11877)"/>
<path d="M38.7618 33.3419L24.6389 36.6642L24.6707 36.708L24.7027 36.7521L24.7348 36.7957L24.7671 36.8393L38.8918 33.4965L38.8595 33.458L38.8248 33.4204L38.7928 33.3817L38.7607 33.3427L38.7618 33.3419Z" fill="#E6E6E6"/>
<path d="M26.2963 36.9313L25.0581 37.229C25.0688 37.2436 25.08 37.2582 25.0909 37.2728L25.1248 37.3178L25.1595 37.3638C25.1713 37.3793 25.183 37.395 25.1948 37.4109L26.4333 37.1132L26.3978 37.0666L26.3631 37.0209L26.3292 36.9765L26.2963 36.9332V36.9313Z" fill="#E6E6E6"/>
<path d="M31.748 35.6239L26.5955 36.8597L26.6283 36.903C26.6395 36.9176 26.651 36.9322 26.6622 36.9474L26.6969 36.9926L26.7324 37.0391L31.885 35.7941L31.8495 35.7497L31.8145 35.7064L31.7806 35.6639L31.7475 35.6228L31.748 35.6239Z" fill="#E6E6E6"/>
<path d="M39.1849 33.8398L32.3237 35.4857L32.3568 35.5268L32.391 35.569L32.4257 35.6121L32.4615 35.6562L39.3227 34.0003L39.2872 33.9587L39.2522 33.9181L39.2183 33.8785L39.1852 33.8398H39.1849Z" fill="#E6E6E6"/>
<path d="M30.5922 36.6953L25.583 37.9251L25.6247 37.9793L25.6666 38.035L25.7088 38.091L25.7512 38.1473L30.7623 36.9083L30.7198 36.8542L30.6774 36.8L30.6352 36.7459L30.5936 36.6918L30.5922 36.6953Z" fill="#E6E6E6"/>
<path d="M39.7119 34.4543L31.3225 36.5154L31.3642 36.5679L31.4063 36.622C31.4202 36.6399 31.4344 36.6575 31.4488 36.6761L31.4912 36.7303L39.8811 34.6538C39.867 34.637 39.8528 34.6205 39.8384 34.604L39.7962 34.5545L39.754 34.5055L39.7124 34.4568L39.7119 34.4543Z" fill="#E6E6E6"/>
<path d="M24.9612 33.8974L23.3573 34.2444C23.2977 34.2612 23.2459 34.3204 23.2961 34.432C23.3568 34.5528 23.4186 34.6728 23.4814 34.7919C23.5442 34.911 23.6083 35.0283 23.6736 35.1438C23.7388 35.2603 23.8051 35.3757 23.8728 35.4899C23.9404 35.6041 24.009 35.7172 24.0786 35.8291C24.1349 35.9103 24.2252 35.9557 24.3088 35.9414L25.9138 35.5727C25.9891 35.5508 26.0064 35.4829 25.9578 35.3995C25.8883 35.2896 25.8196 35.1784 25.7517 35.0658C25.6839 34.9532 25.6175 34.8395 25.5523 34.7245C25.4868 34.6098 25.4226 34.4938 25.3598 34.3765C25.297 34.2592 25.2352 34.141 25.1745 34.0219C25.1169 33.9183 25.0258 33.8842 24.961 33.8961L24.9612 33.8974Z" fill="#61C5FF"/>
<path d="M29.8547 33.637L25.9585 34.503L25.9852 34.5515C25.9943 34.5677 26.0033 34.584 26.0119 34.5999L26.0386 34.6484L26.0653 34.6966L29.9618 33.8248L29.9351 33.7782L29.9084 33.7314C29.899 33.7157 29.8899 33.7 29.8817 33.6843C29.8734 33.6686 29.8632 33.6532 29.855 33.6375L29.8547 33.637Z" fill="#61C5FF"/>
<path d="M34.8181 32.5332L30.4336 33.5075L30.4603 33.5544C30.4694 33.5698 30.4784 33.5855 30.487 33.6009C30.4955 33.6164 30.5054 33.632 30.5137 33.6475L30.5404 33.694L34.9251 32.7132C34.9158 32.6983 34.9065 32.6834 34.8984 32.6683C34.8904 32.6531 34.88 32.6385 34.8717 32.6236L34.8451 32.5784L34.8184 32.5335L34.8181 32.5332Z" fill="#61C5FF"/>
<path d="M27.8385 34.8279L26.3523 35.1659L26.3817 35.2125L26.4102 35.2609L26.4399 35.3072L26.4695 35.3532L27.9555 35.013L27.9258 34.9673L27.8965 34.9215L27.8671 34.8758L27.838 34.8298L27.8385 34.8279Z" fill="#61C5FF"/>
<path d="M32.3992 33.7915L28.2942 34.7253L28.3233 34.7713L28.3527 34.8167L28.382 34.8625L28.4127 34.909L32.5182 33.9691L32.4886 33.9252L32.459 33.8811L32.4296 33.837L32.4002 33.7929L32.3992 33.7915Z" fill="#61C5FF"/>
<path d="M34.4759 31.9342L27.772 33.3898L27.7987 33.439C27.8069 33.4555 27.8155 33.4718 27.824 33.4883L27.8507 33.5373C27.8593 33.5538 27.8678 33.57 27.8774 33.5863L34.5798 32.1212C34.5712 32.1058 34.5627 32.0901 34.5531 32.0747L34.5264 32.0284L34.4997 31.9818C34.4914 31.9661 34.4829 31.9507 34.4743 31.935L34.4759 31.9342Z" fill="#FF8880"/>
<path d="M27.1742 33.5198L25.6167 33.8578L25.6421 33.9079L25.6688 33.958L25.6955 34.008L25.7222 34.0578L27.2799 33.7171C27.2711 33.7008 27.2626 33.6843 27.2532 33.6678L27.2265 33.6186C27.218 33.6023 27.2095 33.5858 27.1998 33.5693L27.1732 33.5198H27.1742Z" fill="#FF8880"/>
<path d="M36.0306 27.9803L21.8936 30.6625C21.8986 30.6814 21.9034 30.7007 21.9085 30.7196C21.9136 30.7386 21.9186 30.7578 21.9235 30.7767L21.9387 30.8341C21.944 30.853 21.9491 30.872 21.9542 30.8909L36.0896 28.186C36.0845 28.169 36.0794 28.1519 36.0746 28.1349C36.0698 28.1178 36.0647 28.1005 36.0597 28.0835C36.0546 28.0664 36.05 28.0491 36.045 28.032L36.0306 27.9803Z" fill="#E6E6E6"/>
<path d="M36.2488 28.6956L32.2151 29.484L32.2319 29.5362L32.249 29.5884C32.2546 29.6058 32.2605 29.6231 32.2664 29.6404C32.2722 29.6577 32.2778 29.675 32.2837 29.6924L36.3169 28.8975L36.2995 28.8471L36.2824 28.7968L36.2656 28.7462L36.2488 28.6956Z" fill="#E6E6E6"/>
<path d="M31.9504 29.5358L27.0349 30.4974C27.0405 30.5155 27.0464 30.5337 27.052 30.5515C27.0576 30.5694 27.0635 30.5878 27.0691 30.6057C27.0747 30.6235 27.0808 30.6416 27.0864 30.6598L27.1041 30.7139L32.019 29.7453L32.0017 29.6933C31.9958 29.676 31.9902 29.6584 31.9843 29.6411C31.9785 29.6237 31.9731 29.6064 31.9672 29.5888L31.9504 29.5366V29.5358Z" fill="#E6E6E6"/>
<path d="M26.4402 30.6127L22.1152 31.4576C22.1211 31.4766 22.1267 31.4953 22.1326 31.5139C22.1385 31.5326 22.1441 31.5516 22.1497 31.5702L22.1673 31.6263L22.1849 31.6823L26.508 30.8303C26.5021 30.8121 26.4963 30.7943 26.4906 30.7761C26.485 30.758 26.4789 30.7399 26.4733 30.722C26.4677 30.7042 26.4615 30.6857 26.4559 30.6679L26.4389 30.6138L26.4402 30.6127Z" fill="#E6E6E6"/>
<path d="M36.4983 29.396L28.9734 30.9095L28.9926 30.962C28.999 30.9796 29.0057 30.9972 29.0121 31.0145C29.0185 31.0318 29.0252 31.0494 29.0319 31.0667C29.0385 31.084 29.0449 31.1016 29.0516 31.119L36.5762 29.5933C36.5696 29.5771 36.5632 29.5606 36.5568 29.544C36.5503 29.5275 36.5437 29.5113 36.5373 29.4948L36.518 29.4453L36.4988 29.396H36.4983Z" fill="#E6E6E6"/>
<path d="M28.2526 31.0547L22.3706 32.2377L22.3901 32.2918C22.3965 32.3102 22.4029 32.3286 22.4096 32.346C22.4163 32.3633 22.4227 32.3828 22.4293 32.4001C22.436 32.4174 22.4424 32.4366 22.4491 32.4542L28.3308 31.2617C28.3241 31.2441 28.3174 31.2268 28.311 31.2092C28.3046 31.1916 28.2977 31.174 28.2913 31.1567L28.2718 31.1026L28.2526 31.0485V31.0547Z" fill="#E6E6E6"/>
<path d="M23.1039 27.4225L21.4964 27.6932C21.4163 27.7121 21.3696 27.7925 21.3779 27.8978C21.3941 28.0372 21.4119 28.1765 21.4313 28.3154C21.4507 28.4543 21.4712 28.5933 21.493 28.7325C21.515 28.8714 21.5384 29.0101 21.5632 29.1485C21.5879 29.2868 21.6146 29.425 21.6433 29.5628C21.6681 29.6657 21.737 29.7252 21.8189 29.7163L23.4242 29.4224C23.5022 29.4026 23.5401 29.3255 23.523 29.221C23.4956 29.0848 23.4695 28.9484 23.4448 28.812C23.4201 28.6756 23.3968 28.5388 23.3751 28.4015C23.3532 28.2645 23.3328 28.1273 23.314 27.9898C23.2951 27.8523 23.2773 27.7149 23.2606 27.5776C23.2419 27.458 23.169 27.413 23.1047 27.4217L23.1039 27.4225Z" fill="#FF7066"/>
<path d="M32.6062 25.866L23.72 27.37C23.7221 27.3895 23.7242 27.4087 23.7266 27.4279C23.729 27.4471 23.7309 27.4666 23.7333 27.4858C23.7357 27.505 23.7376 27.5242 23.74 27.5437C23.7424 27.5632 23.7445 27.5822 23.7469 27.6014L32.631 26.083C32.6289 26.0649 32.6267 26.0468 32.6243 26.0289C32.6219 26.011 32.62 25.9929 32.6182 25.9748L32.6118 25.9206C32.6099 25.9025 32.6078 25.8846 32.6059 25.8665L32.6062 25.866Z" fill="#FF8880"/>
<path d="M29.9297 27.1091L23.8259 28.1774L23.8347 28.235C23.8377 28.2543 23.8409 28.2735 23.8438 28.2927C23.8468 28.3119 23.85 28.3311 23.8532 28.3503C23.8564 28.3696 23.8593 28.3888 23.8625 28.408L29.9652 27.3308C29.962 27.3124 29.9591 27.294 29.9559 27.2767L29.9471 27.2225L29.9383 27.1684C29.9353 27.15 29.9324 27.1316 29.9297 27.1143V27.1091Z" fill="#61C5FF"/>
<path d="M32.8398 27.3765L26.123 28.5907C26.1265 28.6093 26.1303 28.6283 26.134 28.647C26.1377 28.6656 26.1415 28.6846 26.1455 28.7035C26.1495 28.7225 26.1529 28.7409 26.157 28.7598C26.161 28.7788 26.1647 28.7974 26.1684 28.8161L32.8844 27.5912L32.8732 27.537C32.8691 27.519 32.8654 27.5009 32.862 27.4829L32.8508 27.4288C32.847 27.4109 32.8436 27.393 32.8398 27.3746V27.3765Z" fill="#61C5FF"/>
<path d="M25.5245 28.699L23.9648 28.9818L23.9761 29.0392C23.9798 29.0584 23.9835 29.0773 23.9875 29.0966C23.9915 29.1158 23.995 29.1345 23.999 29.1537C24.003 29.1729 24.0068 29.1918 24.0108 29.2108L25.5702 28.9263C25.5662 28.9076 25.5621 28.8887 25.5584 28.8698C25.5547 28.8508 25.5507 28.8321 25.5469 28.8132C25.5432 28.7942 25.5392 28.7756 25.5354 28.7566C25.5317 28.7377 25.528 28.719 25.5245 28.7001V28.699Z" fill="#61C5FF"/>
<path d="M34.6596 21.9829L20.4668 24.0087C20.4769 24.0215 20.4868 24.0342 20.4967 24.0472L20.5258 24.0861C20.5357 24.0994 20.5453 24.1132 20.5546 24.1262C20.564 24.1392 20.5739 24.1533 20.5832 24.1671L34.7773 22.1239C34.768 22.1117 34.7584 22.0996 34.7488 22.0877C34.7392 22.0757 34.7293 22.0636 34.7194 22.0519C34.7095 22.0403 34.6999 22.0284 34.6898 22.017C34.6796 22.0056 34.6698 21.994 34.6596 21.9829Z" fill="#E6E6E6"/>
<path d="M22.0813 24.4331L20.8398 24.6158L20.8631 24.6648L20.8855 24.7143C20.8927 24.7311 20.9002 24.7476 20.9074 24.7647C20.9146 24.7817 20.9215 24.7982 20.9287 24.8153L22.1699 24.6307C22.163 24.6139 22.1558 24.5971 22.1485 24.5803C22.1413 24.5636 22.1341 24.5471 22.1267 24.5308L22.1042 24.4816C22.0967 24.4653 22.089 24.4491 22.0813 24.4331Z" fill="#E6E6E6"/>
<path d="M27.5534 23.6276L22.3811 24.3892C22.3888 24.4051 22.3966 24.4214 22.4041 24.4376C22.4115 24.4539 22.4193 24.4701 22.4265 24.4866C22.4337 24.5031 22.4412 24.5194 22.4484 24.5361C22.4556 24.5529 22.4628 24.5694 22.4697 24.5865L27.6423 23.8173L27.621 23.7688C27.6138 23.7529 27.6063 23.7369 27.5991 23.7212C27.5919 23.7055 27.5841 23.6898 27.5764 23.6741C27.5686 23.6584 27.5612 23.643 27.5534 23.6276Z" fill="#E6E6E6"/>
<path d="M35.0356 22.5258L28.1311 23.5416C28.1388 23.5567 28.1466 23.5722 28.1541 23.5879C28.1615 23.6036 28.1693 23.619 28.1768 23.6347C28.1842 23.6504 28.1914 23.6664 28.1986 23.6823C28.2059 23.6983 28.2128 23.7143 28.22 23.7305L35.1239 22.7039C35.117 22.6885 35.1098 22.6733 35.1026 22.6582C35.0954 22.643 35.0881 22.6281 35.0809 22.6133L35.0585 22.5689C35.0508 22.554 35.0433 22.5394 35.0356 22.525V22.5258Z" fill="#E6E6E6"/>
<path d="M26.1305 24.5863L21.1082 25.3522L21.1226 25.4088C21.1274 25.4278 21.1319 25.4467 21.1365 25.4659C21.141 25.4851 21.1453 25.5041 21.1495 25.5233C21.1538 25.5425 21.1581 25.5617 21.1621 25.5809L26.1838 24.8072C26.1798 24.7885 26.1758 24.7698 26.1716 24.7511C26.1673 24.7325 26.163 24.7143 26.1585 24.697L26.1449 24.6429L26.1305 24.5887V24.5863Z" fill="#E6E6E6"/>
<path d="M35.3006 23.1876L26.8643 24.4745C26.8693 24.4924 26.8739 24.5105 26.8787 24.5286C26.8835 24.5468 26.888 24.5652 26.8923 24.5828C26.8966 24.6004 26.9011 24.6193 26.9054 24.6369C26.9096 24.6545 26.9136 24.674 26.9177 24.691L35.354 23.3919C35.3503 23.3743 35.3463 23.357 35.342 23.3397C35.3377 23.3223 35.3337 23.305 35.3294 23.288C35.3252 23.2709 35.3206 23.2536 35.3158 23.2366C35.311 23.2195 35.3067 23.2024 35.3019 23.1857L35.3006 23.1876Z" fill="#E6E6E6"/>
<path d="M20.1079 23.5237C20.0225 23.5313 19.9366 23.5154 19.8593 23.4777C19.6866 23.3946 19.4717 23.2913 19.1404 23.3294L21.0191 23.0723C21.1822 23.0607 21.4056 23.0452 21.742 23.2168C21.8192 23.2658 21.761 23.2888 21.742 23.2948C21.2673 23.4363 20.6002 23.4693 20.1084 23.5237H20.1079Z" fill="#E8DF2E"/>
<path d="M25.5028 22.4639L21.5994 22.9984H21.6354H21.672L21.7086 23.0003L21.7454 23.0033L25.6504 22.468C25.6379 22.468 25.6256 22.4658 25.613 22.4652L25.5762 22.4636H25.5394H25.5028V22.4639Z" fill="#61C5FF"/>
<path d="M30.4826 21.7823L26.0815 22.3851C26.0938 22.3851 26.1058 22.3851 26.1181 22.3851H26.155C26.1672 22.3851 26.1798 22.3851 26.1921 22.3867L26.2294 22.3894L30.6318 21.7859L30.5942 21.7834C30.5816 21.7834 30.5694 21.7834 30.5568 21.7834H30.5197H30.4826V21.7823Z" fill="#61C5FF"/>
<path d="M23.6074 22.8975L22.1177 23.1034C22.13 23.1086 22.1422 23.1143 22.1545 23.1199C22.1668 23.1256 22.1788 23.1316 22.1908 23.1378C22.2028 23.144 22.2151 23.1503 22.2271 23.1567C22.2392 23.1632 22.2512 23.1697 22.2632 23.1768L23.7534 22.9697L23.7174 22.95L23.6811 22.9316C23.6688 22.9253 23.6565 22.9197 23.6442 22.914L23.6074 22.8975Z" fill="#61C5FF"/>
<path d="M28.1854 22.2653L24.0647 22.8336L24.1015 22.8499L24.1384 22.8675L24.1747 22.8859L24.211 22.9056L28.3328 22.3343L28.2965 22.3153L28.2596 22.2977C28.2474 22.2918 28.2351 22.2864 28.2228 22.281C28.2105 22.2755 28.198 22.2701 28.1857 22.2653H28.1854Z" fill="#61C5FF"/>
<path d="M24.6836 41.1383L45.9573 35.4684L45.6677 35.9169L24.4124 41.6465L24.6836 41.1383Z" fill="#B3B3B3"/>
<path d="M21.5768 15.1095C21.528 14.998 21.4637 14.8942 21.3859 14.8012C21.3184 14.7195 21.2361 14.6517 21.1435 14.6014C21.0618 14.5566 20.9693 14.5356 20.8765 14.5408C20.7877 14.5474 20.7031 14.5814 20.6339 14.6382C20.5591 14.7009 20.4993 14.7799 20.459 14.8694C20.4113 14.9741 20.3808 15.086 20.3688 15.2007C20.3544 15.3326 20.358 15.4659 20.3794 15.5969C20.4007 15.731 20.4393 15.8617 20.4942 15.9856C20.5434 16.0975 20.6084 16.2017 20.687 16.2949C20.7549 16.3765 20.8376 16.4442 20.9307 16.4941C21.0126 16.5383 21.1051 16.5585 21.1977 16.5523C21.2865 16.5445 21.3709 16.5095 21.4396 16.4519C21.5137 16.3885 21.5728 16.309 21.6126 16.2194C21.6597 16.1149 21.6897 16.0033 21.7012 15.8889C21.7153 15.7578 21.7115 15.6253 21.69 15.4951C21.6691 15.3621 21.631 15.2324 21.5768 15.1095Z" fill="#8DBEFF"/>
<path d="M24.4398 26.0423L22.447 27.37C22.9635 27.0241 23.4128 26.5847 23.7722 26.0739C24.1426 25.5454 24.4236 24.9581 24.6037 24.3361C24.7979 23.6648 24.8941 22.9683 24.8892 22.2688C24.8836 21.4948 24.7782 20.725 24.5755 19.9787C24.2938 18.9323 23.8523 17.937 23.267 17.0289C22.6998 16.144 22.007 15.3486 21.2111 14.6683C20.4295 14.0035 19.5665 13.4736 18.6674 13.1167C17.7683 12.7598 16.8248 12.5771 15.8922 12.6091C15.6054 12.6189 15.3196 12.6501 15.0373 12.7024C14.7675 12.7525 14.502 12.8239 14.2431 12.9159C13.9921 13.0048 13.7484 13.1137 13.5143 13.2416C13.2845 13.3677 13.0649 13.512 12.8574 13.6732L14.7499 12.2021C14.9581 12.0404 15.1786 11.8956 15.4094 11.7693C15.6444 11.6414 15.889 11.5325 16.1409 11.4437C16.4011 11.352 16.6681 11.2812 16.9392 11.2317C17.223 11.1798 17.5102 11.1494 17.7984 11.1407C18.7362 11.1111 19.6825 11.2988 20.5907 11.6622C21.4989 12.0256 22.3656 12.5621 23.1537 13.2354C23.9567 13.9237 24.6557 14.7276 25.2286 15.6214C25.8201 16.5383 26.2674 17.5429 26.5547 18.599C26.7608 19.3512 26.8694 20.1273 26.8778 20.9079C26.8853 21.6118 26.791 22.313 26.598 22.9891C26.4192 23.6149 26.1388 24.2062 25.7681 24.7384C25.4088 25.2527 24.9584 25.6948 24.4398 26.0423Z" fill="#077D38"/>
<path d="M17.5101 10.0405C18.5807 10.0097 19.66 10.2263 20.6959 10.6425C21.7318 11.0587 22.7184 11.6715 23.6159 12.4392C24.53 13.2243 25.3262 14.1404 25.9794 15.1586C26.6534 16.2031 27.1637 17.3472 27.4921 18.5501C27.8213 19.768 27.9251 20.9439 27.8308 22.0284C27.7365 23.1129 27.4407 24.1161 26.9712 24.9736C26.5122 25.8252 25.8532 26.549 25.0526 27.081C24.2497 27.6094 23.2951 27.9412 22.2169 28.0221C21.1327 28.1034 20.0272 27.9235 18.957 27.5269C17.8869 27.1303 16.8468 26.5129 15.9051 25.7263C14.9416 24.9179 14.1056 23.965 13.4261 22.9005C12.7252 21.8111 12.2032 20.6137 11.8803 19.3549C11.5602 18.0892 11.4831 16.8767 11.6161 15.7706C11.7492 14.6645 12.0902 13.671 12.608 12.8292C13.1107 12.0008 13.8099 11.3129 14.6418 10.8283C15.4679 10.3488 16.4343 10.0713 17.5101 10.0405ZM21.9181 26.8825C22.8621 26.8143 23.6984 26.5272 24.4025 26.067C25.105 25.6039 25.6839 24.9722 26.0877 24.2279C26.5014 23.4782 26.7622 22.6042 26.8481 21.6499C26.934 20.6957 26.8427 19.6682 26.5553 18.5995C26.2681 17.5433 25.8208 16.5388 25.2293 15.6219C24.6564 14.728 23.9573 13.9241 23.1544 13.2358C22.3663 12.5626 21.4969 12.0249 20.5914 11.6626C19.6858 11.3004 18.7369 11.1115 17.7991 11.1412C16.8612 11.1709 16.0123 11.4168 15.29 11.8376C14.5634 12.2644 13.9535 12.8685 13.5158 13.595C13.0653 14.3327 12.7691 15.2056 12.6551 16.1703C12.541 17.1349 12.6099 18.1979 12.8904 19.3028C13.1735 20.4018 13.6299 21.4473 14.2419 22.3987C14.8353 23.3277 15.565 24.1594 16.4058 24.8653C17.2273 25.5532 18.1317 26.092 19.0696 26.4416C20.0074 26.7911 20.9704 26.9496 21.9189 26.8813L21.9181 26.8825Z" fill="#31C970"/>
<path d="M25.0541 27.081L23.0541 28.3987C22.8528 28.5312 22.6434 28.6505 22.4272 28.7559C22.2062 28.8639 21.9787 28.9575 21.7459 29.0361C21.5057 29.1171 21.2608 29.1829 21.0126 29.2331C20.7539 29.2852 20.4924 29.3216 20.2295 29.3421C19.1509 29.4262 18.0527 29.2512 16.9901 28.8612C15.9276 28.4711 14.895 27.8626 13.9621 27.0856C13.007 26.2874 12.1788 25.3448 11.5067 24.2911C10.8132 23.2121 10.298 22.0257 9.98144 20.7785C9.77547 19.9704 9.66922 19.1394 9.66514 18.3047C9.66137 17.5526 9.75961 16.8035 9.95711 16.0786C10.139 15.4121 10.4202 14.7777 10.7912 14.1974C11.145 13.6454 11.5872 13.1572 12.0997 12.753L12.2864 12.6061L12.3799 12.5325L12.5673 12.3853L12.7551 12.2381L12.849 12.1641L13.0372 12.0161L13.2273 11.8677L13.3215 11.7937L13.5116 11.6449L13.7017 11.4958L13.7967 11.421L13.9868 11.2715C13.4726 11.6775 13.0293 12.1681 12.6753 12.7229C12.3037 13.3071 12.0227 13.9457 11.8423 14.6164C11.6456 15.3472 11.5492 16.1019 11.5557 16.8594C11.5624 17.7017 11.6719 18.5399 11.8819 19.3549C12.2048 20.6137 12.7268 21.8111 13.4276 22.9006C14.1071 23.965 14.9431 24.918 15.9066 25.7263C16.8483 26.5129 17.8835 27.1288 18.9586 27.5269C20.0337 27.925 21.1343 28.105 22.2185 28.0221C22.4828 28.0025 22.7457 27.9666 23.0058 27.9146C23.2552 27.8649 23.5012 27.7994 23.7425 27.7185C23.9763 27.6398 24.2048 27.5462 24.4268 27.4383C24.6432 27.3328 24.8527 27.2135 25.0541 27.081Z" fill="#108F45"/>
<path d="M13.074 29.9909L14.2126 27.2718C14.4327 26.7458 15.3264 26.6217 16.2236 26.9967C17.1303 27.3759 17.6967 28.1217 17.4888 28.6624C17.4869 28.6682 17.4842 28.6739 17.482 28.6793L16.3434 31.3987C16.346 31.3929 16.3483 31.3872 16.3506 31.3814C16.5582 30.8418 15.9917 30.0949 15.085 29.7161C14.1878 29.3388 13.2941 29.4629 13.074 29.9909Z" fill="#2C523B"/>
<g style="mix-blend-mode:screen">
<path d="M14.665 26.8691L13.5044 29.5969C13.9009 29.4366 14.4928 29.4651 15.0847 29.7126C15.176 29.7511 15.2626 29.7931 15.3467 29.8382L16.5001 27.1269C16.4115 27.0791 16.3199 27.0336 16.2233 26.9932C15.6409 26.7511 15.0611 26.7195 14.665 26.8691Z" fill="#49584D"/>
</g>
<path d="M8.69762 37.9928C8.70712 37.9697 8.71967 37.9385 8.72879 37.9157C9.06637 37.1098 10.4357 36.9198 11.8081 37.4945C13.1972 38.0753 14.0651 39.2176 13.7469 40.0458C13.7435 40.0547 13.7401 40.0636 13.7363 40.0724C13.6793 40.1946 13.5987 40.3549 13.5306 40.4709C13.4785 40.5578 13.4204 40.6407 13.3565 40.7191C13.2667 40.8294 13.1702 40.9339 13.0676 41.0321C12.9591 41.1332 12.8424 41.2247 12.7186 41.3057C12.6172 41.3717 12.512 41.4314 12.4034 41.4845C12.3521 41.508 12.2837 41.5404 12.2308 41.5616C12.1518 41.5913 12.0457 41.6298 11.9647 41.6522C11.8379 41.6876 11.7087 41.7133 11.5781 41.7293C11.4177 41.75 11.2557 41.7565 11.0942 41.7485C10.9524 41.7413 10.8114 41.7227 10.6726 41.693C10.5426 41.6652 10.4148 41.628 10.2901 41.5816C10.0533 41.4932 9.82993 41.3717 9.62635 41.2205C9.51197 41.1361 9.40443 41.0425 9.30474 40.9407C9.22381 40.8572 9.14765 40.7691 9.07664 40.6767C9.04699 40.6363 9.00669 40.5823 8.97932 40.5403C8.9413 40.484 8.89454 40.4089 8.86261 40.3499C8.78842 40.2139 8.72486 40.0721 8.67253 39.926C8.56318 39.617 8.50886 39.2907 8.5121 38.9625C8.5134 38.8083 8.52803 38.6546 8.55582 38.5031C8.56836 38.4379 8.58547 38.3489 8.60334 38.2869C8.62843 38.1974 8.66455 38.0787 8.69838 37.9924C8.26424 39.1216 9.00251 40.4833 10.3711 41.0556C9.00175 40.4836 8.26347 39.122 8.69762 37.9928Z" fill="#294D31"/>
<path d="M8.72876 37.9149L12.2042 29.6146C12.5418 28.8083 13.9111 28.6183 15.2835 29.1929C16.6726 29.7741 17.5405 30.9164 17.2223 31.7447C17.2189 31.7535 17.2155 31.7624 17.2117 31.7713L13.7363 40.0716C13.7401 40.0628 13.7435 40.0539 13.7469 40.045C14.0651 39.2168 13.1972 38.0745 11.8081 37.4937C10.4357 36.9191 9.06634 37.1091 8.72876 37.9149Z" fill="#11733A"/>
<g style="mix-blend-mode:screen">
<path d="M15.2851 29.1929C14.6217 28.9155 13.9595 28.8168 13.4139 28.8792L9.87842 37.1869C10.435 37.1098 11.1212 37.2062 11.8085 37.4952C12.0461 37.5941 12.275 37.7133 12.4928 37.8513L16.0123 29.5783C15.7818 29.4281 15.5384 29.2991 15.2851 29.1929Z" fill="#1F4819"/>
</g>
<g style="mix-blend-mode:screen">
<path d="M11.5213 39.5471C11.6495 39.1791 11.3717 38.7439 10.9008 38.5752C10.4298 38.4065 9.94406 38.5681 9.81577 38.9362C9.68749 39.3043 9.96528 39.7394 10.4362 39.9081C10.9072 40.0768 11.393 39.9152 11.5213 39.5471Z" fill="#4D4D4D"/>
</g>
<path opacity="0.5" d="M20.4894 27.4922C21.4329 27.4244 22.2693 27.1369 22.9734 26.6771C23.6759 26.2139 24.2549 25.5822 24.659 24.838C25.0722 24.088 25.333 23.2139 25.4193 22.26C25.5056 21.3062 25.4144 20.2783 25.1266 19.2092C24.8389 18.1531 24.3912 17.1488 23.7994 16.232C23.2265 15.3381 22.5275 14.5342 21.7245 13.846C20.9368 13.173 20.0674 12.6354 19.1618 12.2731C18.2563 11.9109 17.307 11.722 16.3696 11.7517C15.4321 11.7814 14.5828 12.0273 13.8605 12.4481C13.134 12.8749 12.5241 13.4788 12.0863 14.2052C11.6362 14.9432 11.3396 15.8161 11.2256 16.7804C11.1115 17.7447 11.1803 18.808 11.4613 19.9133C11.7441 21.0124 12.2004 22.0578 12.8124 23.0092C13.406 23.938 14.1357 24.7697 14.9763 25.4758C15.7978 26.1634 16.7026 26.7021 17.6404 27.0517C18.5783 27.4013 19.5413 27.56 20.4898 27.4914L20.4894 27.4922Z" fill="white"/>
<path opacity="0.3" d="M21.2408 27.2636C22.1848 27.1954 23.0207 26.9083 23.7248 26.4485C24.4274 25.9852 25.0064 25.3534 25.4104 24.609C25.8237 23.8594 26.0848 22.9853 26.1708 22.031C26.2567 21.0768 26.1658 20.0493 25.878 18.9806C25.5911 17.9244 25.1439 16.9199 24.5524 16.003C23.9794 15.1092 23.2803 14.3054 22.4775 13.617C21.6894 12.9437 20.82 12.406 19.9144 12.0438C19.0089 11.6815 18.06 11.4926 17.1221 11.5223C16.1843 11.552 15.3354 11.7979 14.6131 12.2187C13.8864 12.6456 13.2764 13.2497 12.8385 13.9762C12.3884 14.7138 12.0918 15.5868 11.9778 16.5514C11.8637 17.5161 11.9325 18.579 12.2135 19.6839C12.4962 20.783 12.9525 21.8285 13.5646 22.7799C14.1582 23.7086 14.8879 24.5403 15.7285 25.2464C16.55 25.934 17.4548 26.4728 18.3926 26.8223C19.3305 27.1719 20.2934 27.3303 21.2439 27.2621L21.2408 27.2636Z" fill="white"/>
<defs>
<linearGradient id="paint0_linear_2445_11877" x1="20.9046" y1="27.1878" x2="17.9285" y2="3.28021" gradientUnits="userSpaceOnUse">
<stop stop-color="#F2F2F2"/>
<stop offset="0.41" stop-color="#FAFAFA"/>
<stop offset="1" stop-color="white"/>
</linearGradient>
<linearGradient id="paint1_linear_2445_11877" x1="26.3012" y1="27.2108" x2="25.7631" y2="22.889" gradientUnits="userSpaceOnUse">
<stop stop-color="#E6E6E6"/>
<stop offset="0.23" stop-color="#E1E1E1"/>
<stop offset="0.51" stop-color="#D1D1D1"/>
<stop offset="0.82" stop-color="#B8B8B8"/>
<stop offset="1" stop-color="#A6A6A6"/>
</linearGradient>
<linearGradient id="paint2_linear_2445_11877" x1="32.456" y1="40.1711" x2="30.1601" y2="21.7268" gradientUnits="userSpaceOnUse">
<stop stop-color="#F2F2F2"/>
<stop offset="0.41" stop-color="#FAFAFA"/>
<stop offset="1" stop-color="white"/>
</linearGradient>
</defs>
</svg>
