<svg width="16" height="16" viewBox="0 0 16 16" fill="none" xmlns="http://www.w3.org/2000/svg">
<path d="M11.6828 4.50315C11.6828 4.22815 11.4578 4.00159 11.1812 4.00159H4.78745C4.51245 4.00159 4.28589 4.22659 4.28589 4.50315C4.28589 4.77815 4.51089 5.00471 4.78745 5.00471H11.1812C11.4578 5.00471 11.6828 4.77815 11.6828 4.50315ZM4.78745 7.00002C4.51245 7.00002 4.28589 7.22502 4.28589 7.50159C4.28589 7.77659 4.51089 8.00315 4.78745 8.00315H7.77339C8.04995 8.00315 8.27651 7.77815 8.27495 7.50159C8.27495 7.22659 8.04995 7.00002 7.77339 7.00002H4.78745ZM11.9781 12.1375C11.9453 12.1047 11.9093 12.0766 11.8703 12.0563C12.1531 11.6531 12.3187 11.1641 12.3187 10.636C12.3187 9.25784 11.1875 8.14221 9.79214 8.14221C8.39683 8.14221 7.26558 9.25784 7.26558 10.636C7.26558 12.0141 8.39683 13.1297 9.79214 13.1297C10.3031 13.1297 10.7796 12.9797 11.1781 12.7219C11.2015 12.7672 11.2312 12.8094 11.2687 12.8469L12.5703 14.1485C12.7656 14.3438 13.0843 14.3438 13.2796 14.1485C13.475 13.9531 13.475 13.6344 13.2796 13.4391L11.9781 12.1375ZM9.79214 12.1469C8.94683 12.1469 8.26089 11.4703 8.26089 10.636C8.26089 9.80159 8.94683 9.12502 9.79214 9.12502C10.6375 9.12502 11.3234 9.80159 11.3234 10.636C11.3234 11.4703 10.639 12.1469 9.79214 12.1469Z" fill="white"/>
<path d="M9.025 13.9906H3.45625C2.90625 13.9906 2.45625 13.5406 2.45625 12.9906V3.01245C2.45625 2.46245 2.90625 2.01245 3.45625 2.01245H12.0078C12.5578 2.01245 13.0078 2.46245 13.0078 3.01245V7.98745H13.0125V7.98901C13.0125 8.26558 13.2375 8.49058 13.5156 8.49058C13.7937 8.49058 14.0187 8.26558 14.0187 7.98901C14.0187 7.97026 14.0172 7.95308 14.0156 7.93433V2.99683C14.0156 1.89683 13.5844 0.996826 12.4844 0.996826H3.51562C2.41562 0.996826 1.51562 1.89683 1.51562 2.99683V12.9937C1.51562 14.0937 2.41562 14.9937 3.51562 14.9937H9.01875C9.29687 14.9937 9.52187 14.7687 9.52187 14.4921C9.52187 14.2171 9.3 13.9937 9.025 13.9906Z" fill="white"/>
<path d="M13.011 9.98911C13.011 10.1221 13.064 10.2497 13.1583 10.3438C13.2527 10.4378 13.3807 10.4907 13.5141 10.4907C13.6475 10.4907 13.7755 10.4378 13.8699 10.3438C13.9642 10.2497 14.0172 10.1221 14.0172 9.98911C14.0172 9.85609 13.9642 9.72851 13.8699 9.63445C13.7755 9.54039 13.6475 9.48755 13.5141 9.48755C13.3807 9.48755 13.2527 9.54039 13.1583 9.63445C13.064 9.72851 13.011 9.85609 13.011 9.98911Z" fill="white"/>
</svg>
