<svg width="16" height="16" viewBox="0 0 16 16" fill="none" xmlns="http://www.w3.org/2000/svg">
<path d="M14.3063 11.625L11.6094 14.3219C11.3657 14.5657 10.9688 14.5657 10.725 14.3219C10.4813 14.0782 10.4813 13.6813 10.725 13.4375L13.4219 10.7407C13.6657 10.4969 14.0625 10.4969 14.3063 10.7407C14.5485 10.9844 14.5485 11.3829 14.3063 11.625Z" fill="white"/>
<path d="M11.6094 10.7406L14.3063 13.4375C14.55 13.6812 14.55 14.0781 14.3063 14.3218C14.0625 14.5656 13.6657 14.5656 13.4219 14.3218L10.725 11.625C10.4813 11.3812 10.4813 10.9844 10.725 10.7406C10.9688 10.4984 11.3672 10.4984 11.6094 10.7406Z" fill="white"/>
<path d="M9.07808 13.775C8.72495 13.8406 8.36558 13.8734 7.99995 13.8734C7.20776 13.8734 6.43901 13.7187 5.71558 13.4125C5.01714 13.1171 4.38901 12.6937 3.84995 12.1531C3.31089 11.614 2.88745 10.9859 2.59058 10.2859C2.28433 9.56245 2.12964 8.7937 2.12964 8.00151C2.12964 7.20933 2.28433 6.44058 2.59058 5.71714C2.88589 5.0187 3.30933 4.39058 3.84995 3.84995C4.38901 3.31089 5.01714 2.88745 5.71558 2.59058C6.43901 2.28433 7.20776 2.12964 7.99995 2.12964C8.79214 2.12964 9.56089 2.28433 10.2843 2.59058C10.9828 2.88589 11.6109 3.30933 12.1515 3.84995C12.6906 4.38901 13.114 5.01714 13.4109 5.71714C13.7171 6.44058 13.8718 7.20933 13.8718 8.00151C13.8718 8.34526 13.8421 8.68276 13.7843 9.01558H14.8906C14.939 8.68433 14.964 8.34526 14.964 7.99995C14.964 4.15464 11.8453 1.03589 7.99995 1.03589C4.15464 1.03589 1.03589 4.15464 1.03589 7.99995C1.03589 11.8453 4.15464 14.964 7.99995 14.964C8.36714 14.964 8.72651 14.9359 9.07808 14.8812V13.775Z" fill="white"/>
<path d="M4.42183 8.4969C4.54839 8.62346 4.72495 8.70315 4.91714 8.70315H11.0812C11.4671 8.70315 11.7843 8.38752 11.7843 8.00002C11.7843 7.80627 11.7046 7.63127 11.5781 7.50471C11.4515 7.37815 11.275 7.29846 11.0828 7.29846H4.9187C4.53276 7.29846 4.21558 7.61409 4.21558 8.00159C4.21558 8.19065 4.2937 8.36721 4.42183 8.4969Z" fill="white"/>
</svg>
