<svg width="17" height="16" viewBox="0 0 17 16" fill="none" xmlns="http://www.w3.org/2000/svg">
<path d="M14.4249 13.091C14.5582 13.326 14.5536 13.3333 14.2649 13.3333H2.73491C2.44658 13.3333 2.44191 13.3253 2.57491 13.091L8.37924 2.841C8.51058 2.60867 8.48924 2.60867 8.62058 2.841L14.4249 13.0907V13.091ZM7.21924 2.18333L1.41458 12.4333C0.773911 13.5657 1.43424 14.6667 2.73491 14.6667H14.2649C15.5666 14.6667 16.2252 13.565 15.5849 12.434L9.78058 2.184C9.13858 1.04967 7.86058 1.05 7.21891 2.184L7.21924 2.18333ZM8.49991 12.3333C8.41235 12.3333 8.32565 12.3161 8.24476 12.2826C8.16386 12.2491 8.09036 12.2 8.02844 12.1381C7.96652 12.0762 7.91741 12.0027 7.8839 11.9218C7.85039 11.8409 7.83314 11.7542 7.83314 11.6667C7.83314 11.5791 7.85039 11.4924 7.8839 11.4115C7.91741 11.3306 7.96652 11.2571 8.02844 11.1952C8.09036 11.1333 8.16386 11.0842 8.24476 11.0507C8.32565 11.0172 8.41235 11 8.49991 11C8.6767 11 8.84625 11.0703 8.97125 11.1953C9.09625 11.3203 9.16647 11.4899 9.16647 11.6667C9.16647 11.8435 9.09625 12.013 8.97125 12.138C8.84625 12.2631 8.6767 12.3333 8.49991 12.3333ZM9.16658 6.33333V9.66667C9.16658 9.84348 9.09634 10.013 8.97131 10.1381C8.84629 10.2631 8.67672 10.3333 8.49991 10.3333C8.3231 10.3333 8.15353 10.2631 8.02851 10.1381C7.90348 10.013 7.83324 9.84348 7.83324 9.66667V6.33333C7.83324 6.15652 7.90348 5.98695 8.02851 5.86193C8.15353 5.7369 8.3231 5.66667 8.49991 5.66667C8.67672 5.66667 8.84629 5.7369 8.97131 5.86193C9.09634 5.98695 9.16658 6.15652 9.16658 6.33333Z" fill="#DE5241"/>
</svg>
